<?xml version="1.0" encoding="UTF-8" standalone="no"?>
<!-- Created with Inkscape (http://www.inkscape.org/) -->

<svg
   xmlns:dc="http://purl.org/dc/elements/1.1/"
   xmlns:cc="http://creativecommons.org/ns#"
   xmlns:rdf="http://www.w3.org/1999/02/22-rdf-syntax-ns#"
   xmlns:svg="http://www.w3.org/2000/svg"
   xmlns="http://www.w3.org/2000/svg"
   xmlns:sodipodi="http://sodipodi.sourceforge.net/DTD/sodipodi-0.dtd"
   xmlns:inkscape="http://www.inkscape.org/namespaces/inkscape"
   width="800"
   height="480"
   viewBox="0 0 211.66666 127"
   version="1.1"
   id="svg8"
   inkscape:version="0.92.4 (5da689c313, 2019-01-14)"
   sodipodi:docname="Letters3.svg">
  <defs
     id="defs2" />
  <sodipodi:namedview
     id="base"
     pagecolor="#ffffff"
     bordercolor="#666666"
     borderopacity="1.0"
     inkscape:pageopacity="0.0"
     inkscape:pageshadow="2"
     inkscape:zoom="0.70000001"
     inkscape:cx="510.19213"
     inkscape:cy="217.49049"
     inkscape:document-units="mm"
     inkscape:current-layer="text1023"
     showgrid="false"
     units="px"
     inkscape:window-width="1920"
     inkscape:window-height="1017"
     inkscape:window-x="-8"
     inkscape:window-y="-8"
     inkscape:window-maximized="1" />
  <metadata
     id="metadata5">
    <rdf:RDF>
      <cc:Work
         rdf:about="">
        <dc:format>image/svg+xml</dc:format>
        <dc:type
           rdf:resource="http://purl.org/dc/dcmitype/StillImage" />
        <dc:title />
      </cc:Work>
    </rdf:RDF>
  </metadata>
  <g
     inkscape:label="Layer 1"
     inkscape:groupmode="layer"
     id="layer1"
     transform="translate(0,-169.99998)">
    <g
       aria-label="8"
       style="font-style:normal;font-variant:normal;font-weight:900;font-stretch:normal;font-size:109.85178375px;line-height:1.25;font-family:Arial;-inkscape-font-specification:'Arial Heavy';letter-spacing:0px;word-spacing:0px;fill:#000000;fill-opacity:1;stroke:none;stroke-width:0.26458335"
       id="text1023">
      <path
         inkscape:connector-curvature="0"
         id="path867"
         d="M 81.634971,172.98029 78.031569,172.94117 74.435877,173.11304 70.858858,173.49463 67.31147,174.08463 63.804675,174.88175 60.349433,175.8847 56.956703,177.09218 53.637448,178.5029 50.402627,180.11557 47.263201,181.92889 44.230128,183.94157 41.314372,186.15231 38.526891,188.55982 35.878646,191.16282 33.380598,193.95999 31.043706,196.95006 29.380349,199.35648 27.855348,201.82448 26.468065,204.34865 25.217863,206.92356 24.104103,209.54378 23.126148,212.20389 22.283362,214.89847 21.575107,217.62208 21.000744,220.3693 20.559637,223.13472 20.251149,225.9129 20.074641,228.69842 20.029477,231.48586 20.115019,234.26978 20.330629,237.04477 20.67567,239.8054 21.149504,242.54625 21.751495,245.26189 22.481004,247.94689 23.337394,250.59583 24.320028,253.20329 25.428268,255.76384 26.661478,258.27205 28.019018,260.72251 29.500252,263.10978 31.104542,265.42845 32.831252,267.67308 34.679743,269.83825 36.649378,271.91854 38.739519,273.90852 40.94953,275.80277 43.278772,277.59587 45.603718,279.20025 47.988062,280.67109 50.426567,282.00899 52.913991,283.21456 55.445096,284.28841 58.014642,285.23116 60.61739,286.04342 63.248099,286.7258 65.90153,287.27891 68.572444,287.70337 71.255601,287.9998 73.945762,288.16878 76.637686,288.21096 79.326135,288.12692 82.005868,287.91729 84.671647,287.58269 87.31823,287.12371 89.940381,286.54098 92.532854,285.8351 95.090418,285.00669 97.60783,284.05636 100.07985,282.98472 102.50123,281.79239 104.86675,280.47997 107.17115,279.04808 109.4092,277.49734 111.57567,275.82835 113.6653,274.04172 115.67286,272.13806 117.59312,270.11801 119.42082,267.98215 121.15074,265.73111 122.69616,263.48763 124.11282,261.18695 125.40131,258.83411 126.56223,256.43417 127.59616,253.99218 128.50368,251.5132 129.28538,249.00228 129.94186,246.46447 130.47369,243.90483 130.88147,241.32842 131.16578,238.74028 131.32721,236.14548 131.36635,233.54907 131.28378,230.95609 131.08009,228.37161 130.75587,225.80069 130.31171,223.24837 129.74818,220.7197 129.0659,218.21975 128.26542,215.75356 127.34736,213.3262 126.31228,210.94271 125.16079,208.60816 123.89346,206.32758 122.51088,204.10605 121.01364,201.94861 119.40234,199.86032 117.67755,197.84623 115.83986,195.9114 113.88987,194.06087 111.82815,192.29972 109.6553,190.63298 107.4933,189.14654 105.27628,187.78405 103.00911,186.54495 100.69664,185.42869 98.343769,184.43469 95.95535,183.5624 93.536254,182.81124 91.091346,182.18068 88.625502,181.67012 86.143589,181.27902 83.650474,181.00682 81.151029,180.85295 78.650121,180.81684 76.15262,180.89794 73.663395,181.09569 71.187315,181.40952 68.72925,181.83887 66.294068,182.38317 63.886639,183.04187 61.511831,183.81441 59.174515,184.70021 56.879558,185.69872 54.631831,186.80938 52.436201,188.03162 50.29754,189.36489 48.220715,190.80861 46.210596,192.36223 44.272051,194.02518 42.409951,195.79691 40.629164,197.67685 38.934559,199.66443 37.331005,201.7591 35.903543,203.83963 34.595239,205.97299 33.405558,208.15449 32.333961,210.37947 31.379911,212.64323 30.54287,214.94109 29.8223,217.26837 29.217664,219.62037 28.728424,221.99243 28.354043,224.37984 28.093983,226.77794 27.947707,229.18203 27.914677,231.58743 27.994355,233.98947 28.186203,236.38344 28.489685,238.76467 28.904262,241.12848 29.429397,243.47018 30.064552,245.78509 30.80919,248.06852 31.662773,250.31579 32.624764,252.52222 33.694624,254.68312 34.871817,256.7938 36.155805,258.84959 37.546049,260.8458 39.042013,262.77774 40.643159,264.64074 42.348949,266.4301 44.158846,268.14115 46.072312,269.76919 48.088809,271.30956 50.087853,272.67804 52.13754,273.93217 54.233371,275.07245 56.370848,276.0994 58.545473,277.01353 60.752746,277.81534 62.988169,278.50536 65.247245,279.0841 67.525474,279.55206 69.818357,279.90977 72.121397,280.15773 74.430094,280.29646 76.739951,280.32646 79.046468,280.24825 81.345147,280.06236 83.63149,279.76927 85.900998,279.36951 88.149174,278.86359 90.371515,278.25203 92.563525,277.53534 94.720712,276.71402 96.838566,275.78859 98.912594,274.75957 100.9383,273.62746 102.91118,272.39278 104.82674,271.05604 106.68048,269.61776 108.4679,268.07844 110.18451,266.4386 111.8258,264.69875 113.38727,262.8594 114.86443,260.92107 116.17394,259.0035 117.37388,257.03748 118.46475,255.02732 119.44703,252.97732 120.32121,250.89181 121.08777,248.77509 121.74722,246.63149 122.30002,244.46531 122.74668,242.28086 123.08768,240.08247 123.3235,237.87445 123.45463,235.6611 123.48157,233.44674 123.4048,231.23569 123.2248,229.03225 122.94207,226.84075 122.55709,224.6655 122.07035,222.5108 121.48234,220.38097 120.79354,218.28034 120.00445,216.2132 119.11554,214.18387 118.12731,212.19667 117.04025,210.25591 115.85485,208.3659 114.57158,206.53096 113.19095,204.7554 111.71343,203.04354 110.13951,201.39968 108.46969,199.82814 106.70445,198.33324 104.84427,196.91928 103.00818,195.66876 101.12584,194.52299 99.201347,193.48153 97.238851,192.5439 95.242472,191.70964 93.216342,190.9783 91.164583,190.3494 89.091333,189.82248 87.000708,189.3971 84.896845,189.07277 82.783868,188.84904 80.665907,188.72545 78.54709,188.70153 76.431545,188.77682 74.323399,188.95086 72.226782,189.22319 70.145821,189.59334 68.084645,190.06086 66.047381,190.62527 64.038158,191.28613 62.061104,192.04295 60.120347,192.89529 58.220015,193.84268 56.364237,194.88465 54.55714,196.02076 52.802853,197.25052 51.105504,198.57348 49.469221,199.98919 47.898131,201.49716 46.396365,203.09696 44.968049,204.7881 43.617312,206.57013 42.425773,208.32474 41.334196,210.12343 40.342144,211.96226 39.44918,213.8373 38.654865,215.74459 37.958763,217.68019 37.360436,219.64017 36.859446,221.62056 36.455358,223.61744 36.147732,225.62686 35.936132,227.64487 35.82012,229.66753 35.799259,231.6909 35.873111,233.71104 36.04124,235.72399 36.303207,237.72582 36.658576,239.71258 37.106908,241.68033 37.647767,243.62512 38.280716,245.54303 39.005316,247.43008 39.82113,249.28235 40.727721,251.09589 41.724652,252.86676 42.811485,254.59101 43.987783,256.2647 45.253109,257.88389 46.607024,259.44463 48.049092,260.94298 49.578876,262.375 51.195938,263.73673 52.899839,265.02425 54.572957,266.1568 56.287972,267.19418 58.041127,268.1368 59.828664,268.98508 61.646824,269.73943 63.491848,270.40027 65.359979,270.968 67.247457,271.44303 69.150524,271.82579 71.065421,272.11668 72.98839,272.31611 74.915673,272.42451 76.843511,272.44228 78.768146,272.36982 80.685819,272.20757 82.592771,271.95592 84.485244,271.61529 86.359481,271.1861 88.211721,270.66875 90.038209,270.06367 91.83518,269.37125 93.598882,268.59192 95.325555,267.72609 97.01144,266.77417 98.652778,265.73657 100.24581,264.6137 101.78678,263.40599 103.27193,262.11383 104.69749,260.73764 106.05972,259.27784 107.35485,257.73484 108.57912,256.10905 109.65268,254.51742 110.63587,252.88607 111.52908,251.21858 112.3327,249.51853 113.04711,247.78947 113.67271,246.035 114.20987,244.25868 114.659,242.46408 115.02046,240.65479 115.29466,238.83436 115.48198,237.00639 115.5828,235.17444 115.59752,233.34208 115.52652,231.5129 115.37019,229.69045 115.12891,227.87832 114.80308,226.08009 114.39308,224.29932 113.8993,222.53958 113.32212,220.80446 112.66194,219.09753 111.91914,217.42235 111.0941,215.78251 110.18722,214.18157 109.19888,212.62312 108.12947,211.11072 106.97938,209.64795 105.749,208.23838 104.4387,206.88559 103.04889,205.59314 101.57994,204.36463 100.03225,203.20361 98.522108,202.18905 96.974431,201.26007 95.392605,200.41629 93.780027,199.65737 92.140077,198.98294 90.47615,198.39263 88.791631,197.88609 87.089915,197.46294 85.374386,197.12283 83.648436,196.86539 81.915453,196.69026 80.178827,196.59709 78.441946,196.58549 76.708201,196.65513 74.98098,196.80562 73.263673,197.0366 71.559669,197.34773 69.872357,197.73862 68.205126,198.20893 66.561366,198.75828 64.944466,199.38632 63.357814,200.09268 61.804802,200.877 60.288816,201.73891 58.813248,202.67805 57.381486,203.69407 55.996919,204.7866 54.662937,205.95527 53.382929,207.19972 52.160284,208.51959 50.998391,209.91452 49.90064,211.38414 48.945084,212.81279 48.07031,214.27677 47.27598,215.7729 46.561756,217.29797 45.927299,218.84877 45.372273,220.42211 44.89634,222.01476 44.49916,223.62354 44.180398,225.24524 43.939714,226.87664 43.776771,228.51456 43.691232,230.15579 43.682758,231.79711 43.751011,233.43533 43.895654,235.06724 44.116349,236.68964 44.412758,238.29933 44.784543,239.8931 45.231366,241.46773 45.75289,243.02005 46.348777,244.54683 47.018688,246.04488 47.762286,247.51098 48.579233,248.94194 49.469192,250.33455 50.431824,251.68561 51.466792,252.99191 52.573757,254.25025 53.752383,255.45743 55.00233,256.61024 56.323262,257.70547 57.71484,258.73993 59.061985,259.63648 60.4423,260.45705 61.852763,261.20195 63.290357,261.8715 64.75206,262.46601 66.234853,262.98578 69.251629,263.8024 72.316524,264.32383 75.40538,264.5526 78.494039,264.49119 81.55834,264.14211 84.574125,263.50785 87.517234,262.59092 90.363509,261.3938 91.74278,260.69096 93.088788,259.91902 94.398507,259.07827 95.668915,258.16904 96.896995,257.19165 98.07973,256.1464 99.214095,255.0336 100.29707,253.85357 101.32564,252.60661 102.29678,251.29306 103.13432,250.02742 103.90067,248.73079 105.22096,246.0559 106.25996,243.29108 107.01996,240.45901 107.50327,237.58238 107.71218,234.68387 107.64899,231.78616 107.316,228.91194 106.71551,226.0839 105.84982,223.32472 104.72123,220.65707 103.33204,218.10366 101.68455,215.68715 100.76466,214.53732 99.781059,213.43024 98.734026,212.36872 97.623862,211.35561 96.450841,210.39374 95.215257,209.48594 92.818176,207.9953 90.316425,206.76916 87.731219,205.80543 85.083777,205.10202 82.395312,204.65682 79.687037,204.46774 76.980168,204.53267 74.295918,204.84954 71.655503,205.41623 69.080137,206.23066 66.591034,207.29071 64.20941,208.59431 61.956477,210.13934 59.853452,211.92372 57.921549,213.94535 57.026398,215.04447 56.181982,216.20212 54.804605,218.434 53.672648,220.76258 52.78422,223.16814 52.137424,225.63092 51.730367,228.13117 51.561155,230.64916 51.627894,233.16514 51.92869,235.65936 52.461649,238.11208 53.224876,240.50355 54.216478,242.81404 55.43456,245.02379 56.877228,247.11306 58.542589,249.06211 60.428749,250.8512 62.533812,252.46057 64.60048,253.72465 66.755942,254.76237 68.981917,255.57543 71.260124,256.16552 73.572282,256.53432 75.90011,256.68355 78.225326,256.61488 80.529651,256.33002 82.794803,255.83065 85.002501,255.11846 87.134464,254.19516 89.172413,253.06243 91.098061,251.72196 92.893136,250.17546 94.539349,248.42461 96.01842,246.4711 97.169178,244.56968 98.112648,242.5874 98.850321,240.54108 99.383691,238.44753 99.714237,236.32357 99.843458,234.18601 99.772839,232.05168 99.503869,229.93738 99.038043,227.85994 98.376845,225.83617 97.521769,223.88289 96.474304,222.0169 95.23594,220.25504 93.808162,218.61411 92.192463,217.11093 90.390332,215.76232 88.65416,214.72492 86.845015,213.87575 84.978256,213.21351 83.069243,212.73692 81.133337,212.44471 79.185897,212.33557 77.242284,212.40824 75.317858,212.66141 73.427978,213.09381 71.588005,213.70416 69.813299,214.49116 68.11922,215.45352 66.521129,216.58998 65.034384,217.89924 63.674346,219.38001 62.456375,221.03102 61.532387,222.60191 60.777573,224.23791 60.190853,225.92511 59.771146,227.64959 59.517375,229.39747 59.428457,231.15481 59.503313,232.90772 59.740863,234.64228 60.140028,236.34458 60.699728,238.00072 61.418882,239.59678 62.29641,241.11886 63.331232,242.55305 64.52227,243.88543 65.868442,245.1021 67.368669,246.18915 68.774248,246.99968 70.23713,247.66008 71.744847,248.17124 73.284928,248.53401 74.844902,248.74927 76.412298,248.81789 77.974646,248.74074 79.519475,248.5187 81.034316,248.15261 82.506696,247.64337 83.924147,246.99184 85.274196,246.19889 86.544374,245.26539 87.722211,244.19221 88.795235,242.98022 89.750976,241.63029 90.447954,240.39004 91.013835,239.10019 91.449275,237.77178 91.754939,236.41586 91.931478,235.0435 91.979559,233.66574 91.899831,232.29364 91.692951,230.93824 91.359589,229.6106 90.900391,228.32178 90.316018,227.08282 89.607131,225.90477 88.774389,224.7987 87.818443,223.77565 86.739958,222.84667 85.539589,222.02281 84.464705,221.43952 83.347798,220.96838 82.198525,220.60894 81.026548,220.36075 79.841526,220.22338 78.653119,220.19636 77.470985,220.27926 76.304784,220.47163 75.164177,220.77301 74.058822,221.18296 72.99838,221.70104 71.992509,222.3268 71.05087,223.05978 70.183121,223.89955 69.398923,224.84565 68.707935,225.89765 68.238469,226.80713 67.862253,227.75122 67.57906,228.72162 67.388664,229.71001 67.290841,230.7081 67.285365,231.70757 67.37201,232.70012 67.550552,233.67743 67.820765,234.6312 68.182424,235.55311 68.635303,236.43487 69.179177,237.26816 69.81382,238.04468 70.539008,238.75612 71.354514,239.39416 72.260115,239.9505 73.004293,240.30593 73.776136,240.58686 75.374583,240.92518 76.99899,240.9654 77.803284,240.8737 78.592893,240.70744 79.36076,240.46662 80.099828,240.15122 80.803036,239.76123 81.463327,239.29666 82.073644,238.75747 82.626929,238.14367 83.116122,237.45524 83.534167,236.69219 83.960105,235.5221 84.161544,234.30281 84.138645,233.07072 83.891569,231.86229 83.40704,230.71275 82.676076,229.67627 82.22024,229.2207 81.705268,228.8177 81.131984,228.47541 80.501212,228.2019 79.66451,227.98651 78.804767,227.92775 77.94268,228.02641 77.098942,228.28331 76.296309,228.7307 75.597209,229.38589 75.081847,230.22717 74.918133,230.71083 74.830432,231.23287 74.843651,231.89788 74.997411,232.46058 75.275422,232.95744 75.661391,233.42493 76.205619,233.86989 76.572752,234.03351 77.014556,234.11889 77.496014,234.0788 77.955214,233.90834 78.360311,233.64187 78.679454,233.31374 76.659139,231.77096 76.828357,231.67356 77.206163,231.58431 77.47124,231.65285 77.517897,231.68955 77.434014,231.44898 77.391496,231.36368 77.363023,231.4493 77.421779,231.16383 77.549191,230.9499 78.055986,230.63819 78.865345,230.48852 79.643447,230.5945 80.288003,230.91834 80.800179,231.36935 81.187939,231.93429 81.459248,232.59993 81.606521,233.34219 81.61787,234.1179 81.494809,234.88518 81.238851,235.60211 80.631221,236.56195 79.839244,237.32613 78.903103,237.89307 77.862981,238.26118 76.759061,238.42889 75.631527,238.3946 74.520561,238.15676 73.466347,237.71376 72.804457,237.30545 72.207902,236.83393 71.677023,236.30558 71.21216,235.7268 70.813653,235.10398 70.481843,234.4435 70.019673,233.03514 69.828376,231.55283 69.910674,230.04769 70.269291,228.57083 70.906951,227.17338 71.445261,226.35609 72.059099,225.62059 72.740666,224.96737 73.482167,224.39696 74.275806,223.90985 75.113787,223.50654 75.988313,223.18755 76.891587,222.95337 77.815815,222.80452 78.753199,222.7415 79.695943,222.7648 80.636252,222.87495 81.566328,223.07245 82.478376,223.35778 83.3646,223.73148 84.217202,224.19403 85.188832,224.86227 86.062273,225.61848 86.836845,226.45346 87.511872,227.35796 88.086673,228.32277 88.560571,229.33865 88.932889,230.39637 89.202946,231.48671 89.370062,232.60043 89.43356,233.72832 89.392768,234.86113 89.246996,235.98965 88.995573,237.10463 88.637823,238.19686 88.173059,239.2571 87.600609,240.27613 86.802537,241.40152 85.903949,242.41233 84.91552,243.3077 83.847922,244.08678 82.711829,244.74872 81.517913,245.29265 80.276849,245.71772 78.999309,246.02308 77.695966,246.20788 76.377494,246.27125 75.054567,246.21234 73.737857,246.0303 72.438037,245.72427 71.165781,245.29339 69.931762,244.73681 68.746653,244.05368 67.467841,243.12582 66.319966,242.08488 65.304067,240.94297 64.421184,239.71223 63.672354,238.40477 63.058618,237.03273 62.581014,235.60823 62.24058,234.1434 62.038357,232.65036 61.975382,231.14124 62.052695,229.62817 62.271335,228.12326 62.63234,226.63865 63.13675,225.18647 63.785604,223.77883 64.57994,222.42787 65.637547,220.99586 66.82087,219.71112 68.11632,218.57491 69.51031,217.58842 70.989254,216.7529 72.539563,216.06956 74.147651,215.53963 75.799931,215.16434 77.482815,214.94491 79.182716,214.88257 80.886047,214.97854 82.57922,215.23404 84.248648,215.65031 85.880744,216.22857 87.461921,216.97004 88.978591,217.87595 90.563654,219.06328 91.985089,220.38898 93.241483,221.83798 94.331421,223.39525 95.253492,225.04571 96.006277,226.77434 96.588368,228.56606 96.998352,230.40584 97.23481,232.27861 97.29634,234.16931 97.181519,236.06292 96.888934,237.94436 96.417176,239.79859 95.764832,241.61055 94.930484,243.36519 93.912725,245.04745 92.595696,246.78546 91.127639,248.3435 89.525075,249.71997 87.804517,250.91327 85.982494,251.92179 84.075524,252.74393 82.100129,253.37809 80.07283,253.82266 78.010147,254.07605 75.928601,254.13664 73.844713,254.00284 71.775005,253.67304 69.735998,253.14565 67.744211,252.41905 65.816166,251.49164 63.968385,250.36183 62.077506,248.91512 60.382918,247.3047 58.886417,245.54856 57.589797,243.6647 56.494855,241.6711 55.603386,239.58576 54.917187,237.42667 54.438051,235.21181 54.167776,232.95919 54.108157,230.68679 54.260989,228.41261 54.628069,226.15464 55.211191,223.93086 56.012151,221.75927 57.032746,219.65786 58.27477,217.64464 59.851158,215.60094 61.603965,213.76986 63.513726,212.15337 65.560972,210.75347 67.726237,209.57214 69.990053,208.61139 72.332954,207.87319 74.735473,207.35954 77.178141,207.07241 79.641493,207.01383 82.106061,207.18575 84.552378,207.59018 86.960977,208.22911 89.31239,209.10453 91.587152,210.21842 93.765794,211.57277 95.962232,213.27883 97.929709,215.17402 99.666039,217.23741 101.16905,219.44805 102.43656,221.78499 103.46639,224.2273 104.25636,226.75402 104.8043,229.34423 105.10802,231.97696 105.16534,234.63127 104.97408,237.28624 104.53208,239.92089 103.83714,242.51431 102.88709,245.04553 101.67975,247.49362 100.21293,249.83764 99.321718,251.04273 98.377241,252.1868 97.382315,253.26956 96.33973,254.29068 94.122808,256.14691 91.748895,257.75311 89.240409,259.10691 86.619767,260.20592 83.909382,261.04779 81.131671,261.63013 78.309052,261.95057 75.463939,262.00673 72.618749,261.79625 69.795899,261.31675 67.017805,260.56585 64.306883,259.54118 61.685548,258.24037 59.176218,256.66104 57.892743,255.70668 56.674344,254.6957 55.521341,253.63107 54.434057,252.5158 53.412812,251.35286 52.457928,250.14525 51.569726,248.89594 50.748528,247.60793 49.308429,244.92774 48.140202,242.12859 47.246418,239.23435 46.629648,236.26893 46.292464,233.25623 46.237437,230.22013 46.467137,227.18454 46.984136,224.17335 47.791006,221.21046 48.303946,219.75459 48.890318,218.31975 49.550443,216.90893 50.284642,215.52512 51.093237,214.17131 51.97655,212.85048 52.994047,211.48865 54.071538,210.19594 55.205852,208.97272 56.393816,207.81932 57.632257,206.7361 58.918006,205.72339 60.247889,204.78154 61.618735,203.9109 63.027372,203.11182 64.470628,202.38464 65.94533,201.72969 67.448308,201.14734 68.976389,200.63793 70.526402,200.2018 73.679533,199.55076 76.882327,199.197 80.10941,199.14327 81.724129,199.22979 83.335405,199.39235 84.940065,199.6313 86.534938,199.947 88.116851,200.33977 89.682634,200.80997 91.229112,201.35795 92.753113,201.98405 94.25147,202.6886 95.721011,203.47198 97.158559,204.3345 98.560943,205.27654 100.00113,206.35717 101.36813,207.50115 102.66157,208.70514 103.88108,209.96578 105.02629,211.2797 106.09683,212.64356 107.09232,214.05399 108.0124,215.50764 108.85671,217.00115 109.62486,218.53117 110.31649,220.09434 110.93123,221.6873 111.4687,223.30669 111.92855,224.94916 112.3104,226.61136 112.61387,228.28993 112.83861,229.9815 112.98424,231.68273 113.05038,233.39025 113.03667,235.10071 112.94274,236.81076 112.76823,238.51703 112.51275,240.21617 112.17594,241.90483 111.75743,243.57964 111.25685,245.23725 110.67383,246.87431 110.00799,248.48745 109.25898,250.07333 108.42642,251.62858 107.50994,253.14984 106.50916,254.63377 105.3654,256.15231 104.15491,257.5936 102.88123,258.95726 101.54791,260.24288 100.15848,261.45006 98.716489,262.57843 97.225478,263.62758 95.688988,264.59711 94.110563,265.48664 92.49374,266.29576 90.842063,267.02409 89.159075,267.67123 87.448319,268.23678 85.713333,268.72035 83.957661,269.12155 82.184843,269.43998 80.398422,269.67523 78.60194,269.82694 76.798937,269.8947 74.992957,269.8781 73.187541,269.77676 71.38623,269.59029 69.592566,269.31829 67.810091,268.96036 66.042346,268.51611 64.292873,267.98515 62.565215,267.36708 60.862912,266.6615 59.189508,265.86803 57.548542,264.98627 55.943557,264.01581 54.378094,262.95628 52.781217,261.74938 51.265643,260.47239 49.831792,259.12902 48.480082,257.72301 47.210934,256.25807 46.024764,254.73795 44.921992,253.16636 43.903038,251.54703 42.968319,249.88368 42.118256,248.18005 41.353265,246.43987 40.673768,244.66685 40.080182,242.86472 39.572926,241.03722 39.152419,239.18808 38.81908,237.321 38.573328,235.43973 38.415582,233.54799 38.34626,231.64951 38.365782,229.748 38.474566,227.84722 38.673031,225.95087 38.961596,224.06268 39.340681,222.18639 39.810703,220.32571 40.372082,218.48438 41.025236,216.66612 41.770585,214.87467 42.608547,213.11373 43.539542,211.38706 44.563986,209.69836 45.682302,208.05137 46.952321,206.37616 48.295807,204.78631 49.708848,203.28226 51.187533,201.86446 52.727949,200.53335 54.326186,199.28938 55.978331,198.13298 57.680472,197.0646 59.428698,196.08468 61.219097,195.19367 63.047756,194.39202 64.910765,193.68015 66.804211,193.05852 68.724182,192.52758 70.666767,192.08775 72.628054,191.7395 74.604131,191.48325 76.591086,191.31946 78.585007,191.24857 80.581983,191.27101 82.578102,191.38724 84.569452,191.5977 86.552121,191.90283 88.522199,192.30307 90.475768,192.79886 92.408924,193.39066 94.317753,194.0789 96.19834,194.86404 98.046777,195.74649 99.859149,196.72673 101.63154,197.80518 103.36006,198.98229 105.1136,200.31544 106.77773,201.72542 108.35198,203.20815 109.83589,204.75952 111.22899,206.37545 112.5308,208.05182 113.74085,209.78455 114.85869,211.56953 115.88384,213.40268 116.81584,215.27989 117.65421,217.19706 118.39849,219.15011 119.04821,221.13492 119.60289,223.14741 120.06209,225.18348 120.42531,227.23903 120.6921,229.30996 120.86199,231.39217 120.93451,233.48158 120.90918,235.57408 120.78555,237.66557 120.56315,239.75196 120.2415,241.82915 119.82014,243.89305 119.2986,245.93955 118.67641,247.96456 117.9531,249.96399 117.12821,251.93372 116.20126,253.86968 115.17179,255.76775 114.03934,257.62385 112.80342,259.43388 111.40714,261.26575 109.93066,263.00414 108.37824,264.64857 106.75418,266.19855 105.06275,267.65358 103.30824,269.01318 101.49493,270.27684 99.627098,271.44407 97.709028,272.51439 95.745008,273.4873 93.739317,274.36231 91.696235,275.13892 89.620047,275.81664 87.515037,276.39498 85.385485,276.87345 83.235675,277.25155 81.069887,277.5288 78.892407,277.7047 76.707515,277.77875 74.519493,277.75047 72.332625,277.61935 70.151193,277.38492 67.97948,277.04667 65.821767,276.60412 63.682337,276.05676 61.565473,275.40411 59.475457,274.64569 57.416571,273.78098 55.393099,272.80951 53.409322,271.73077 51.469523,270.54427 49.577985,269.24953 47.667799,267.79014 45.855135,266.24715 44.140511,264.62505 42.524443,262.9283 41.007449,261.16137 39.590046,259.32871 38.272752,257.43482 37.056084,255.48413 35.94056,253.48115 34.926696,251.43031 34.015011,249.3361 33.206021,247.20298 32.500244,245.03542 31.898197,242.83789 31.400399,240.61485 31.007365,238.37078 30.719613,236.11013 30.537662,233.83739 30.462027,231.55701 30.493227,229.27346 30.631779,226.99122 30.878201,224.71474 31.233009,222.44851 31.69672,220.19698 32.269854,217.96462 32.952926,215.75591 33.746454,213.5753 34.650956,211.42726 35.666949,209.31628 36.79495,207.2468 38.035476,205.22331 39.389046,203.25026 40.911565,201.26176 42.521045,199.37484 44.212832,197.59004 45.982273,195.9079 47.824716,194.32897 49.735506,192.85378 51.709991,191.48288 53.743517,190.21681 55.831432,189.05611 57.969081,188.00133 60.151812,187.05301 62.374971,186.21168 64.633906,185.47788 66.923962,184.85218 69.240487,184.33509 71.578827,183.92717 73.93433,183.62896 76.302342,183.44099 78.67821,183.36382 81.05728,183.39798 83.4349,183.54401 85.806416,183.80246 88.167173,184.17386 90.512524,184.65877 92.837807,185.25772 95.138376,185.97125 97.409576,186.7999 99.646749,187.74423 101.84525,188.80476 104.00042,189.98204 106.1076,191.27662 108.16215,192.68903 110.22897,194.27468 112.19015,195.95065 114.04513,197.71213 115.79333,199.55425 117.4342,201.4722 118.96718,203.46113 120.39169,205.51621 121.70716,207.63258 122.91303,209.80542 124.00873,212.02989 124.99371,214.30114 125.86738,216.61434 126.62918,218.96465 127.27856,221.34723 127.81493,223.75724 128.23774,226.18985 128.54642,228.64021 128.7404,231.10349 128.81912,233.57485 128.782,236.04944 128.62849,238.52244 128.35802,240.989 127.97001,243.44428 127.46391,245.88344 126.83915,248.30166 126.09516,250.69407 125.23137,253.05586 124.24722,255.38218 123.14214,257.66819 121.91557,259.90905 120.56694,262.09993 119.09568,264.23598 117.44692,266.3811 115.70445,268.41654 113.87331,270.34169 111.95851,272.15597 109.96507,273.85879 107.89803,275.44954 105.7624,276.92766 103.56321,278.29253 101.30548,279.54358 98.994238,280.68021 96.634507,281.70183 94.231305,282.60785 91.789661,283.39767 89.314601,284.07071 86.811144,284.62638 84.284315,285.06408 81.739138,285.38323 79.180637,285.58323 76.613836,285.66349 74.043758,285.62342 71.475427,285.46243 68.913867,285.17993 66.364101,284.77533 63.831154,284.24804 61.320049,283.59746 58.83581,282.823 56.383461,281.92408 53.968025,280.9001 51.594526,279.75048 49.267988,278.47461 46.993435,277.07191 44.77589,275.5418 42.552453,273.82992 40.442756,272.02096 38.447416,270.12013 36.567049,268.13264 34.802271,266.0637 33.153698,263.91851 31.621945,261.70229 30.20763,259.42025 28.911367,257.0776 27.733774,254.67954 26.675466,252.23128 25.737058,249.73804 24.919167,247.20502 24.22241,244.63743 23.647401,242.04048 23.194758,239.41938 22.865095,236.77934 22.659031,234.12557 22.577179,231.46328 22.620155,228.79768 22.788578,226.13397 23.083061,223.47737 23.504222,220.83308 24.052675,218.20631 24.729038,215.60228 25.533927,213.02619 26.467956,210.48325 27.531743,207.97868 28.725903,205.51768 30.051052,203.10545 31.507807,200.74721 33.096783,198.44817 34.871784,196.14643 36.747239,193.96249 38.717754,191.89699 40.777933,189.95057 42.922383,188.12387 45.145707,186.41754 47.442513,184.8322 49.807404,183.36851 52.234987,182.02711 54.719865,180.80863 57.256646,179.71371 59.839933,178.74299 62.464333,177.89713 65.124451,177.17674 67.814891,176.58248 70.530258,176.11499 73.265159,175.7749 76.014198,175.56286 78.771982,175.4795 81.533114,175.52548 84.292201,175.70142 87.043847,176.00797 89.782658,176.44576 92.50324,177.01545 95.200196,177.71766 97.868133,178.55305 100.50166,179.52224 103.09537,180.62588 105.64388,181.86462 108.1418,183.23908 110.58371,184.74991 112.96424,186.39776 114.82666,187.81947 116.61969,189.30932 118.3425,190.86452 119.99428,192.48231 121.57423,194.15989 123.08153,195.8945 124.51537,197.68336 125.87493,199.52368 127.15941,201.41269 128.36797,203.34762 129.49983,205.32568 130.55415,207.3441 131.53013,209.4001 132.42697,211.4909 133.24383,213.61372 133.97991,215.76579 134.6344,217.94433 135.20648,220.14656 135.69534,222.3697 136.10017,224.61097 136.42014,226.8676 136.65447,229.13681 136.80232,231.41581 136.86288,233.70185 136.83535,235.99212 136.7189,238.28387 136.51274,240.5743 136.21603,242.86064 135.82797,245.14012 135.34775,247.40995 134.77455,249.66736 134.10756,251.90957 136.52797,252.68295 137.22446,250.34206 137.82317,247.98571 138.32495,245.61678 138.73063,243.23813 139.04104,240.85264 139.25702,238.46318 139.3794,236.07261 139.40902,233.68381 139.34672,231.29965 139.19333,228.92299 138.94968,226.55671 138.61662,224.20368 138.19498,221.86677 137.68559,219.54885 137.08929,217.25279 136.40691,214.98146 135.63929,212.73773 134.78727,210.52447 133.85168,208.34455 132.83335,206.20084 131.73313,204.09622 130.55184,202.03354 129.29033,200.01569 127.94942,198.04554 126.52996,196.12594 125.03278,194.25978 123.45871,192.44993 121.80859,190.69925 120.08326,189.01061 118.28355,187.38689 116.4103,185.83096 114.46434,184.34568 112.60463,183.04049 110.70826,181.81592 108.77761,180.6717 106.81503,179.60753 104.82289,178.62314 102.80356,177.71825 100.75941,176.89259 98.692787,176.14587 96.606072,175.4778 94.501617,174.88812 92.381801,174.37653 90.248978,173.94276 88.105521,173.58653 85.95379,173.30757 83.796152,173.10558 81.634971,172.98029 V 172.98029"
         style="color:#000000;font-style:normal;font-variant:normal;font-weight:normal;font-stretch:normal;font-size:medium;line-height:1.25;font-family:Arial;-inkscape-font-specification:'Arial Heavy';font-variant-ligatures:normal;font-variant-position:normal;font-variant-caps:normal;font-variant-numeric:normal;font-variant-alternates:normal;font-feature-settings:normal;text-indent:0;text-align:start;text-decoration:none;text-decoration-line:none;text-decoration-style:solid;text-decoration-color:#000000;letter-spacing:0px;word-spacing:0px;text-transform:none;writing-mode:lr-tb;direction:ltr;text-orientation:mixed;dominant-baseline:auto;baseline-shift:baseline;text-anchor:start;white-space:normal;shape-padding:0;clip-rule:nonzero;display:inline;overflow:visible;visibility:visible;opacity:1;isolation:auto;mix-blend-mode:normal;color-interpolation:sRGB;color-interpolation-filters:linearRGB;solid-color:#000000;solid-opacity:1;vector-effect:none;fill:#00ffff;fill-opacity:1;fill-rule:evenodd;stroke:none;stroke-width:5;stroke-linecap:butt;stroke-linejoin:miter;stroke-miterlimit:4;stroke-dasharray:none;stroke-dashoffset:0;stroke-opacity:1;color-rendering:auto;image-rendering:auto;shape-rendering:auto;text-rendering:auto;enable-background:accumulate" />
    </g>
  </g>
</svg>
