<?xml version="1.0" encoding="UTF-8" standalone="no"?>
<!-- Created with Inkscape (http://www.inkscape.org/) -->

<svg
   xmlns:dc="http://purl.org/dc/elements/1.1/"
   xmlns:cc="http://creativecommons.org/ns#"
   xmlns:rdf="http://www.w3.org/1999/02/22-rdf-syntax-ns#"
   xmlns:svg="http://www.w3.org/2000/svg"
   xmlns="http://www.w3.org/2000/svg"
   xmlns:sodipodi="http://sodipodi.sourceforge.net/DTD/sodipodi-0.dtd"
   xmlns:inkscape="http://www.inkscape.org/namespaces/inkscape"
   width="800"
   height="480"
   viewBox="0 0 211.66666 127"
   version="1.1"
   id="svg8"
   inkscape:version="0.92.4 (5da689c313, 2019-01-14)"
   sodipodi:docname="Letters1.svg">
  <defs
     id="defs2" />
  <sodipodi:namedview
     id="base"
     pagecolor="#ffffff"
     bordercolor="#666666"
     borderopacity="1.0"
     inkscape:pageopacity="0.0"
     inkscape:pageshadow="2"
     inkscape:zoom="1.979899"
     inkscape:cx="334.5473"
     inkscape:cy="210.34763"
     inkscape:document-units="mm"
     inkscape:current-layer="text1023"
     showgrid="false"
     units="px"
     inkscape:window-width="1920"
     inkscape:window-height="1017"
     inkscape:window-x="-8"
     inkscape:window-y="-8"
     inkscape:window-maximized="1" />
  <metadata
     id="metadata5">
    <rdf:RDF>
      <cc:Work
         rdf:about="">
        <dc:format>image/svg+xml</dc:format>
        <dc:type
           rdf:resource="http://purl.org/dc/dcmitype/StillImage" />
        <dc:title />
      </cc:Work>
    </rdf:RDF>
  </metadata>
  <g
     inkscape:label="Layer 1"
     inkscape:groupmode="layer"
     id="layer1"
     transform="translate(0,-169.99998)">
    <g
       aria-label="8"
       style="font-style:normal;font-variant:normal;font-weight:900;font-stretch:normal;font-size:109.85178375px;line-height:1.25;font-family:Arial;-inkscape-font-specification:'Arial Heavy';letter-spacing:0px;word-spacing:0px;fill:#000000;fill-opacity:1;stroke:none;stroke-width:0.26458335"
       id="text1023">
      <path
         inkscape:connector-curvature="0"
         id="path819"
         style="font-style:normal;font-variant:normal;font-weight:900;font-stretch:normal;font-size:14.11111069px;line-height:1.25;font-family:Arial;-inkscape-font-specification:'Arial Heavy';letter-spacing:0px;word-spacing:0px;fill:#005300;fill-opacity:1;stroke:none;stroke-width:0.07000434"
         d="M 16.894551,264.58604 H 38.052047 V 270.14814 H 30.953454 V 287.11101 H 23.993144 V 270.14814 H 16.894551 Z" />
      <path
         inkscape:connector-curvature="0"
         id="path821"
         style="font-style:normal;font-variant:normal;font-weight:900;font-stretch:normal;font-size:14.11111069px;line-height:1.25;font-family:Arial;-inkscape-font-specification:'Arial Heavy';letter-spacing:0px;word-spacing:0px;fill:#000073;fill-opacity:1;stroke:none;stroke-width:0.07000434"
         d="M 41.201856,264.58604 H 59.854868 V 269.39526 H 48.177529 V 272.9753 H 59.009799 V 277.56942 H 48.177529 V 282.00987 H 60.192896 V 287.11101 H 41.201856 Z" />
      <path
         inkscape:connector-curvature="0"
         id="path823"
         style="font-style:normal;font-variant:normal;font-weight:900;font-stretch:normal;font-size:14.11111069px;line-height:1.25;font-family:Arial;-inkscape-font-specification:'Arial Heavy';letter-spacing:0px;word-spacing:0px;fill:#d58000;fill-opacity:1;stroke:none;stroke-width:0.07000434"
         d="M 62.405446,264.58604 H 70.072541 L 74.067419,271.51563 77.939379,264.58604 H 85.529651 L 78.523248,275.49514 86.190343,287.11101 H 78.369598 L 73.929136,279.87413 69.473308,287.11101 H 61.698659 L 69.473308,275.37223 Z" />
      <path
         inkscape:connector-curvature="0"
         id="path825"
         style="font-style:normal;font-variant:normal;font-weight:900;font-stretch:normal;font-size:14.11111069px;line-height:1.25;font-family:Arial;-inkscape-font-specification:'Arial Heavy';letter-spacing:0px;word-spacing:0px;fill:#ff0000;fill-opacity:1;stroke:none;stroke-width:0.07000434"
         d="M 86.835667,264.58604 H 107.99316 V 270.14814 H 100.89457 V 287.11101 H 93.93426 V 270.14814 H 86.835667 Z" />
      <path
         style="fill:none;stroke:#000000;stroke-width:0.26458332px;stroke-linecap:butt;stroke-linejoin:miter;stroke-opacity:1"
         d="M 14.432554,229.91533 20.847023,223.50086 29.132379,219.22455 43.297662,217.62093 59.333836,218.15547 63.610148,221.89724 71.895503,233.6571 C 71.895503,233.6571 74.568197,237.66614 77.240894,238.20068 79.913587,238.73522 90.06983,237.39887 90.06983,237.39887 90.06983,237.39887 94.88068,236.3298 95.949758,234.72618 97.018839,233.12256 101.56242,228.31171 103.16604,227.77717 104.76965,227.24263 106.90781,224.0354 108.24416,223.76813 109.5805,223.50086 122.67671,219.75908 122.67671,219.75908 L 134.43657,218.42274 C 134.43657,218.42274 142.72193,217.35366 143.791,217.8882 144.86008,218.42274 149.9382,221.89724 151.27455,223.50086 152.6109,225.10447 150.20547,222.16451 154.48178,229.64806 158.7581,237.13161 162.49987,242.20973 162.49987,243.81334 162.49987,245.41696 160.09445,251.02962 158.7581,252.63324 157.42175,254.23685 157.42175,253.96958 155.28359,254.50412 153.14544,255.03866 148.33459,252.63324 148.33459,252.63324 148.33459,252.63324 145.39462,248.89146 145.12735,247.55512 144.86008,246.21877 143.791,245.9515 144.59281,244.08061 145.39462,242.20973 145.39462,237.13161 145.39462,237.13161 L 143.25647,233.92437 C 143.25647,233.92437 140.04923,232.32075 137.91107,232.32075 135.77292,232.32075 130.16026,234.72618 130.16026,234.72618 130.16026,234.72618 129.89299,234.19164 128.82391,237.39887 127.75483,240.60611 126.41849,241.40792 125.61668,244.34788 124.81487,247.28785 121.60763,253.16778 120.80582,254.23685 120.00402,255.30593 115.7277,254.77139 115.7277,254.77139 L 112.2532,253.16778 107.70962,243.54607 C 107.70962,243.54607 110.38231,237.13161 111.98593,236.3298 113.58955,235.52799 117.59859,232.32075 120.00402,231.78621 122.40944,231.25167 129.09118,227.24263 129.09118,227.24263 L 124.5476,223.23359 C 124.5476,223.23359 118.13313,223.76813 115.99497,224.56994 113.85682,225.37175 109.04597,228.57898 109.04597,228.57898 L 106.37327,232.58802 C 106.37327,232.58802 105.03692,233.6571 103.43331,236.86434 101.82969,240.07157 101.82969,241.40792 98.889724,245.68423 95.949758,249.96054 94.613411,252.90051 90.871639,255.03866 87.129865,257.17682 78.577241,255.84047 70.559154,255.03866 62.54107,254.23685 60.135642,251.29689 60.135642,251.29689 60.135642,251.29689 57.19568,247.02058 56.39387,244.88242 55.592061,242.74426 54.255714,240.60611 53.186636,236.86434 52.117558,233.12256 52.919365,226.44082 48.108515,228.84625 43.297662,231.25167 47.306706,231.78621 39.02135,240.33884 30.735995,248.89146 23.252449,255.5732 21.648831,256.90955 20.045214,258.2459 18.708867,258.2459 18.708867,258.2459 18.708867,258.2459 9.3544333,245.68423 9.3544333,244.34788 9.3544333,243.01154 8.5526249,240.33884 8.5526249,240.33884 Z"
         id="path907"
         inkscape:connector-curvature="0" />
      <path
         style="color:#000000;font-style:normal;font-variant:normal;font-weight:normal;font-stretch:normal;font-size:medium;line-height:1.25;font-family:Arial;-inkscape-font-specification:'Arial Heavy';font-variant-ligatures:normal;font-variant-position:normal;font-variant-caps:normal;font-variant-numeric:normal;font-variant-alternates:normal;font-feature-settings:normal;text-indent:0;text-align:start;text-decoration:none;text-decoration-line:none;text-decoration-style:solid;text-decoration-color:#000000;letter-spacing:0px;word-spacing:0px;text-transform:none;writing-mode:lr-tb;direction:ltr;text-orientation:mixed;dominant-baseline:auto;baseline-shift:baseline;text-anchor:start;white-space:normal;shape-padding:0;clip-rule:nonzero;display:inline;overflow:visible;visibility:visible;opacity:1;isolation:auto;mix-blend-mode:normal;color-interpolation:sRGB;color-interpolation-filters:linearRGB;solid-color:#000000;solid-opacity:1;vector-effect:none;fill:#009b00;fill-opacity:1;fill-rule:nonzero;stroke:none;stroke-width:2;stroke-linecap:round;stroke-linejoin:miter;stroke-miterlimit:4;stroke-dasharray:none;stroke-dashoffset:0;stroke-opacity:1;color-rendering:auto;image-rendering:auto;shape-rendering:auto;text-rendering:auto;enable-background:accumulate"
         d="M 89.802734,190.16211 C 87.302237,190.16211 84.915207,190.54354 82.736328,191.23828 80.557449,191.93301 78.585537,192.94066 76.916016,194.19922 75.246494,195.45779 73.878996,196.96754 72.923828,198.66992 71.968659,200.37231 71.429686,202.27037 71.429688,204.25781 71.429689,206.24525 71.968659,208.14136 72.923828,209.84375 73.878997,211.54614 75.246492,213.05785 76.916016,214.31641 78.585541,215.57498 80.557455,216.5826 82.736328,217.27734 84.915205,217.97207 87.302239,218.35352 89.802734,218.35352 92.30323,218.35352 94.690265,217.97207 96.869141,217.27734 99.048015,216.5826 101.01993,215.57498 102.68945,214.31641 104.35898,213.05785 105.72647,211.54614 106.68164,209.84375 107.63681,208.14136 108.17578,206.24525 108.17578,204.25781 108.17578,202.27038 107.63681,200.37231 106.68164,198.66992 105.72648,196.96754 104.35897,195.45778 102.68945,194.19922 101.01993,192.94066 99.048021,191.93301 96.869141,191.23828 94.690261,190.54354 92.303231,190.16211 89.802734,190.16211 Z M 89.802734,192.16211 C 92.099527,192.16211 94.283758,192.5119 96.261719,193.14258 98.239679,193.77325 100.01008,194.68354 101.48438,195.79492 102.95865,196.9063 104.13448,198.21722 104.9375,199.64844 105.74053,201.07966 106.17578,202.62883 106.17578,204.25781 106.17578,205.8868 105.74053,207.43401 104.9375,208.86523 104.13447,210.29646 102.95866,211.60737 101.48438,212.71875 100.0101,213.83014 98.239685,214.74041 96.261719,215.37109 94.283757,216.00176 92.099526,216.35352 89.802734,216.35352 87.505943,216.35352 85.321713,216.00176 83.34375,215.37109 81.365785,214.74041 79.595376,213.83014 78.121094,212.71875 76.64681,211.60737 75.470995,210.29646 74.667969,208.86523 73.864941,207.434 73.429688,205.8868 73.429688,204.25781 73.429687,202.62883 73.864942,201.07967 74.667969,199.64844 75.470995,198.21722 76.646807,196.90631 78.121094,195.79492 79.595379,194.68354 81.36579,193.77325 83.34375,193.14258 85.321709,192.5119 87.505941,192.16211 89.802734,192.16211 Z"
         id="path911"
         inkscape:connector-curvature="0" />
    </g>
  </g>
</svg>
