<?xml version="1.0" encoding="UTF-8" standalone="no"?>
<!-- Created with Inkscape (http://www.inkscape.org/) -->

<svg
   xmlns:dc="http://purl.org/dc/elements/1.1/"
   xmlns:cc="http://creativecommons.org/ns#"
   xmlns:rdf="http://www.w3.org/1999/02/22-rdf-syntax-ns#"
   xmlns:svg="http://www.w3.org/2000/svg"
   xmlns="http://www.w3.org/2000/svg"
   xmlns:sodipodi="http://sodipodi.sourceforge.net/DTD/sodipodi-0.dtd"
   xmlns:inkscape="http://www.inkscape.org/namespaces/inkscape"
   width="800"
   height="480"
   viewBox="0 0 211.66666 127"
   version="1.1"
   id="svg8"
   inkscape:version="0.92.4 (5da689c313, 2019-01-14)"
   sodipodi:docname="Letters4.svg">
  <defs
     id="defs2" />
  <sodipodi:namedview
     id="base"
     pagecolor="#ffffff"
     bordercolor="#666666"
     borderopacity="1.0"
     inkscape:pageopacity="0.0"
     inkscape:pageshadow="2"
     inkscape:zoom="0.34307145"
     inkscape:cx="1533.5103"
     inkscape:cy="266.75857"
     inkscape:document-units="mm"
     inkscape:current-layer="text1023"
     showgrid="false"
     units="px"
     inkscape:window-width="1920"
     inkscape:window-height="1017"
     inkscape:window-x="-8"
     inkscape:window-y="-8"
     inkscape:window-maximized="1"
     showguides="false"
     inkscape:snap-global="false" />
  <metadata
     id="metadata5">
    <rdf:RDF>
      <cc:Work
         rdf:about="">
        <dc:format>image/svg+xml</dc:format>
        <dc:type
           rdf:resource="http://purl.org/dc/dcmitype/StillImage" />
        <dc:title />
      </cc:Work>
    </rdf:RDF>
  </metadata>
  <g
     inkscape:label="Layer 1"
     inkscape:groupmode="layer"
     id="layer1"
     transform="translate(0,-169.99998)">
    <g
       aria-label="8"
       style="font-style:normal;font-variant:normal;font-weight:900;font-stretch:normal;font-size:109.85178375px;line-height:1.25;font-family:Arial;-inkscape-font-specification:'Arial Heavy';letter-spacing:0px;word-spacing:0px;fill:#000000;fill-opacity:1;stroke:none;stroke-width:0.26458335"
       id="text1023">
      <path
         id="path833-4-0-8"
         style="font-style:normal;font-variant:normal;font-weight:900;font-stretch:normal;font-size:14.11111069px;line-height:1.25;font-family:Arial;-inkscape-font-specification:'Arial Heavy';letter-spacing:0px;word-spacing:0px;fill:#803300;fill-opacity:1;stroke:none;stroke-width:0.07000433"
         d="M 841.43359,238.14981 C 841.43359,252.03771 840.11241,262.10259 837.46988,268.34444 834.74963,274.50809 830.59158,279.11148 824.99574,282.15435 819.3999,285.1973 810.6947,286.61008 798.88162,286.71834 H 768.08859 V 253.01175 H 784.19246 C 788.07854,253.01175 790.79878,251.68674 792.35312,249.03396 793.36349,247.3174 793.86864,243.80653 793.86864,238.50088 V 51.425703 C 793.86864,46.120065 793.36349,42.609198 792.35312,40.892621 790.79878,38.239857 788.07854,36.914845 784.19246,36.914845 H 316.93747 C 313.05147,36.914845 310.33125,38.239857 308.77686,40.892621 307.76649,42.609198 307.26132,46.120065 307.26132,51.425703 V 66.442506 H 259.69665 V 51.776787 C 259.69665,37.888773 261.01789,27.823995 263.66037,21.582143 266.38057,15.418505 270.53859,10.81511 276.13444,7.7722504 281.73027,4.7292927 290.43493,3.2082572 302.24837,3.2082572 H 798.88162 C 810.69518,3.2082572 819.3999,4.7292927 824.99574,7.7722504 830.59158,10.81511 834.74963,15.418505 837.46988,21.582143 840.11241,27.823995 841.43359,37.888869 841.43359,51.776787 Z M 592.05624,174.30472 Q 592.05624,145.86567 611.17536,127.49148 630.2945,109.00018 662.82036,109.00018 700.0094,109.00018 719.01195,130.65126 734.28394,148.08925 734.28394,173.60247 734.28394,202.27569 715.28138,220.64997 696.39542,238.90712 662.93693,238.90712 633.09243,238.90712 614.67278,223.69273 592.05624,204.85034 592.05624,174.30472 Z M 639.62091,174.1877 Q 639.62091,190.80641 646.26598,198.76463 653.02763,206.72285 663.17008,206.72285 673.42913,206.72285 679.95762,198.88165 686.6027,191.04045 686.6027,173.71951 686.6027,157.5689 679.95762,149.7277 673.31255,141.76948 663.51983,141.76948 653.1442,141.76948 646.38256,149.84472 639.62091,157.80316 639.62091,174.1877 Z M 438.63685,64.527434 H 486.55125 V 123.98042 Q 493.66265,116.49029 502.6393,112.74519 511.73255,109.00018 522.69109,109.00018 545.30761,109.00018 560.11328,125.38473 574.91896,141.65245 574.91896,172.19817 574.91896,192.56188 568.15731,208.12736 561.39566,223.57571 549.38792,231.29987 537.49674,238.90712 522.92424,238.90712 510.45017,238.90712 500.07454,233.52356 492.26367,229.31035 483.05384,217.72403 V 236.09822 H 438.63685 Z M 486.20151,173.60247 Q 486.20151,189.63615 492.1471,196.89212 498.20927,204.03116 507.41909,204.03116 515.92944,204.03116 521.64186,197.00924 527.47086,189.87019 527.47086,173.13438 527.47086,158.38827 521.75844,151.48318 516.16259,144.57819 508.11856,144.57819 498.44242,144.57819 492.26367,151.83436 486.20151,158.9734 486.20151,173.60247 Z M 360.4116,64.527434 H 407.8597 V 96.945762 H 360.4116 Z M 360.4116,111.80889 H 407.8597 V 236.09822 H 360.4116 Z M 262.48658,82.536162 V 111.81135 H 244.99578 V 146.56899 H 262.48658 V 238.38041 C 262.48658,252.26841 263.80449,262.33507 266.44694,268.57692 269.16714,274.74057 273.32782,279.34445 278.92364,282.3874 284.51949,285.43027 293.22424,286.94845 305.03767,286.94845 H 745.62156 V 253.24452 H 319.72364 C 315.83762,253.24452 313.11804,251.91656 311.56365,249.26378 310.55327,247.5472 310.04669,244.03723 310.04669,238.73169 V 146.56899 H 336.16071 V 111.81135 H 310.04669 V 82.536162 Z M 486.1713,257.79028 C 490.35375,257.79028 493.57544,258.91405 495.83808,261.16532 498.10065,263.40505 499.2334,266.5475 499.2334,270.59276 499.2334,273.52962 498.7361,275.94076 497.74189,277.82637 496.75915,279.70045 495.32985,281.16297 493.45573,282.21434 491.59305,283.25417 489.27012,283.77703 486.48182,283.77703 483.64782,283.77703 481.29929,283.32578 479.43663,282.42297 477.58538,281.52025 476.08064,280.09093 474.92649,278.13686 473.77231,276.1827 473.19572,273.73836 473.19574,270.8015 473.19574,266.699 474.3361,263.50168 476.62161,261.21614 478.90709,258.93069 482.09168,257.79028 486.1713,257.79028 Z M 613.66681,257.79028 C 616.44369,257.79028 618.51603,258.04089 619.88735,258.54367 621.27008,259.04654 622.41554,259.8276 623.3183,260.89038 624.23251,261.94174 624.91777,263.27897 625.37485,264.90165 L 617.88678,266.24045 C 617.57826,265.29203 617.05154,264.56457 616.30875,264.0617 615.57739,263.55892 614.63648,263.30831 613.49372,263.30831 611.79105,263.30831 610.43331,263.90152 609.41627,265.09 608.41066,266.26705 607.90952,268.13995 607.90952,270.69963 607.90952,273.4194 608.41451,275.3576 609.43155,276.52312 610.46002,277.68876 611.8893,278.27428 613.71771,278.27428 614.58618,278.27428 615.41845,278.14898 616.20694,277.8976 616.99543,277.6462 617.89803,277.21534 618.91506,276.60972 V 274.24773 H 613.71771 V 269.0198 H 625.71592 V 279.73011 C 623.419,281.29576 621.38878,282.36584 619.61754,282.93708 617.8577,283.49708 615.76363,283.77703 613.34102,283.77703 610.35846,283.77703 607.92685,283.26697 606.0413,282.24989 604.16722,281.23292 602.70851,279.72044 601.6686,277.70925 600.64015,275.69804 600.1262,273.3866 600.1262,270.7811 600.1262,268.03859 600.69,265.6568 601.82133,263.63407 602.95265,261.60002 604.61206,260.0582 606.79469,259.00694 608.49736,258.19555 610.78709,257.79028 613.66681,257.79028 Z M 538.72514,258.21791 H 551.67016 C 554.06993,258.21791 555.89943,258.42241 557.16784,258.83387 558.43631,259.24522 559.46033,260.01486 560.23741,261.13468 561.01448,262.24316 561.40314,263.59703 561.4031,265.19687 561.4031,266.59104 561.10651,267.79409 560.51229,268.81108 559.91805,269.81673 559.10366,270.6362 558.06379,271.26477 557.40098,271.66471 556.48946,271.9945 555.3353,272.25731 556.26092,272.56593 556.93338,272.87524 557.35621,273.18386 557.64188,273.38945 558.05611,273.82799 558.59318,274.50228 559.14172,275.17645 559.50479,275.69932 559.68762,276.06497 L 563.44439,283.34942 H 554.66845 L 550.51971,275.668 C 549.99407,274.67377 549.52614,274.03073 549.11476,273.73354 548.55481,273.34513 547.91942,273.1482 547.21092,273.1482 H 546.52372 V 283.34942 H 538.72514 Z M 546.52372,263.29305 V 268.39882 H 549.80196 C 550.15621,268.39882 550.84146,268.28623 551.85854,268.0577 552.37276,267.95486 552.78569,267.69154 553.10567,267.26867 553.43706,266.84597 553.60454,266.36142 553.60454,265.81283 553.60454,265.00144 553.35013,264.37888 552.83589,263.94466 552.32163,263.51045 551.35134,263.29305 549.93431,263.29305 Z M 486.15603,263.66973 C 484.59047,263.66973 483.33248,264.22591 482.38401,265.33439 481.43552,266.44278 480.95868,268.27234 480.95868,270.83203 480.95868,273.36896 481.42658,275.19576 482.36364,276.30425 483.31212,277.41274 484.5995,277.96378 486.2222,277.96378 487.8906,277.96378 489.18185,277.42043 490.09603,276.33479 491.01023,275.24925 491.47045,273.30217 491.47045,270.491 491.47045,268.12547 490.98977,266.39953 490.02986,265.31399 489.08138,264.21694 487.79015,263.66973 486.15603,263.66973 Z M 426.82678,276.35518 H 434.28432 V 283.34942 H 426.82678 Z M 174.6995,64.527434 H 222.26419 V 236.09822 H 174.6995 Z M 144.03895,236.09822 H 99.738498 V 215.96856 Q 89.829199,228.37414 79.686744,233.64068 69.660843,238.90712 54.971751,238.90712 35.386296,238.90712 24.194622,227.20379 13.119511,215.38342 13.119511,190.92343 V 111.80889 H 60.800763 V 180.1564 Q 60.800763,191.85973 65.114225,196.7751 69.427689,201.69056 77.238557,201.69056 85.74889,201.69056 91.111572,195.13674 96.590838,188.58283 96.590838,171.61304 V 111.80889 H 144.03895 Z"
         inkscape:connector-curvature="0" />
    </g>
  </g>
</svg>
