<?xml version="1.0" encoding="UTF-8" standalone="no"?>
<svg
   xmlns:dc="http://purl.org/dc/elements/1.1/"
   xmlns:cc="http://creativecommons.org/ns#"
   xmlns:rdf="http://www.w3.org/1999/02/22-rdf-syntax-ns#"
   xmlns:svg="http://www.w3.org/2000/svg"
   xmlns="http://www.w3.org/2000/svg"
   xmlns:sodipodi="http://sodipodi.sourceforge.net/DTD/sodipodi-0.dtd"
   xmlns:inkscape="http://www.inkscape.org/namespaces/inkscape"
   height="480"
   version="1.1"
   id="svg964"
   sodipodi:docname="tessell.svg"
   width="800"
   inkscape:version="0.92.4 (5da689c313, 2019-01-14)">
  <metadata
     id="metadata970">
    <rdf:RDF>
      <cc:Work
         rdf:about="">
        <dc:format>image/svg+xml</dc:format>
        <dc:type
           rdf:resource="http://purl.org/dc/dcmitype/StillImage" />
        <dc:title></dc:title>
      </cc:Work>
    </rdf:RDF>
  </metadata>
  <defs
     id="defs968" />
  <sodipodi:namedview
     pagecolor="#ffffff"
     bordercolor="#666666"
     borderopacity="1"
     objecttolerance="10"
     gridtolerance="10"
     guidetolerance="10"
     inkscape:pageopacity="0"
     inkscape:pageshadow="2"
     inkscape:window-width="1920"
     inkscape:window-height="1017"
     id="namedview966"
     showgrid="false"
     inkscape:zoom="1.3617809"
     inkscape:cx="403.73861"
     inkscape:cy="252.63098"
     inkscape:window-x="-8"
     inkscape:window-y="-8"
     inkscape:window-maximized="1"
     inkscape:current-layer="svg964"
     showguides="false" />
  <g
     id="g1603"
     transform="matrix(2.4942419,0,0,2.4942419,-54.848078,-258.58934)"
     style="stroke-width:0.4009234">
    <path
       inkscape:connector-curvature="0"
       id="path1297"
       style="font-style:normal;font-variant:normal;font-weight:900;font-stretch:normal;font-size:53.33333206px;line-height:1.25;font-family:Arial;-inkscape-font-specification:'Arial Heavy';letter-spacing:0px;word-spacing:0px;fill:#000000;fill-opacity:1;stroke:none;stroke-width:0.4009234"
       d="M 51.237542,173.05722 V 183.57805 H 57.070875 V 191.31242 H 51.237542 V 201.13013 L 51.322178,202.60149 51.576084,203.47388 52.292229,204.13794 53.399,204.3593 54.80525,204.19003 56.68025,203.68222 57.4615,210.99992 53.659417,211.64445 50.11775,211.8593 46.68025,211.60539 45.352125,211.28801 44.284417,210.84367 43.407138,210.27076 42.650303,209.56763 42.013909,208.7343 41.497959,207.77076 41.110589,206.56959 40.833896,205.0494 40.612542,201.05201 V 191.31242 H 36.706292 V 183.57805 H 40.612542 V 178.49992 L 51.237542,173.05722" />
    <path
       inkscape:connector-curvature="0"
       id="path1299"
       style="font-style:normal;font-variant:normal;font-weight:900;font-stretch:normal;font-size:53.33333206px;line-height:1.25;font-family:Arial;-inkscape-font-specification:'Arial Heavy';letter-spacing:0px;word-spacing:0px;fill:#000000;fill-opacity:1;stroke:none;stroke-width:0.4009234"
       d="M 92.80004,200.03638 H 71.550041 L 72.038322,202.26295 72.43383,203.13209 72.930249,203.83847 73.757072,204.6246 74.701082,205.18612 75.76228,205.52304 76.940666,205.63534 78.464103,205.44003 79.909416,204.85409 80.801343,204.1705 81.758374,203.1093 92.201082,204.07284 90.941316,206.00969 89.557853,207.65357 88.050691,209.00448 86.419832,210.06242 84.543205,210.84855 82.298739,211.41008 79.686434,211.74699 76.706291,211.8593 74.105379,211.76327 71.797437,211.47518 69.782463,210.99504 68.060458,210.32284 66.551669,209.42929 65.176343,208.31112 63.934481,206.96835 62.826083,205.40097 61.926018,203.63502 61.283114,201.72258 60.897372,199.66366 60.768791,197.45826 61.02758,194.37069 61.803947,191.59237 62.386223,190.31918 63.097893,189.1233 64.909416,186.96347 66.000318,186.02353 67.18969,185.20891 68.477531,184.51962 69.863843,183.95565 72.931877,183.2037 76.393791,182.95305 79.206291,183.06535 81.706291,183.40227 83.893791,183.96379 85.768791,184.74992 87.385002,185.74927 88.796134,186.95044 90.002189,188.35344 91.003165,189.95826 91.789298,191.79257 92.350821,193.88404 92.687735,196.23268 92.80004,198.83847 V 200.03638 M 82.018791,194.95826 81.797437,193.53085 81.445874,192.32154 80.964103,191.33033 80.352124,190.55722 79.634351,189.97616 78.809155,189.56112 77.876538,189.3121 76.836499,189.22909 75.636955,189.35442 74.564363,189.73039 73.618726,190.35702 72.800041,191.2343 72.012281,192.79029 71.576083,194.95826 H 82.018791" />
    <path
       inkscape:connector-curvature="0"
       id="path1301"
       style="font-style:normal;font-variant:normal;font-weight:900;font-stretch:normal;font-size:53.33333206px;line-height:1.25;font-family:Arial;-inkscape-font-specification:'Arial Heavy';letter-spacing:0px;word-spacing:0px;fill:#000000;fill-opacity:1;stroke:none;stroke-width:0.4009234"
       d="M 95.846916,203.57805 106.36775,202.58847 107.149,204.19654 108.19067,205.27076 109.55786,205.87623 111.31567,206.07805 113.2102,205.85018 113.9768,205.56535 114.62296,205.16659 115.30656,204.40487 115.53442,203.47388 115.45955,202.93352 115.23494,202.45826 114.3365,201.70305 112.76749,201.20826 109.77921,200.6093 105.09822,199.68482 102.09692,198.83847 101.0699,198.35181 100.12426,197.72518 99.260002,196.95858 98.477124,196.05201 97.839103,195.04127 97.383374,193.96216 97.109937,192.8147 97.018791,191.59888 97.118075,190.27889 97.415926,189.05331 97.912346,187.92212 98.607333,186.88534 99.476472,185.95923 100.49535,185.16008 101.66397,184.48788 102.98233,183.94263 104.49438,183.50969 106.24405,183.20044 110.45629,182.95305 114.75317,183.14185 116.41332,183.37786 117.74796,183.70826 119.91593,184.6718 121.68025,186.05201 123.13207,187.9205 124.31046,190.34888 114.25837,191.33847 113.73754,190.18612 112.95629,189.38534 111.57608,188.76034 109.93546,188.55201 108.37947,188.71477 107.30525,189.20305 106.69978,189.89966 106.49796,190.73951 106.75838,191.63143 107.53962,192.27597 109.19327,192.77076 112.07087,193.21347 116.68025,193.92961 118.47712,194.37557 119.93546,194.88013 121.14802,195.47095 122.20759,196.1757 123.11417,196.99439 123.86775,197.92701 124.47159,198.941 124.90291,200.00383 125.1617,201.11548 125.24796,202.27597 125.15681,203.46575 124.88338,204.63925 124.42764,205.79647 123.78962,206.93742 122.96768,208.01327 121.93415,208.97518 120.68904,209.82317 119.23233,210.55722 117.54125,211.13827 115.56696,211.55331 113.30948,211.80233 110.76879,211.88534 107.25154,211.75025 104.27791,211.34497 101.84789,210.66952 99.961499,209.72388 98.503166,208.52922 97.331291,207.10669 96.445874,205.4563 95.846916,203.57805 V 203.57805" />
    <path
       inkscape:connector-curvature="0"
       id="path1303"
       style="font-style:normal;font-variant:normal;font-weight:900;font-stretch:normal;font-size:53.33333206px;line-height:1.25;font-family:Arial;-inkscape-font-specification:'Arial Heavy';letter-spacing:0px;word-spacing:0px;fill:#000000;fill-opacity:1;stroke:none;stroke-width:0.4009234"
       d="M 128.45108,203.57805 138.97192,202.58847 139.75317,204.19654 140.79483,205.27076 142.16202,205.87623 143.91983,206.07805 145.81436,205.85018 146.58097,205.56535 147.22713,205.16659 147.91072,204.40487 148.13858,203.47388 148.06371,202.93352 147.8391,202.45826 146.94067,201.70305 145.37166,201.20826 142.38338,200.6093 137.70238,199.68482 134.70108,198.83847 133.67406,198.35181 132.72843,197.72518 131.86417,196.95858 131.08129,196.05201 130.44327,195.04127 129.98754,193.96216 129.71411,192.8147 129.62296,191.59888 129.72224,190.27889 130.02009,189.05331 130.51651,187.92212 131.2115,186.88534 132.08064,185.95923 133.09952,185.16008 134.26814,184.48788 135.5865,183.94263 137.09854,183.50969 138.84822,183.20044 143.06046,182.95305 147.35734,183.14185 149.01749,183.37786 150.35213,183.70826 152.5201,184.6718 154.28442,186.05201 155.73624,187.9205 156.91463,190.34888 146.86254,191.33847 146.34171,190.18612 145.56046,189.38534 144.18025,188.76034 142.53963,188.55201 140.98364,188.71477 139.90942,189.20305 139.30395,189.89966 139.10213,190.73951 139.36254,191.63143 140.14379,192.27597 141.79744,192.77076 144.67504,193.21347 149.28442,193.92961 151.08129,194.37557 152.53963,194.88013 153.75219,195.47095 154.81176,196.1757 155.71834,196.99439 156.47192,197.92701 157.07576,198.941 157.50708,200.00383 157.76587,201.11548 157.85213,202.27597 157.76098,203.46575 157.48754,204.63925 157.03181,205.79647 156.39379,206.93742 155.57185,208.01327 154.53832,208.97518 153.29321,209.82317 151.8365,210.55722 150.14542,211.13827 148.17113,211.55331 145.91365,211.80233 143.37296,211.88534 139.85571,211.75025 136.88207,211.34497 134.45206,210.66952 132.56567,209.72388 131.10733,208.52922 129.93546,207.10669 129.05004,205.4563 128.45108,203.57805 V 203.57805" />
    <path
       inkscape:connector-curvature="0"
       id="path1305"
       style="font-style:normal;font-variant:normal;font-weight:900;font-stretch:normal;font-size:53.33333206px;line-height:1.25;font-family:Arial;-inkscape-font-specification:'Arial Heavy';letter-spacing:0px;word-spacing:0px;fill:#000000;fill-opacity:1;stroke:none;stroke-width:0.4009234"
       d="M 193.63336,200.03638 H 172.38337 L 172.87164,202.26295 173.26715,203.13209 173.76357,203.83847 174.59039,204.6246 175.5344,205.18612 176.5956,205.52304 177.77399,205.63534 179.29743,205.44003 180.74274,204.85409 181.63467,204.1705 182.5917,203.1093 193.03441,204.07284 191.77464,206.00969 190.39118,207.65357 188.88402,209.00448 187.25316,210.06242 185.37653,210.84855 183.13206,211.41008 180.51976,211.74699 177.53962,211.8593 174.9387,211.76327 172.63076,211.47518 170.61578,210.99504 168.89378,210.32284 167.38499,209.42929 166.00967,208.31112 164.76781,206.96835 163.65941,205.40097 162.75935,203.63502 162.11644,201.72258 161.7307,199.66366 161.60212,197.45826 161.86091,194.37069 162.63727,191.59237 163.21955,190.31918 163.93122,189.1233 165.74274,186.96347 166.83364,186.02353 168.02301,185.20891 169.31086,184.51962 170.69717,183.95565 173.7652,183.2037 177.22712,182.95305 180.03962,183.06535 182.53962,183.40227 184.72711,183.96379 186.60211,184.74992 188.21832,185.74927 189.62945,186.95044 190.83551,188.35344 191.83649,189.95826 192.62262,191.79257 193.18414,193.88404 193.52106,196.23268 193.63336,198.83847 V 200.03638 M 182.85212,194.95826 182.63077,193.53085 182.2792,192.32154 181.79743,191.33033 181.18545,190.55722 180.46767,189.97616 179.64248,189.56112 178.70986,189.3121 177.66982,189.22909 176.47028,189.35442 175.39769,189.73039 174.45205,190.35702 173.63337,191.2343 172.8456,192.79029 172.40941,194.95826 H 182.85212" />
    <path
       inkscape:connector-curvature="0"
       id="path1307"
       style="font-style:normal;font-variant:normal;font-weight:900;font-stretch:normal;font-size:53.33333206px;line-height:1.25;font-family:Arial;-inkscape-font-specification:'Arial Heavy';letter-spacing:0px;word-spacing:0px;fill:#000000;fill-opacity:1;stroke:none;stroke-width:0.4009234"
       d="M 198.91982,173.05722 H 209.54482 V 211.2343 H 198.91982 V 173.05722" />
    <path
       inkscape:connector-curvature="0"
       id="path1309"
       style="font-style:normal;font-variant:normal;font-weight:900;font-stretch:normal;font-size:53.33333206px;line-height:1.25;font-family:Arial;-inkscape-font-specification:'Arial Heavy';letter-spacing:0px;word-spacing:0px;fill:#000000;fill-opacity:1;stroke:none;stroke-width:0.4009234"
       d="M 216.73232,173.05722 H 227.35732 V 211.2343 H 216.73232 V 173.05722" />
    <path
       inkscape:connector-curvature="0"
       id="path1311"
       style="font-style:normal;font-variant:normal;font-weight:900;font-stretch:normal;font-size:53.33333206px;line-height:1.25;font-family:Arial;-inkscape-font-specification:'Arial Heavy';letter-spacing:0px;word-spacing:0px;fill:#000000;fill-opacity:1;stroke:none;stroke-width:0.4009234"
       d="M 243.8417,192.53638 233.71149,191.46867 234.40811,189.09888 235.35212,187.30201 236.68025,185.86972 238.47712,184.64576 240.20889,183.92961 242.48753,183.39576 245.14378,183.06373 248.00837,182.95305 252.30524,183.08977 255.66462,183.49992 257.04971,183.83358 258.31435,184.31373 259.45856,184.94036 260.48232,185.71347 261.69326,187.13274 262.61774,189.0468 263.20368,191.13664 263.39899,193.13534 V 205.34888 L 263.63336,208.4218 264.03701,209.6718 264.72711,211.2343 H 254.7792 L 253.99795,209.61972 253.63337,207.84888 251.55654,209.56763 249.49274,210.71347 248.02952,211.21477 246.45237,211.57284 244.76129,211.78769 242.95628,211.8593 240.63044,211.71607 238.60081,211.28638 236.86742,210.57024 235.43024,209.56763 234.3137,208.35507 233.51618,207.00904 233.03766,205.52955 232.87816,203.91659 232.99372,202.41106 233.3404,201.0455 233.9182,199.81991 234.72712,198.7343 235.84691,197.78378 237.35732,196.96347 239.25836,196.27336 241.55003,195.71347 249.28441,194.0468 253.03441,192.77076 252.83259,191.1106 252.58031,190.50025 252.22712,190.03638 251.74697,189.69458 251.11383,189.45044 249.38857,189.25513 247.10993,189.46347 246.21474,189.72388 245.48232,190.08847 244.56435,191.02597 243.8417,192.53638 V 192.53638 M 253.03441,198.1093 248.47712,199.48951 245.8404,200.34237 244.38857,201.18222 243.72451,202.10018 243.50316,203.13534 243.718,204.27466 244.36253,205.19263 245.44977,205.77857 246.94066,205.97388 248.64639,205.75904 250.22191,205.11451 251.5305,204.16398 252.38337,203.03117 252.87165,201.59888 253.03441,199.80201 V 198.1093" />
    <path
       inkscape:connector-curvature="0"
       id="path1313"
       style="font-style:normal;font-variant:normal;font-weight:900;font-stretch:normal;font-size:53.33333206px;line-height:1.25;font-family:Arial;-inkscape-font-specification:'Arial Heavy';letter-spacing:0px;word-spacing:0px;fill:#000000;fill-opacity:1;stroke:none;stroke-width:0.4009234"
       d="M 281.6542,173.05722 V 183.57805 H 287.48753 V 191.31242 H 281.6542 V 201.13013 L 281.73883,202.60149 281.99274,203.47388 282.70888,204.13794 283.81566,204.3593 285.22191,204.19003 287.09691,203.68222 287.87816,210.99992 284.07608,211.64445 280.53441,211.8593 277.0969,211.60539 275.76878,211.28801 274.70107,210.84367 273.82379,210.27076 273.06696,209.56763 272.43057,208.7343 271.91462,207.77076 271.52725,206.56959 271.25056,205.0494 271.0292,201.05201 V 191.31242 H 267.12295 V 183.57805 H 271.0292 V 178.49992 L 281.6542,173.05722" />
    <path
       inkscape:connector-curvature="0"
       id="path1315"
       style="font-style:normal;font-variant:normal;font-weight:900;font-stretch:normal;font-size:53.33333206px;line-height:1.25;font-family:Arial;-inkscape-font-specification:'Arial Heavy';letter-spacing:0px;word-spacing:0px;fill:#000000;fill-opacity:1;stroke:none;stroke-width:0.4009234"
       d="M 323.21671,200.03638 H 301.96671 L 302.45499,202.26295 302.8505,203.13209 303.34692,203.83847 304.17374,204.6246 305.11775,205.18612 306.17895,205.52304 307.35733,205.63534 308.88077,205.44003 310.32608,204.85409 311.21801,204.1705 312.17504,203.1093 322.61775,204.07284 321.35799,206.00969 319.97452,207.65357 318.46736,209.00448 316.8365,210.06242 314.95987,210.84855 312.7154,211.41008 310.1031,211.74699 307.12296,211.8593 304.52205,211.76327 302.21411,211.47518 300.19913,210.99504 298.47713,210.32284 296.96834,209.42929 295.59301,208.31112 294.35115,206.96835 293.24275,205.40097 292.34269,203.63502 291.69978,201.72258 291.31404,199.66366 291.18546,197.45826 291.44425,194.37069 292.22061,191.59237 292.80289,190.31918 293.51456,189.1233 295.32608,186.96347 296.41698,186.02353 297.60635,185.20891 298.8942,184.51962 300.28051,183.95565 303.34854,183.2037 306.81046,182.95305 309.62296,183.06535 312.12296,183.40227 314.31046,183.96379 316.18546,184.74992 317.80167,185.74927 319.2128,186.95044 320.41886,188.35344 321.41983,189.95826 322.20596,191.79257 322.76749,193.88404 323.1044,196.23268 323.21671,198.83847 V 200.03638 M 312.43546,194.95826 312.21411,193.53085 311.86254,192.32154 311.38077,191.33033 310.76879,190.55722 310.05102,189.97616 309.22582,189.56112 308.29321,189.3121 307.25317,189.22909 306.05363,189.35442 304.98104,189.73039 304.0354,190.35702 303.21671,191.2343 302.42895,192.79029 301.99275,194.95826 H 312.43546" />
  </g>
</svg>
