<?xml version="1.0" encoding="UTF-8" standalone="no"?>
<!-- Created with Inkscape (http://www.inkscape.org/) -->

<svg
   xmlns:dc="http://purl.org/dc/elements/1.1/"
   xmlns:cc="http://creativecommons.org/ns#"
   xmlns:rdf="http://www.w3.org/1999/02/22-rdf-syntax-ns#"
   xmlns:svg="http://www.w3.org/2000/svg"
   xmlns="http://www.w3.org/2000/svg"
   xmlns:sodipodi="http://sodipodi.sourceforge.net/DTD/sodipodi-0.dtd"
   xmlns:inkscape="http://www.inkscape.org/namespaces/inkscape"
   width="800mm"
   height="480mm"
   viewBox="0 0 800 480"
   version="1.1"
   id="svg8"
   inkscape:version="0.92.4 (5da689c313, 2019-01-14)"
   sodipodi:docname="nanocircle.svg">
  <defs
     id="defs2" />
  <sodipodi:namedview
     id="base"
     pagecolor="#ffffff"
     bordercolor="#666666"
     borderopacity="1.0"
     inkscape:pageopacity="0.0"
     inkscape:pageshadow="2"
     inkscape:zoom="0.24748737"
     inkscape:cx="1722.506"
     inkscape:cy="958.18151"
     inkscape:document-units="mm"
     inkscape:current-layer="layer1"
     showgrid="false"
     inkscape:window-width="1920"
     inkscape:window-height="1017"
     inkscape:window-x="-8"
     inkscape:window-y="-8"
     inkscape:window-maximized="1" />
  <metadata
     id="metadata5">
    <rdf:RDF>
      <cc:Work
         rdf:about="">
        <dc:format>image/svg+xml</dc:format>
        <dc:type
           rdf:resource="http://purl.org/dc/dcmitype/StillImage" />
        <dc:title></dc:title>
      </cc:Work>
    </rdf:RDF>
  </metadata>
  <g
     inkscape:label="Layer 1"
     inkscape:groupmode="layer"
     id="layer1"
     transform="translate(0,183)">
    <path
       style="opacity:1;fill:#ffff01;fill-opacity:1;stroke:#ff0000;stroke-width:0.66145831;stroke-linecap:square;stroke-linejoin:miter;stroke-miterlimit:4;stroke-dasharray:none;stroke-opacity:1"
       d="M 609.87212,-128.79402 A 134.30461,134.30461 0 0 0 475.56752,5.5105916 134.30461,134.30461 0 0 0 609.87212,139.8152 134.30461,134.30461 0 0 0 744.17673,5.5105916 134.30461,134.30461 0 0 0 609.87212,-128.79402 Z m 0,13.56613 A 120.73849,120.73849 0 0 1 730.6106,5.5105916 120.73849,120.73849 0 0 1 609.87212,126.24908 120.73849,120.73849 0 0 1 489.13364,5.5105916 120.73849,120.73849 0 0 1 609.87212,-115.22789 Z"
       id="path815"
       inkscape:connector-curvature="0" />
  </g>
</svg>
