<?xml version="1.0" encoding="UTF-8" standalone="no"?>
<!-- Created with Inkscape (http://www.inkscape.org/) -->

<svg
   xmlns:dc="http://purl.org/dc/elements/1.1/"
   xmlns:cc="http://creativecommons.org/ns#"
   xmlns:rdf="http://www.w3.org/1999/02/22-rdf-syntax-ns#"
   xmlns:svg="http://www.w3.org/2000/svg"
   xmlns="http://www.w3.org/2000/svg"
   xmlns:sodipodi="http://sodipodi.sourceforge.net/DTD/sodipodi-0.dtd"
   xmlns:inkscape="http://www.inkscape.org/namespaces/inkscape"
   width="800"
   height="480"
   viewBox="0 0 211.66666 127"
   version="1.1"
   id="svg8"
   inkscape:version="0.92.4 (5da689c313, 2019-01-14)"
   sodipodi:docname="drawingLines.svg">
  <defs
     id="defs2" />
  <sodipodi:namedview
     id="base"
     pagecolor="#ffffff"
     bordercolor="#666666"
     borderopacity="1.0"
     inkscape:pageopacity="0.0"
     inkscape:pageshadow="2"
     inkscape:zoom="0.49497475"
     inkscape:cx="800.10753"
     inkscape:cy="325.53157"
     inkscape:document-units="mm"
     inkscape:current-layer="layer1"
     showgrid="false"
     inkscape:snap-center="true"
     inkscape:snap-global="true"
     inkscape:window-width="1920"
     inkscape:window-height="1017"
     inkscape:window-x="-8"
     inkscape:window-y="-8"
     inkscape:window-maximized="1"
     units="px"
     showguides="true"
     inkscape:guide-bbox="true">
    <sodipodi:guide
       position="27.528761,127"
       orientation="0,1"
       id="guide986"
       inkscape:locked="false"
       inkscape:label=""
       inkscape:color="rgb(0,0,255)" />
    <sodipodi:guide
       position="0,0"
       orientation="1,0"
       id="guide988"
       inkscape:locked="false"
       inkscape:label=""
       inkscape:color="rgb(0,0,255)" />
  </sodipodi:namedview>
  <metadata
     id="metadata5">
    <rdf:RDF>
      <cc:Work
         rdf:about="">
        <dc:format>image/svg+xml</dc:format>
        <dc:type
           rdf:resource="http://purl.org/dc/dcmitype/StillImage" />
        <dc:title></dc:title>
      </cc:Work>
    </rdf:RDF>
  </metadata>
  <g
     inkscape:label="Layer 1"
     inkscape:groupmode="layer"
     id="layer1"
     transform="translate(0,-169.99998)">
    <path
       inkscape:connector-curvature="0"
       id="path817-62"
       d="M 24.85606,196.58476 24.599252,196.59128 24.345758,196.61064 24.095892,196.64252 23.84998,196.68658 23.608334,196.74252 23.371278,196.81004 23.139119,196.8888 22.912179,196.97848 22.690773,197.07876 22.475225,197.18936 22.265849,197.30992 22.062953,197.44016 21.866871,197.57972 21.677905,197.72832 21.496379,197.88562 21.322611,198.05132 21.156917,198.22508 20.999613,198.40662 20.851019,198.59558 20.71145,198.79166 20.581222,198.99456 20.460656,199.20394 20.350066,199.41948 20.24977,199.64088 20.160086,199.86782 20.081332,200.09998 20.013822,200.33704 19.957876,200.57868 19.91381,200.8246 19.881942,201.07446 19.862588,201.32796 19.856066,201.58476 19.862588,201.84158 19.881942,202.09506 19.91381,202.34494 19.957876,202.59084 20.013822,202.8325 20.081332,203.06956 20.160086,203.30172 20.24977,203.52864 20.350066,203.75006 20.460656,203.9656 20.581222,204.17498 20.71145,204.37788 20.851019,204.57396 20.999613,204.76292 21.156917,204.94444 21.322611,205.11822 21.496379,205.28392 21.677905,205.44122 21.866871,205.58982 22.062953,205.72938 22.265849,205.8596 22.475225,205.98018 22.690773,206.09076 22.912179,206.19106 23.139119,206.28074 23.371278,206.3595 23.608334,206.42702 23.84998,206.48296 24.095892,206.52702 24.345758,206.5589 24.599252,206.57824 24.85606,206.58476 25.11287,206.57824 25.366368,206.5589 25.616228,206.52702 25.862147,206.48296 26.103787,206.42702 26.340847,206.3595 26.573007,206.28074 26.799947,206.19106 27.021347,206.09076 27.236907,205.98018 27.446267,205.8596 27.649167,205.72938 27.845247,205.58982 28.034227,205.44122 28.215747,205.28392 28.389506,205.11822 28.555206,204.94444 28.712506,204.76292 28.861106,204.57396 29.000666,204.37788 29.130906,204.17498 29.251466,203.9656 29.362066,203.75006 29.462346,203.52864 29.552046,203.30172 29.630786,203.06956 29.698306,202.8325 29.754246,202.59084 29.798326,202.34494 29.830186,202.09506 29.849546,201.84158 29.856066,201.58476 29.849546,201.32796 29.830186,201.07446 29.798326,200.8246 29.754246,200.57868 29.698306,200.33704 29.630786,200.09998 29.552046,199.86782 29.462346,199.64088 29.362066,199.41948 29.251466,199.20394 29.130906,198.99456 29.000666,198.79166 28.861106,198.59558 28.712506,198.40662 28.555206,198.22508 28.389506,198.05132 28.215747,197.88562 28.034227,197.72832 27.845247,197.57972 27.649167,197.44016 27.446267,197.30992 27.236907,197.18936 27.021347,197.07876 26.799947,196.97848 26.573007,196.8888 26.340847,196.81004 26.103787,196.74252 25.862147,196.68658 25.616228,196.64252 25.366368,196.61064 25.11287,196.59128 24.85606,196.58476 V 196.58476 M 24.85606,197.52226 25.065604,197.52754 25.272348,197.54318 25.476028,197.56894 25.676388,197.60458 25.873187,197.64982 26.066187,197.70444 26.255107,197.76816 26.439707,197.84074 26.619747,197.92192 26.794947,198.01148 26.965087,198.10912 27.129887,198.21462 27.289107,198.32772 27.442487,198.44816 27.589787,198.57568 27.730767,198.71006 27.865147,198.85104 27.992667,198.99834 28.113127,199.15172 28.226207,199.31096 28.331706,199.47574 28.429366,199.64588 28.518906,199.8211 28.600086,200.00112 28.672666,200.18572 28.736386,200.37464 28.791006,200.56764 28.836246,200.76444 28.871886,200.9648 28.897646,201.16848 28.913286,201.37522 28.918566,201.58476 28.913286,201.79432 28.897646,202.00106 28.871886,202.20472 28.836246,202.4051 28.791006,202.6019 28.736386,202.7949 28.672666,202.98382 28.600086,203.16842 28.518906,203.34844 28.429366,203.52366 28.331706,203.69378 28.226207,203.8586 28.113127,204.01782 27.992667,204.1712 27.865147,204.3185 27.730767,204.45948 27.589787,204.59384 27.442487,204.72138 27.289107,204.84182 27.129887,204.95492 26.965087,205.06042 26.794947,205.15806 26.619747,205.2476 26.439707,205.3288 26.255107,205.40138 26.066187,205.4651 25.873187,205.5197 25.676388,205.56496 25.476028,205.60058 25.272348,205.62636 25.065604,205.642 24.85606,205.64726 24.646516,205.642 24.439782,205.62636 24.236102,205.60058 24.035732,205.56496 23.838928,205.5197 23.645934,205.4651 23.457014,205.40138 23.27241,205.3288 23.092379,205.2476 22.917171,205.15806 22.747043,205.06042 22.582239,204.95492 22.423021,204.84182 22.269633,204.72138 22.122323,204.59384 21.981357,204.45948 21.846985,204.3185 21.719447,204.1712 21.599007,204.01782 21.485911,203.8586 21.380413,203.69378 21.282767,203.52366 21.193223,203.34844 21.112035,203.16842 21.039453,202.98382 20.975731,202.7949 20.921119,202.6019 20.875873,202.4051 20.840241,202.20472 20.814477,202.00106 20.798835,201.79432 20.793565,201.58476 20.798835,201.37522 20.814477,201.16848 20.840241,200.9648 20.875873,200.76444 20.921119,200.56764 20.975731,200.37464 21.039453,200.18572 21.112035,200.00112 21.193223,199.8211 21.282767,199.64588 21.380413,199.47574 21.485911,199.31096 21.599007,199.15172 21.719447,198.99834 21.846985,198.85104 21.981357,198.71006 22.122323,198.57568 22.269633,198.44816 22.423021,198.32772 22.582239,198.21462 22.747043,198.10912 22.917171,198.01148 23.092379,197.92192 23.27241,197.84074 23.457014,197.76816 23.645934,197.70444 23.838928,197.64982 24.035732,197.60458 24.236102,197.56894 24.439782,197.54318 24.646516,197.52754 24.85606,197.52226 V 197.52226"
       style="color:#000000;font-style:normal;font-variant:normal;font-weight:normal;font-stretch:normal;font-size:medium;line-height:normal;font-family:sans-serif;font-variant-ligatures:normal;font-variant-position:normal;font-variant-caps:normal;font-variant-numeric:normal;font-variant-alternates:normal;font-feature-settings:normal;text-indent:0;text-align:start;text-decoration:none;text-decoration-line:none;text-decoration-style:solid;text-decoration-color:#000000;letter-spacing:normal;word-spacing:normal;text-transform:none;writing-mode:lr-tb;direction:ltr;text-orientation:mixed;dominant-baseline:auto;baseline-shift:baseline;text-anchor:start;white-space:normal;shape-padding:0;clip-rule:nonzero;display:inline;overflow:visible;visibility:visible;opacity:1;isolation:auto;mix-blend-mode:normal;color-interpolation:sRGB;color-interpolation-filters:linearRGB;solid-color:#000000;solid-opacity:1;vector-effect:none;fill:#ff0000;fill-opacity:1;fill-rule:nonzero;stroke:none;stroke-width:0.74999982;stroke-linecap:round;stroke-linejoin:miter;stroke-miterlimit:4;stroke-dasharray:none;stroke-dashoffset:0;stroke-opacity:1;color-rendering:auto;image-rendering:auto;shape-rendering:auto;text-rendering:auto;enable-background:accumulate" />
    <path
       style="color:#000000;font-style:normal;font-variant:normal;font-weight:normal;font-stretch:normal;font-size:medium;line-height:normal;font-family:sans-serif;font-variant-ligatures:normal;font-variant-position:normal;font-variant-caps:normal;font-variant-numeric:normal;font-variant-alternates:normal;font-feature-settings:normal;text-indent:0;text-align:start;text-decoration:none;text-decoration-line:none;text-decoration-style:solid;text-decoration-color:#000000;letter-spacing:normal;word-spacing:normal;text-transform:none;writing-mode:lr-tb;direction:ltr;text-orientation:mixed;dominant-baseline:auto;baseline-shift:baseline;text-anchor:start;white-space:normal;shape-padding:0;clip-rule:nonzero;display:inline;overflow:visible;visibility:visible;opacity:1;isolation:auto;mix-blend-mode:normal;color-interpolation:sRGB;color-interpolation-filters:linearRGB;solid-color:#000000;solid-opacity:1;vector-effect:none;fill:#000000;fill-opacity:1;fill-rule:nonzero;stroke:none;stroke-width:1;stroke-linecap:butt;stroke-linejoin:miter;stroke-miterlimit:4;stroke-dasharray:none;stroke-dashoffset:0;stroke-opacity:1;color-rendering:auto;image-rendering:auto;shape-rendering:auto;text-rendering:auto;enable-background:accumulate"
       d="M 70.246094,187.44531 24.712891,201.10547 25,202.06445 70.337891,188.46289 138.08008,195.92969 179.75195,208.0625 166.36719,244.27734 117.59375,273.70117 63.738281,242.50781 30.148438,243.32031 10.773438,284.22461 11.677734,284.65234 30.789062,244.30664 63.480469,243.51562 117.60352,274.86328 167.18359,244.95312 181.0625,207.40234 138.27539,194.94531 Z"
       id="path922"
       inkscape:connector-curvature="0" />
    <path
       inkscape:connector-curvature="0"
       id="path817-62-5"
       d="M 70.291879,182.95401 70.035071,182.96053 69.781577,182.97989 69.531711,183.01177 69.285799,183.05583 69.044153,183.11177 68.807097,183.17929 68.574938,183.25805 68.347998,183.34773 68.126592,183.44801 67.911044,183.55861 67.701668,183.67917 67.498772,183.80941 67.30269,183.94897 67.113724,184.09757 66.932198,184.25487 66.75843,184.42057 66.592736,184.59433 66.435432,184.77587 66.286838,184.96483 66.147269,185.16091 66.017041,185.36381 65.896475,185.57319 65.785885,185.78873 65.685589,186.01013 65.595905,186.23707 65.517151,186.46923 65.449641,186.70629 65.393695,186.94793 65.349629,187.19385 65.317761,187.44371 65.298407,187.69721 65.291885,187.95401 65.298407,188.21083 65.317761,188.46431 65.349629,188.71419 65.393695,188.96009 65.449641,189.20175 65.517151,189.43881 65.595905,189.67097 65.685589,189.89789 65.785885,190.11931 65.896475,190.33485 66.017041,190.54423 66.147269,190.74713 66.286838,190.94321 66.435432,191.13217 66.592736,191.31369 66.75843,191.48747 66.932198,191.65317 67.113724,191.81047 67.30269,191.95907 67.498772,192.09863 67.701668,192.22885 67.911044,192.34943 68.126592,192.46001 68.347998,192.56031 68.574938,192.64999 68.807097,192.72875 69.044153,192.79627 69.285799,192.85221 69.531711,192.89627 69.781577,192.92815 70.035071,192.94749 70.291879,192.95401 70.548689,192.94749 70.802187,192.92815 71.052047,192.89627 71.297966,192.85221 71.539606,192.79627 71.776666,192.72875 72.008826,192.64999 72.235766,192.56031 72.457166,192.46001 72.672726,192.34943 72.882086,192.22885 73.084986,192.09863 73.281066,191.95907 73.470046,191.81047 73.651566,191.65317 73.825325,191.48747 73.991025,191.31369 74.148325,191.13217 74.296925,190.94321 74.436485,190.74713 74.566725,190.54423 74.687285,190.33485 74.797885,190.11931 74.898165,189.89789 74.987865,189.67097 75.066605,189.43881 75.134125,189.20175 75.190065,188.96009 75.234145,188.71419 75.266005,188.46431 75.285365,188.21083 75.291885,187.95401 75.285365,187.69721 75.266005,187.44371 75.234145,187.19385 75.190065,186.94793 75.134125,186.70629 75.066605,186.46923 74.987865,186.23707 74.898165,186.01013 74.797885,185.78873 74.687285,185.57319 74.566725,185.36381 74.436485,185.16091 74.296925,184.96483 74.148325,184.77587 73.991025,184.59433 73.825325,184.42057 73.651566,184.25487 73.470046,184.09757 73.281066,183.94897 73.084986,183.80941 72.882086,183.67917 72.672726,183.55861 72.457166,183.44801 72.235766,183.34773 72.008826,183.25805 71.776666,183.17929 71.539606,183.11177 71.297966,183.05583 71.052047,183.01177 70.802187,182.97989 70.548689,182.96053 70.291879,182.95401 V 182.95401 M 70.291879,183.89151 70.501423,183.89679 70.708167,183.91243 70.911847,183.93819 71.112207,183.97383 71.309006,184.01907 71.502006,184.07369 71.690926,184.13741 71.875526,184.20999 72.055566,184.29117 72.230766,184.38073 72.400906,184.47837 72.565706,184.58387 72.724926,184.69697 72.878306,184.81741 73.025606,184.94493 73.166586,185.07931 73.300966,185.22029 73.428486,185.36759 73.548946,185.52097 73.662026,185.68021 73.767525,185.84499 73.865185,186.01513 73.954725,186.19035 74.035905,186.37037 74.108485,186.55497 74.172205,186.74389 74.226825,186.93689 74.272065,187.13369 74.307705,187.33405 74.333465,187.53773 74.349105,187.74447 74.354385,187.95401 74.349105,188.16357 74.333465,188.37031 74.307705,188.57397 74.272065,188.77435 74.226825,188.97115 74.172205,189.16415 74.108485,189.35307 74.035905,189.53767 73.954725,189.71769 73.865185,189.89291 73.767525,190.06303 73.662026,190.22785 73.548946,190.38707 73.428486,190.54045 73.300966,190.68775 73.166586,190.82873 73.025606,190.96309 72.878306,191.09063 72.724926,191.21107 72.565706,191.32417 72.400906,191.42967 72.230766,191.52731 72.055566,191.61685 71.875526,191.69805 71.690926,191.77063 71.502006,191.83435 71.309006,191.88895 71.112207,191.93421 70.911847,191.96983 70.708167,191.99561 70.501423,192.01125 70.291879,192.01651 70.082335,192.01125 69.875601,191.99561 69.671921,191.96983 69.471551,191.93421 69.274747,191.88895 69.081753,191.83435 68.892833,191.77063 68.708229,191.69805 68.528198,191.61685 68.35299,191.52731 68.182862,191.42967 68.018058,191.32417 67.85884,191.21107 67.705452,191.09063 67.558142,190.96309 67.417176,190.82873 67.282804,190.68775 67.155266,190.54045 67.034826,190.38707 66.92173,190.22785 66.816232,190.06303 66.718586,189.89291 66.629042,189.71769 66.547854,189.53767 66.475272,189.35307 66.41155,189.16415 66.356938,188.97115 66.311692,188.77435 66.27606,188.57397 66.250296,188.37031 66.234654,188.16357 66.229384,187.95401 66.234654,187.74447 66.250296,187.53773 66.27606,187.33405 66.311692,187.13369 66.356938,186.93689 66.41155,186.74389 66.475272,186.55497 66.547854,186.37037 66.629042,186.19035 66.718586,186.01513 66.816232,185.84499 66.92173,185.68021 67.034826,185.52097 67.155266,185.36759 67.282804,185.22029 67.417176,185.07931 67.558142,184.94493 67.705452,184.81741 67.85884,184.69697 68.018058,184.58387 68.182862,184.47837 68.35299,184.38073 68.528198,184.29117 68.708229,184.20999 68.892833,184.13741 69.081753,184.07369 69.274747,184.01907 69.471551,183.97383 69.671921,183.93819 69.875601,183.91243 70.082335,183.89679 70.291879,183.89151 V 183.89151"
       style="color:#000000;font-style:normal;font-variant:normal;font-weight:normal;font-stretch:normal;font-size:medium;line-height:normal;font-family:sans-serif;font-variant-ligatures:normal;font-variant-position:normal;font-variant-caps:normal;font-variant-numeric:normal;font-variant-alternates:normal;font-feature-settings:normal;text-indent:0;text-align:start;text-decoration:none;text-decoration-line:none;text-decoration-style:solid;text-decoration-color:#000000;letter-spacing:normal;word-spacing:normal;text-transform:none;writing-mode:lr-tb;direction:ltr;text-orientation:mixed;dominant-baseline:auto;baseline-shift:baseline;text-anchor:start;white-space:normal;shape-padding:0;clip-rule:nonzero;display:inline;overflow:visible;visibility:visible;opacity:1;isolation:auto;mix-blend-mode:normal;color-interpolation:sRGB;color-interpolation-filters:linearRGB;solid-color:#000000;solid-opacity:1;vector-effect:none;fill:#ff0000;fill-opacity:1;fill-rule:nonzero;stroke:none;stroke-width:0.74999982;stroke-linecap:round;stroke-linejoin:miter;stroke-miterlimit:4;stroke-dasharray:none;stroke-dashoffset:0;stroke-opacity:1;color-rendering:auto;image-rendering:auto;shape-rendering:auto;text-rendering:auto;enable-background:accumulate" />
    <path
       inkscape:connector-curvature="0"
       id="path817-62-6"
       d="M 138.17835,190.43756 137.92154,190.44408 137.66804,190.46344 137.41818,190.49532 137.17227,190.53938 136.93062,190.59532 136.69356,190.66284 136.4614,190.7416 136.23446,190.83128 136.01306,190.93156 135.79751,191.04216 135.58813,191.16272 135.38524,191.29296 135.18916,191.43252 135.00019,191.58112 134.81866,191.73842 134.6449,191.90412 134.4792,192.07788 134.3219,192.25942 134.1733,192.44838 134.03374,192.64446 133.90351,192.84736 133.78294,193.05674 133.67235,193.27228 133.57206,193.49368 133.48237,193.72062 133.40362,193.95278 133.33611,194.18984 133.28016,194.43148 133.2361,194.6774 133.20423,194.92726 133.18487,195.18076 133.17835,195.43756 133.18487,195.69438 133.20423,195.94786 133.2361,196.19774 133.28016,196.44364 133.33611,196.6853 133.40362,196.92236 133.48237,197.15452 133.57206,197.38144 133.67235,197.60286 133.78294,197.8184 133.90351,198.02778 134.03374,198.23068 134.1733,198.42676 134.3219,198.61572 134.4792,198.79724 134.6449,198.97102 134.81866,199.13672 135.00019,199.29402 135.18916,199.44262 135.38524,199.58218 135.58813,199.7124 135.79751,199.83298 136.01306,199.94356 136.23446,200.04386 136.4614,200.13354 136.69356,200.2123 136.93062,200.27982 137.17227,200.33576 137.41818,200.37982 137.66804,200.4117 137.92154,200.43104 138.17835,200.43756 138.43516,200.43104 138.68865,200.4117 138.93851,200.37982 139.18443,200.33576 139.42607,200.27982 139.66313,200.2123 139.89529,200.13354 140.12223,200.04386 140.34363,199.94356 140.55919,199.83298 140.76855,199.7124 140.97145,199.58218 141.16753,199.44262 141.35651,199.29402 141.53803,199.13672 141.71179,198.97102 141.87749,198.79724 142.03479,198.61572 142.18339,198.42676 142.32295,198.23068 142.45319,198.02778 142.57375,197.8184 142.68435,197.60286 142.78463,197.38144 142.87433,197.15452 142.95307,196.92236 143.02059,196.6853 143.07653,196.44364 143.12061,196.19774 143.15247,195.94786 143.17183,195.69438 143.17835,195.43756 143.17183,195.18076 143.15247,194.92726 143.12061,194.6774 143.07653,194.43148 143.02059,194.18984 142.95307,193.95278 142.87433,193.72062 142.78463,193.49368 142.68435,193.27228 142.57375,193.05674 142.45319,192.84736 142.32295,192.64446 142.18339,192.44838 142.03479,192.25942 141.87749,192.07788 141.71179,191.90412 141.53803,191.73842 141.35651,191.58112 141.16753,191.43252 140.97145,191.29296 140.76855,191.16272 140.55919,191.04216 140.34363,190.93156 140.12223,190.83128 139.89529,190.7416 139.66313,190.66284 139.42607,190.59532 139.18443,190.53938 138.93851,190.49532 138.68865,190.46344 138.43516,190.44408 138.17835,190.43756 V 190.43756 M 138.17835,191.37506 138.38789,191.38034 138.59463,191.39598 138.79831,191.42174 138.99867,191.45738 139.19547,191.50262 139.38847,191.55724 139.57739,191.62096 139.76199,191.69354 139.94203,191.77472 140.11723,191.86428 140.28737,191.96192 140.45217,192.06742 140.61139,192.18052 140.76477,192.30096 140.91207,192.42848 141.05305,192.56286 141.18743,192.70384 141.31495,192.85114 141.43541,193.00452 141.54849,193.16376 141.65399,193.32854 141.75165,193.49868 141.84119,193.6739 141.92237,193.85392 141.99495,194.03852 142.05867,194.22744 142.11329,194.42044 142.15853,194.61724 142.19417,194.8176 142.21993,195.02128 142.23557,195.22802 142.24085,195.43756 142.23557,195.64712 142.21993,195.85386 142.19417,196.05752 142.15853,196.2579 142.11329,196.4547 142.05867,196.6477 141.99495,196.83662 141.92237,197.02122 141.84119,197.20124 141.75165,197.37646 141.65399,197.54658 141.54849,197.7114 141.43541,197.87062 141.31495,198.024 141.18743,198.1713 141.05305,198.31228 140.91207,198.44664 140.76477,198.57418 140.61139,198.69462 140.45217,198.80772 140.28737,198.91322 140.11723,199.01086 139.94203,199.1004 139.76199,199.1816 139.57739,199.25418 139.38847,199.3179 139.19547,199.3725 138.99867,199.41776 138.79831,199.45338 138.59463,199.47916 138.38789,199.4948 138.17835,199.50006 137.9688,199.4948 137.76207,199.47916 137.55839,199.45338 137.35802,199.41776 137.16121,199.3725 136.96822,199.3179 136.7793,199.25418 136.5947,199.1816 136.41466,199.1004 136.23946,199.01086 136.06933,198.91322 135.90452,198.80772 135.74531,198.69462 135.59192,198.57418 135.44461,198.44664 135.30364,198.31228 135.16927,198.1713 135.04173,198.024 134.92129,197.87062 134.8082,197.7114 134.7027,197.54658 134.60505,197.37646 134.51551,197.20124 134.43432,197.02122 134.36174,196.83662 134.29802,196.6477 134.2434,196.4547 134.19816,196.2579 134.16253,196.05752 134.13676,195.85386 134.12112,195.64712 134.11585,195.43756 134.12112,195.22802 134.13676,195.02128 134.16253,194.8176 134.19816,194.61724 134.2434,194.42044 134.29802,194.22744 134.36174,194.03852 134.43432,193.85392 134.51551,193.6739 134.60505,193.49868 134.7027,193.32854 134.8082,193.16376 134.92129,193.00452 135.04173,192.85114 135.16927,192.70384 135.30364,192.56286 135.44461,192.42848 135.59192,192.30096 135.74531,192.18052 135.90452,192.06742 136.06933,191.96192 136.23946,191.86428 136.41466,191.77472 136.5947,191.69354 136.7793,191.62096 136.96822,191.55724 137.16121,191.50262 137.35802,191.45738 137.55839,191.42174 137.76207,191.39598 137.9688,191.38034 138.17835,191.37506 V 191.37506"
       style="color:#000000;font-style:normal;font-variant:normal;font-weight:normal;font-stretch:normal;font-size:medium;line-height:normal;font-family:sans-serif;font-variant-ligatures:normal;font-variant-position:normal;font-variant-caps:normal;font-variant-numeric:normal;font-variant-alternates:normal;font-feature-settings:normal;text-indent:0;text-align:start;text-decoration:none;text-decoration-line:none;text-decoration-style:solid;text-decoration-color:#000000;letter-spacing:normal;word-spacing:normal;text-transform:none;writing-mode:lr-tb;direction:ltr;text-orientation:mixed;dominant-baseline:auto;baseline-shift:baseline;text-anchor:start;white-space:normal;shape-padding:0;clip-rule:nonzero;display:inline;overflow:visible;visibility:visible;opacity:1;isolation:auto;mix-blend-mode:normal;color-interpolation:sRGB;color-interpolation-filters:linearRGB;solid-color:#000000;solid-opacity:1;vector-effect:none;fill:#ff0000;fill-opacity:1;fill-rule:nonzero;stroke:none;stroke-width:0.74999982;stroke-linecap:round;stroke-linejoin:miter;stroke-miterlimit:4;stroke-dasharray:none;stroke-dashoffset:0;stroke-opacity:1;color-rendering:auto;image-rendering:auto;shape-rendering:auto;text-rendering:auto;enable-background:accumulate" />
    <path
       inkscape:connector-curvature="0"
       id="path817-62-4"
       d="M 180.40692,202.73196 180.15011,202.73848 179.89662,202.75784 179.64675,202.78972 179.40084,202.83378 179.15919,202.88972 178.92214,202.95724 178.68998,203.036 178.46304,203.12568 178.24163,203.22596 178.02608,203.33656 177.81671,203.45712 177.61381,203.58736 177.41773,203.72692 177.22876,203.87552 177.04724,204.03282 176.87347,204.19852 176.70778,204.37228 176.55047,204.55382 176.40188,204.74278 176.26231,204.93886 176.13208,205.14176 176.01152,205.35114 175.90093,205.56668 175.80063,205.78808 175.71095,206.01502 175.63219,206.24718 175.56468,206.48424 175.50874,206.72588 175.46467,206.9718 175.4328,207.22166 175.41345,207.47516 175.40693,207.73196 175.41345,207.98878 175.4328,208.24226 175.46467,208.49214 175.50874,208.73804 175.56468,208.9797 175.63219,209.21676 175.71095,209.44892 175.80063,209.67584 175.90093,209.89726 176.01152,210.1128 176.13208,210.32218 176.26231,210.52508 176.40188,210.72116 176.55047,210.91012 176.70778,211.09164 176.87347,211.26542 177.04724,211.43112 177.22876,211.58842 177.41773,211.73702 177.61381,211.87658 177.81671,212.0068 178.02608,212.12738 178.24163,212.23796 178.46304,212.33826 178.68998,212.42794 178.92214,212.5067 179.15919,212.57422 179.40084,212.63016 179.64675,212.67422 179.89662,212.7061 180.15011,212.72544 180.40692,212.73196 180.66373,212.72544 180.91723,212.7061 181.16709,212.67422 181.41301,212.63016 181.65465,212.57422 181.89171,212.5067 182.12387,212.42794 182.35081,212.33826 182.57221,212.23796 182.78777,212.12738 182.99713,212.0068 183.20003,211.87658 183.39611,211.73702 183.58509,211.58842 183.76661,211.43112 183.94037,211.26542 184.10607,211.09164 184.26337,210.91012 184.41197,210.72116 184.55153,210.52508 184.68177,210.32218 184.80233,210.1128 184.91293,209.89726 185.01321,209.67584 185.10291,209.44892 185.18165,209.21676 185.24917,208.9797 185.30511,208.73804 185.34919,208.49214 185.38105,208.24226 185.40041,207.98878 185.40693,207.73196 185.40041,207.47516 185.38105,207.22166 185.34919,206.9718 185.30511,206.72588 185.24917,206.48424 185.18165,206.24718 185.10291,206.01502 185.01321,205.78808 184.91293,205.56668 184.80233,205.35114 184.68177,205.14176 184.55153,204.93886 184.41197,204.74278 184.26337,204.55382 184.10607,204.37228 183.94037,204.19852 183.76661,204.03282 183.58509,203.87552 183.39611,203.72692 183.20003,203.58736 182.99713,203.45712 182.78777,203.33656 182.57221,203.22596 182.35081,203.12568 182.12387,203.036 181.89171,202.95724 181.65465,202.88972 181.41301,202.83378 181.16709,202.78972 180.91723,202.75784 180.66373,202.73848 180.40692,202.73196 V 202.73196 M 180.40692,203.66946 180.61646,203.67474 180.82321,203.69038 181.02689,203.71614 181.22725,203.75178 181.42405,203.79702 181.61705,203.85164 181.80597,203.91536 181.99057,203.98794 182.17061,204.06912 182.34581,204.15868 182.51595,204.25632 182.68075,204.36182 182.83997,204.47492 182.99335,204.59536 183.14065,204.72288 183.28163,204.85726 183.41601,204.99824 183.54353,205.14554 183.66399,205.29892 183.77707,205.45816 183.88257,205.62294 183.98023,205.79308 184.06977,205.9683 184.15095,206.14832 184.22353,206.33292 184.28725,206.52184 184.34187,206.71484 184.38711,206.91164 184.42275,207.112 184.44851,207.31568 184.46415,207.52242 184.46943,207.73196 184.46415,207.94152 184.44851,208.14826 184.42275,208.35192 184.38711,208.5523 184.34187,208.7491 184.28725,208.9421 184.22353,209.13102 184.15095,209.31562 184.06977,209.49564 183.98023,209.67086 183.88257,209.84098 183.77707,210.0058 183.66399,210.16502 183.54353,210.3184 183.41601,210.4657 183.28163,210.60668 183.14065,210.74104 182.99335,210.86858 182.83997,210.98902 182.68075,211.10212 182.51595,211.20762 182.34581,211.30526 182.17061,211.3948 181.99057,211.476 181.80597,211.54858 181.61705,211.6123 181.42405,211.6669 181.22725,211.71216 181.02689,211.74778 180.82321,211.77356 180.61646,211.7892 180.40692,211.79446 180.19738,211.7892 179.99064,211.77356 179.78696,211.74778 179.58659,211.71216 179.38979,211.6669 179.19679,211.6123 179.00787,211.54858 178.82327,211.476 178.64324,211.3948 178.46803,211.30526 178.2979,211.20762 178.1331,211.10212 177.97388,210.98902 177.82049,210.86858 177.67318,210.74104 177.53222,210.60668 177.39784,210.4657 177.27031,210.3184 177.14987,210.16502 177.03677,210.0058 176.93127,209.84098 176.83363,209.67086 176.74408,209.49564 176.66289,209.31562 176.59031,209.13102 176.52659,208.9421 176.47198,208.7491 176.42673,208.5523 176.3911,208.35192 176.36534,208.14826 176.34969,207.94152 176.34442,207.73196 176.34969,207.52242 176.36534,207.31568 176.3911,207.112 176.42673,206.91164 176.47198,206.71484 176.52659,206.52184 176.59031,206.33292 176.66289,206.14832 176.74408,205.9683 176.83363,205.79308 176.93127,205.62294 177.03677,205.45816 177.14987,205.29892 177.27031,205.14554 177.39784,204.99824 177.53222,204.85726 177.67318,204.72288 177.82049,204.59536 177.97388,204.47492 178.1331,204.36182 178.2979,204.25632 178.46803,204.15868 178.64324,204.06912 178.82327,203.98794 179.00787,203.91536 179.19679,203.85164 179.38979,203.79702 179.58659,203.75178 179.78696,203.71614 179.99064,203.69038 180.19738,203.67474 180.40692,203.66946 V 203.66946"
       style="color:#000000;font-style:normal;font-variant:normal;font-weight:normal;font-stretch:normal;font-size:medium;line-height:normal;font-family:sans-serif;font-variant-ligatures:normal;font-variant-position:normal;font-variant-caps:normal;font-variant-numeric:normal;font-variant-alternates:normal;font-feature-settings:normal;text-indent:0;text-align:start;text-decoration:none;text-decoration-line:none;text-decoration-style:solid;text-decoration-color:#000000;letter-spacing:normal;word-spacing:normal;text-transform:none;writing-mode:lr-tb;direction:ltr;text-orientation:mixed;dominant-baseline:auto;baseline-shift:baseline;text-anchor:start;white-space:normal;shape-padding:0;clip-rule:nonzero;display:inline;overflow:visible;visibility:visible;opacity:1;isolation:auto;mix-blend-mode:normal;color-interpolation:sRGB;color-interpolation-filters:linearRGB;solid-color:#000000;solid-opacity:1;vector-effect:none;fill:#ff0000;fill-opacity:1;fill-rule:nonzero;stroke:none;stroke-width:0.74999982;stroke-linecap:round;stroke-linejoin:miter;stroke-miterlimit:4;stroke-dasharray:none;stroke-dashoffset:0;stroke-opacity:1;color-rendering:auto;image-rendering:auto;shape-rendering:auto;text-rendering:auto;enable-background:accumulate" />
    <path
       inkscape:connector-curvature="0"
       id="path817-62-9"
       d="M 166.77617,239.61515 166.51936,239.62167 166.26587,239.64103 166.016,239.67291 165.77009,239.71697 165.52845,239.77291 165.29139,239.84043 165.05923,239.91919 164.83229,240.00887 164.61089,240.10915 164.39534,240.21975 164.18596,240.34031 163.98307,240.47055 163.78698,240.61011 163.59802,240.75871 163.41649,240.91601 163.24272,241.08171 163.07703,241.25547 162.91973,241.43701 162.77113,241.62597 162.63156,241.82205 162.50133,242.02495 162.38077,242.23433 162.27018,242.44987 162.16988,242.67127 162.0802,242.89821 162.00144,243.13037 161.93393,243.36743 161.87799,243.60907 161.83392,243.85499 161.80205,244.10485 161.7827,244.35835 161.77618,244.61515 161.7827,244.87197 161.80205,245.12545 161.83392,245.37533 161.87799,245.62123 161.93393,245.86289 162.00144,246.09995 162.0802,246.33211 162.16988,246.55903 162.27018,246.78045 162.38077,246.99599 162.50133,247.20537 162.63156,247.40827 162.77113,247.60435 162.91973,247.79331 163.07703,247.97483 163.24272,248.14861 163.41649,248.31431 163.59802,248.47161 163.78698,248.62021 163.98307,248.75977 164.18596,248.88999 164.39534,249.01057 164.61089,249.12115 164.83229,249.22145 165.05923,249.31113 165.29139,249.38989 165.52845,249.45741 165.77009,249.51335 166.016,249.55741 166.26587,249.58929 166.51936,249.60863 166.77617,249.61515 167.03298,249.60863 167.28648,249.58929 167.53634,249.55741 167.78226,249.51335 168.0239,249.45741 168.26096,249.38989 168.49312,249.31113 168.72006,249.22145 168.94146,249.12115 169.15702,249.01057 169.36638,248.88999 169.56928,248.75977 169.76536,248.62021 169.95434,248.47161 170.13586,248.31431 170.30962,248.14861 170.47532,247.97483 170.63262,247.79331 170.78122,247.60435 170.92078,247.40827 171.05102,247.20537 171.17158,246.99599 171.28218,246.78045 171.38246,246.55903 171.47216,246.33211 171.5509,246.09995 171.61842,245.86289 171.67436,245.62123 171.71844,245.37533 171.7503,245.12545 171.76966,244.87197 171.77618,244.61515 171.76966,244.35835 171.7503,244.10485 171.71844,243.85499 171.67436,243.60907 171.61842,243.36743 171.5509,243.13037 171.47216,242.89821 171.38246,242.67127 171.28218,242.44987 171.17158,242.23433 171.05102,242.02495 170.92078,241.82205 170.78122,241.62597 170.63262,241.43701 170.47532,241.25547 170.30962,241.08171 170.13586,240.91601 169.95434,240.75871 169.76536,240.61011 169.56928,240.47055 169.36638,240.34031 169.15702,240.21975 168.94146,240.10915 168.72006,240.00887 168.49312,239.91919 168.26096,239.84043 168.0239,239.77291 167.78226,239.71697 167.53634,239.67291 167.28648,239.64103 167.03298,239.62167 166.77617,239.61515 V 239.61515 M 166.77617,240.55265 166.98572,240.55793 167.19246,240.57357 167.39614,240.59933 167.5965,240.63497 167.7933,240.68021 167.9863,240.73483 168.17522,240.79855 168.35982,240.87113 168.53986,240.95231 168.71506,241.04187 168.8852,241.13951 169.05,241.24501 169.20922,241.35811 169.3626,241.47855 169.5099,241.60607 169.65088,241.74045 169.78526,241.88143 169.91278,242.02873 170.03324,242.18211 170.14632,242.34135 170.25182,242.50613 170.34948,242.67627 170.43902,242.85149 170.5202,243.03151 170.59278,243.21611 170.6565,243.40503 170.71112,243.59803 170.75636,243.79483 170.792,243.99519 170.81776,244.19887 170.8334,244.40561 170.83868,244.61515 170.8334,244.82471 170.81776,245.03145 170.792,245.23511 170.75636,245.43549 170.71112,245.63229 170.6565,245.82529 170.59278,246.01421 170.5202,246.19881 170.43902,246.37883 170.34948,246.55405 170.25182,246.72417 170.14632,246.88899 170.03324,247.04821 169.91278,247.20159 169.78526,247.34889 169.65088,247.48987 169.5099,247.62423 169.3626,247.75177 169.20922,247.87221 169.05,247.98531 168.8852,248.09081 168.71506,248.18845 168.53986,248.27799 168.35982,248.35919 168.17522,248.43177 167.9863,248.49549 167.7933,248.55009 167.5965,248.59535 167.39614,248.63097 167.19246,248.65675 166.98572,248.67239 166.77617,248.67765 166.56663,248.67239 166.35989,248.65675 166.15621,248.63097 165.95584,248.59535 165.75904,248.55009 165.56605,248.49549 165.37713,248.43177 165.19252,248.35919 165.01249,248.27799 164.83728,248.18845 164.66716,248.09081 164.50235,247.98531 164.34313,247.87221 164.18975,247.75177 164.04244,247.62423 163.90147,247.48987 163.7671,247.34889 163.63956,247.20159 163.51912,247.04821 163.40602,246.88899 163.30053,246.72417 163.20288,246.55405 163.11334,246.37883 163.03215,246.19881 162.95957,246.01421 162.89584,245.82529 162.84123,245.63229 162.79599,245.43549 162.76035,245.23511 162.73459,245.03145 162.71895,244.82471 162.71368,244.61515 162.71895,244.40561 162.73459,244.19887 162.76035,243.99519 162.79599,243.79483 162.84123,243.59803 162.89584,243.40503 162.95957,243.21611 163.03215,243.03151 163.11334,242.85149 163.20288,242.67627 163.30053,242.50613 163.40602,242.34135 163.51912,242.18211 163.63956,242.02873 163.7671,241.88143 163.90147,241.74045 164.04244,241.60607 164.18975,241.47855 164.34313,241.35811 164.50235,241.24501 164.66716,241.13951 164.83728,241.04187 165.01249,240.95231 165.19252,240.87113 165.37713,240.79855 165.56605,240.73483 165.75904,240.68021 165.95584,240.63497 166.15621,240.59933 166.35989,240.57357 166.56663,240.55793 166.77617,240.55265 V 240.55265"
       style="color:#000000;font-style:normal;font-variant:normal;font-weight:normal;font-stretch:normal;font-size:medium;line-height:normal;font-family:sans-serif;font-variant-ligatures:normal;font-variant-position:normal;font-variant-caps:normal;font-variant-numeric:normal;font-variant-alternates:normal;font-feature-settings:normal;text-indent:0;text-align:start;text-decoration:none;text-decoration-line:none;text-decoration-style:solid;text-decoration-color:#000000;letter-spacing:normal;word-spacing:normal;text-transform:none;writing-mode:lr-tb;direction:ltr;text-orientation:mixed;dominant-baseline:auto;baseline-shift:baseline;text-anchor:start;white-space:normal;shape-padding:0;clip-rule:nonzero;display:inline;overflow:visible;visibility:visible;opacity:1;isolation:auto;mix-blend-mode:normal;color-interpolation:sRGB;color-interpolation-filters:linearRGB;solid-color:#000000;solid-opacity:1;vector-effect:none;fill:#ff0000;fill-opacity:1;fill-rule:nonzero;stroke:none;stroke-width:0.74999982;stroke-linecap:round;stroke-linejoin:miter;stroke-miterlimit:4;stroke-dasharray:none;stroke-dashoffset:0;stroke-opacity:1;color-rendering:auto;image-rendering:auto;shape-rendering:auto;text-rendering:auto;enable-background:accumulate" />
    <path
       inkscape:connector-curvature="0"
       id="path817-62-1"
       d="M 117.59858,269.28207 117.34177,269.28859 117.08828,269.30795 116.83841,269.33983 116.5925,269.38389 116.35085,269.43983 116.1138,269.50735 115.88164,269.58611 115.6547,269.67579 115.43329,269.77607 115.21774,269.88667 115.00837,270.00723 114.80547,270.13747 114.60939,270.27703 114.42042,270.42563 114.2389,270.58293 114.06513,270.74863 113.89944,270.92239 113.74213,271.10393 113.59354,271.29289 113.45397,271.48897 113.32374,271.69187 113.20318,271.90125 113.09259,272.11679 112.99229,272.33819 112.90261,272.56513 112.82385,272.79729 112.75634,273.03435 112.7004,273.27599 112.65633,273.52191 112.62446,273.77177 112.60511,274.02527 112.59859,274.28207 112.60511,274.53889 112.62446,274.79237 112.65633,275.04225 112.7004,275.28815 112.75634,275.52981 112.82385,275.76687 112.90261,275.99903 112.99229,276.22595 113.09259,276.44737 113.20318,276.66291 113.32374,276.87229 113.45397,277.07519 113.59354,277.27127 113.74213,277.46023 113.89944,277.64175 114.06513,277.81553 114.2389,277.98123 114.42042,278.13853 114.60939,278.28713 114.80547,278.42669 115.00837,278.55691 115.21774,278.67749 115.43329,278.78807 115.6547,278.88837 115.88164,278.97805 116.1138,279.05681 116.35085,279.12433 116.5925,279.18027 116.83841,279.22433 117.08828,279.25621 117.34177,279.27555 117.59858,279.28207 117.85539,279.27555 118.10889,279.25621 118.35875,279.22433 118.60467,279.18027 118.84631,279.12433 119.08337,279.05681 119.31553,278.97805 119.54247,278.88837 119.76387,278.78807 119.97943,278.67749 120.18879,278.55691 120.39169,278.42669 120.58777,278.28713 120.77675,278.13853 120.95827,277.98123 121.13203,277.81553 121.29773,277.64175 121.45503,277.46023 121.60363,277.27127 121.74319,277.07519 121.87343,276.87229 121.99399,276.66291 122.10459,276.44737 122.20487,276.22595 122.29457,275.99903 122.37331,275.76687 122.44083,275.52981 122.49677,275.28815 122.54085,275.04225 122.57271,274.79237 122.59207,274.53889 122.59859,274.28207 122.59207,274.02527 122.57271,273.77177 122.54085,273.52191 122.49677,273.27599 122.44083,273.03435 122.37331,272.79729 122.29457,272.56513 122.20487,272.33819 122.10459,272.11679 121.99399,271.90125 121.87343,271.69187 121.74319,271.48897 121.60363,271.29289 121.45503,271.10393 121.29773,270.92239 121.13203,270.74863 120.95827,270.58293 120.77675,270.42563 120.58777,270.27703 120.39169,270.13747 120.18879,270.00723 119.97943,269.88667 119.76387,269.77607 119.54247,269.67579 119.31553,269.58611 119.08337,269.50735 118.84631,269.43983 118.60467,269.38389 118.35875,269.33983 118.10889,269.30795 117.85539,269.28859 117.59858,269.28207 V 269.28207 M 117.59858,270.21957 117.80812,270.22485 118.01487,270.24049 118.21855,270.26625 118.41891,270.30189 118.61571,270.34713 118.80871,270.40175 118.99763,270.46547 119.18223,270.53805 119.36227,270.61923 119.53747,270.70879 119.70761,270.80643 119.87241,270.91193 120.03163,271.02503 120.18501,271.14547 120.33231,271.27299 120.47329,271.40737 120.60767,271.54835 120.73519,271.69565 120.85565,271.84903 120.96873,272.00827 121.07423,272.17305 121.17189,272.34319 121.26143,272.51841 121.34261,272.69843 121.41519,272.88303 121.47891,273.07195 121.53353,273.26495 121.57877,273.46175 121.61441,273.66211 121.64017,273.86579 121.65581,274.07253 121.66109,274.28207 121.65581,274.49163 121.64017,274.69837 121.61441,274.90203 121.57877,275.10241 121.53353,275.29921 121.47891,275.49221 121.41519,275.68113 121.34261,275.86573 121.26143,276.04575 121.17189,276.22097 121.07423,276.39109 120.96873,276.55591 120.85565,276.71513 120.73519,276.86851 120.60767,277.01581 120.47329,277.15679 120.33231,277.29115 120.18501,277.41869 120.03163,277.53913 119.87241,277.65223 119.70761,277.75773 119.53747,277.85537 119.36227,277.94491 119.18223,278.02611 118.99763,278.09869 118.80871,278.16241 118.61571,278.21701 118.41891,278.26227 118.21855,278.29789 118.01487,278.32367 117.80812,278.33931 117.59858,278.34457 117.38904,278.33931 117.1823,278.32367 116.97862,278.29789 116.77825,278.26227 116.58145,278.21701 116.38845,278.16241 116.19953,278.09869 116.01493,278.02611 115.8349,277.94491 115.65969,277.85537 115.48956,277.75773 115.32476,277.65223 115.16554,277.53913 115.01215,277.41869 114.86484,277.29115 114.72388,277.15679 114.5895,277.01581 114.46197,276.86851 114.34153,276.71513 114.22843,276.55591 114.12293,276.39109 114.02529,276.22097 113.93574,276.04575 113.85455,275.86573 113.78197,275.68113 113.71825,275.49221 113.66364,275.29921 113.61839,275.10241 113.58276,274.90203 113.557,274.69837 113.54135,274.49163 113.53608,274.28207 113.54135,274.07253 113.557,273.86579 113.58276,273.66211 113.61839,273.46175 113.66364,273.26495 113.71825,273.07195 113.78197,272.88303 113.85455,272.69843 113.93574,272.51841 114.02529,272.34319 114.12293,272.17305 114.22843,272.00827 114.34153,271.84903 114.46197,271.69565 114.5895,271.54835 114.72388,271.40737 114.86484,271.27299 115.01215,271.14547 115.16554,271.02503 115.32476,270.91193 115.48956,270.80643 115.65969,270.70879 115.8349,270.61923 116.01493,270.53805 116.19953,270.46547 116.38845,270.40175 116.58145,270.34713 116.77825,270.30189 116.97862,270.26625 117.1823,270.24049 117.38904,270.22485 117.59858,270.21957 V 270.21957"
       style="color:#000000;font-style:normal;font-variant:normal;font-weight:normal;font-stretch:normal;font-size:medium;line-height:normal;font-family:sans-serif;font-variant-ligatures:normal;font-variant-position:normal;font-variant-caps:normal;font-variant-numeric:normal;font-variant-alternates:normal;font-feature-settings:normal;text-indent:0;text-align:start;text-decoration:none;text-decoration-line:none;text-decoration-style:solid;text-decoration-color:#000000;letter-spacing:normal;word-spacing:normal;text-transform:none;writing-mode:lr-tb;direction:ltr;text-orientation:mixed;dominant-baseline:auto;baseline-shift:baseline;text-anchor:start;white-space:normal;shape-padding:0;clip-rule:nonzero;display:inline;overflow:visible;visibility:visible;opacity:1;isolation:auto;mix-blend-mode:normal;color-interpolation:sRGB;color-interpolation-filters:linearRGB;solid-color:#000000;solid-opacity:1;vector-effect:none;fill:#ff0000;fill-opacity:1;fill-rule:nonzero;stroke:none;stroke-width:0.74999982;stroke-linecap:round;stroke-linejoin:miter;stroke-miterlimit:4;stroke-dasharray:none;stroke-dashoffset:0;stroke-opacity:1;color-rendering:auto;image-rendering:auto;shape-rendering:auto;text-rendering:auto;enable-background:accumulate" />
    <path
       inkscape:connector-curvature="0"
       id="path817-62-47"
       d="M 63.610142,238.01154 63.353334,238.01806 63.09984,238.03742 62.849974,238.0693 62.604062,238.11336 62.362416,238.1693 62.12536,238.23682 61.893201,238.31558 61.666261,238.40526 61.444855,238.50554 61.229307,238.61614 61.019931,238.7367 60.817035,238.86694 60.620953,239.0065 60.431987,239.1551 60.250461,239.3124 60.076693,239.4781 59.910999,239.65186 59.753695,239.8334 59.605101,240.02236 59.465532,240.21844 59.335304,240.42134 59.214738,240.63072 59.104148,240.84626 59.003852,241.06766 58.914168,241.2946 58.835414,241.52676 58.767904,241.76382 58.711958,242.00546 58.667892,242.25138 58.636024,242.50124 58.61667,242.75474 58.610148,243.01154 58.61667,243.26836 58.636024,243.52184 58.667892,243.77172 58.711958,244.01762 58.767904,244.25928 58.835414,244.49634 58.914168,244.7285 59.003852,244.95542 59.104148,245.17684 59.214738,245.39238 59.335304,245.60176 59.465532,245.80466 59.605101,246.00074 59.753695,246.1897 59.910999,246.37122 60.076693,246.545 60.250461,246.7107 60.431987,246.868 60.620953,247.0166 60.817035,247.15616 61.019931,247.28638 61.229307,247.40696 61.444855,247.51754 61.666261,247.61784 61.893201,247.70752 62.12536,247.78628 62.362416,247.8538 62.604062,247.90974 62.849974,247.9538 63.09984,247.98568 63.353334,248.00502 63.610142,248.01154 63.866952,248.00502 64.12045,247.98568 64.37031,247.9538 64.616229,247.90974 64.857869,247.8538 65.094929,247.78628 65.327089,247.70752 65.554029,247.61784 65.775429,247.51754 65.990989,247.40696 66.200349,247.28638 66.403249,247.15616 66.599329,247.0166 66.788309,246.868 66.969829,246.7107 67.143588,246.545 67.309288,246.37122 67.466588,246.1897 67.615188,246.00074 67.754748,245.80466 67.884988,245.60176 68.005548,245.39238 68.116148,245.17684 68.216428,244.95542 68.306128,244.7285 68.384868,244.49634 68.452388,244.25928 68.508328,244.01762 68.552408,243.77172 68.584268,243.52184 68.603628,243.26836 68.610148,243.01154 68.603628,242.75474 68.584268,242.50124 68.552408,242.25138 68.508328,242.00546 68.452388,241.76382 68.384868,241.52676 68.306128,241.2946 68.216428,241.06766 68.116148,240.84626 68.005548,240.63072 67.884988,240.42134 67.754748,240.21844 67.615188,240.02236 67.466588,239.8334 67.309288,239.65186 67.143588,239.4781 66.969829,239.3124 66.788309,239.1551 66.599329,239.0065 66.403249,238.86694 66.200349,238.7367 65.990989,238.61614 65.775429,238.50554 65.554029,238.40526 65.327089,238.31558 65.094929,238.23682 64.857869,238.1693 64.616229,238.11336 64.37031,238.0693 64.12045,238.03742 63.866952,238.01806 63.610142,238.01154 V 238.01154 M 63.610142,238.94904 63.819686,238.95432 64.02643,238.96996 64.23011,238.99572 64.43047,239.03136 64.627269,239.0766 64.820269,239.13122 65.009189,239.19494 65.193789,239.26752 65.373829,239.3487 65.549029,239.43826 65.719169,239.5359 65.883969,239.6414 66.043189,239.7545 66.196569,239.87494 66.343869,240.00246 66.484849,240.13684 66.619229,240.27782 66.746749,240.42512 66.867209,240.5785 66.980289,240.73774 67.085788,240.90252 67.183448,241.07266 67.272988,241.24788 67.354168,241.4279 67.426748,241.6125 67.490468,241.80142 67.545088,241.99442 67.590328,242.19122 67.625968,242.39158 67.651728,242.59526 67.667368,242.802 67.672648,243.01154 67.667368,243.2211 67.651728,243.42784 67.625968,243.6315 67.590328,243.83188 67.545088,244.02868 67.490468,244.22168 67.426748,244.4106 67.354168,244.5952 67.272988,244.77522 67.183448,244.95044 67.085788,245.12056 66.980289,245.28538 66.867209,245.4446 66.746749,245.59798 66.619229,245.74528 66.484849,245.88626 66.343869,246.02062 66.196569,246.14816 66.043189,246.2686 65.883969,246.3817 65.719169,246.4872 65.549029,246.58484 65.373829,246.67438 65.193789,246.75558 65.009189,246.82816 64.820269,246.89188 64.627269,246.94648 64.43047,246.99174 64.23011,247.02736 64.02643,247.05314 63.819686,247.06878 63.610142,247.07404 63.400598,247.06878 63.193864,247.05314 62.990184,247.02736 62.789814,246.99174 62.59301,246.94648 62.400016,246.89188 62.211096,246.82816 62.026492,246.75558 61.846461,246.67438 61.671253,246.58484 61.501125,246.4872 61.336321,246.3817 61.177103,246.2686 61.023715,246.14816 60.876405,246.02062 60.735439,245.88626 60.601067,245.74528 60.473529,245.59798 60.353089,245.4446 60.239993,245.28538 60.134495,245.12056 60.036849,244.95044 59.947305,244.77522 59.866117,244.5952 59.793535,244.4106 59.729813,244.22168 59.675201,244.02868 59.629955,243.83188 59.594323,243.6315 59.568559,243.42784 59.552917,243.2211 59.547647,243.01154 59.552917,242.802 59.568559,242.59526 59.594323,242.39158 59.629955,242.19122 59.675201,241.99442 59.729813,241.80142 59.793535,241.6125 59.866117,241.4279 59.947305,241.24788 60.036849,241.07266 60.134495,240.90252 60.239993,240.73774 60.353089,240.5785 60.473529,240.42512 60.601067,240.27782 60.735439,240.13684 60.876405,240.00246 61.023715,239.87494 61.177103,239.7545 61.336321,239.6414 61.501125,239.5359 61.671253,239.43826 61.846461,239.3487 62.026492,239.26752 62.211096,239.19494 62.400016,239.13122 62.59301,239.0766 62.789814,239.03136 62.990184,238.99572 63.193864,238.96996 63.400598,238.95432 63.610142,238.94904 V 238.94904"
       style="color:#000000;font-style:normal;font-variant:normal;font-weight:normal;font-stretch:normal;font-size:medium;line-height:normal;font-family:sans-serif;font-variant-ligatures:normal;font-variant-position:normal;font-variant-caps:normal;font-variant-numeric:normal;font-variant-alternates:normal;font-feature-settings:normal;text-indent:0;text-align:start;text-decoration:none;text-decoration-line:none;text-decoration-style:solid;text-decoration-color:#000000;letter-spacing:normal;word-spacing:normal;text-transform:none;writing-mode:lr-tb;direction:ltr;text-orientation:mixed;dominant-baseline:auto;baseline-shift:baseline;text-anchor:start;white-space:normal;shape-padding:0;clip-rule:nonzero;display:inline;overflow:visible;visibility:visible;opacity:1;isolation:auto;mix-blend-mode:normal;color-interpolation:sRGB;color-interpolation-filters:linearRGB;solid-color:#000000;solid-opacity:1;vector-effect:none;fill:#ff0000;fill-opacity:1;fill-rule:nonzero;stroke:none;stroke-width:0.74999982;stroke-linecap:round;stroke-linejoin:miter;stroke-miterlimit:4;stroke-dasharray:none;stroke-dashoffset:0;stroke-opacity:1;color-rendering:auto;image-rendering:auto;shape-rendering:auto;text-rendering:auto;enable-background:accumulate" />
    <path
       inkscape:connector-curvature="0"
       id="path817-62-3"
       d="M 30.46872,238.81334 30.211912,238.81986 29.958418,238.83922 29.708552,238.8711 29.46264,238.91516 29.220994,238.9711 28.983938,239.03862 28.751779,239.11738 28.524839,239.20706 28.303433,239.30734 28.087885,239.41794 27.878509,239.5385 27.675613,239.66874 27.479531,239.8083 27.290565,239.9569 27.109039,240.1142 26.935271,240.2799 26.769577,240.45366 26.612273,240.6352 26.463679,240.82416 26.32411,241.02024 26.193882,241.22314 26.073316,241.43252 25.962726,241.64806 25.86243,241.86946 25.772746,242.0964 25.693992,242.32856 25.626482,242.56562 25.570536,242.80726 25.52647,243.05318 25.494602,243.30304 25.475248,243.55654 25.468726,243.81334 25.475248,244.07016 25.494602,244.32364 25.52647,244.57352 25.570536,244.81942 25.626482,245.06108 25.693992,245.29814 25.772746,245.5303 25.86243,245.75722 25.962726,245.97864 26.073316,246.19418 26.193882,246.40356 26.32411,246.60646 26.463679,246.80254 26.612273,246.9915 26.769577,247.17302 26.935271,247.3468 27.109039,247.5125 27.290565,247.6698 27.479531,247.8184 27.675613,247.95796 27.878509,248.08818 28.087885,248.20876 28.303433,248.31934 28.524839,248.41964 28.751779,248.50932 28.983938,248.58808 29.220994,248.6556 29.46264,248.71154 29.708552,248.7556 29.958418,248.78748 30.211912,248.80682 30.46872,248.81334 30.72553,248.80682 30.979028,248.78748 31.228888,248.7556 31.474807,248.71154 31.716447,248.6556 31.953507,248.58808 32.185667,248.50932 32.412607,248.41964 32.634007,248.31934 32.849567,248.20876 33.058927,248.08818 33.261827,247.95796 33.457907,247.8184 33.646887,247.6698 33.828407,247.5125 34.002166,247.3468 34.167866,247.17302 34.325166,246.9915 34.473766,246.80254 34.613326,246.60646 34.743566,246.40356 34.864126,246.19418 34.974726,245.97864 35.075006,245.75722 35.164706,245.5303 35.243446,245.29814 35.310966,245.06108 35.366906,244.81942 35.410986,244.57352 35.442846,244.32364 35.462206,244.07016 35.468726,243.81334 35.462206,243.55654 35.442846,243.30304 35.410986,243.05318 35.366906,242.80726 35.310966,242.56562 35.243446,242.32856 35.164706,242.0964 35.075006,241.86946 34.974726,241.64806 34.864126,241.43252 34.743566,241.22314 34.613326,241.02024 34.473766,240.82416 34.325166,240.6352 34.167866,240.45366 34.002166,240.2799 33.828407,240.1142 33.646887,239.9569 33.457907,239.8083 33.261827,239.66874 33.058927,239.5385 32.849567,239.41794 32.634007,239.30734 32.412607,239.20706 32.185667,239.11738 31.953507,239.03862 31.716447,238.9711 31.474807,238.91516 31.228888,238.8711 30.979028,238.83922 30.72553,238.81986 30.46872,238.81334 V 238.81334 M 30.46872,239.75084 30.678264,239.75612 30.885008,239.77176 31.088688,239.79752 31.289048,239.83316 31.485847,239.8784 31.678847,239.93302 31.867767,239.99674 32.052367,240.06932 32.232407,240.1505 32.407607,240.24006 32.577747,240.3377 32.742547,240.4432 32.901767,240.5563 33.055147,240.67674 33.202447,240.80426 33.343427,240.93864 33.477807,241.07962 33.605327,241.22692 33.725787,241.3803 33.838867,241.53954 33.944366,241.70432 34.042026,241.87446 34.131566,242.04968 34.212746,242.2297 34.285326,242.4143 34.349046,242.60322 34.403666,242.79622 34.448906,242.99302 34.484546,243.19338 34.510306,243.39706 34.525946,243.6038 34.531226,243.81334 34.525946,244.0229 34.510306,244.22964 34.484546,244.4333 34.448906,244.63368 34.403666,244.83048 34.349046,245.02348 34.285326,245.2124 34.212746,245.397 34.131566,245.57702 34.042026,245.75224 33.944366,245.92236 33.838867,246.08718 33.725787,246.2464 33.605327,246.39978 33.477807,246.54708 33.343427,246.68806 33.202447,246.82242 33.055147,246.94996 32.901767,247.0704 32.742547,247.1835 32.577747,247.289 32.407607,247.38664 32.232407,247.47618 32.052367,247.55738 31.867767,247.62996 31.678847,247.69368 31.485847,247.74828 31.289048,247.79354 31.088688,247.82916 30.885008,247.85494 30.678264,247.87058 30.46872,247.87584 30.259176,247.87058 30.052442,247.85494 29.848762,247.82916 29.648392,247.79354 29.451588,247.74828 29.258594,247.69368 29.069674,247.62996 28.88507,247.55738 28.705039,247.47618 28.529831,247.38664 28.359703,247.289 28.194899,247.1835 28.035681,247.0704 27.882293,246.94996 27.734983,246.82242 27.594017,246.68806 27.459645,246.54708 27.332107,246.39978 27.211667,246.2464 27.098571,246.08718 26.993073,245.92236 26.895427,245.75224 26.805883,245.57702 26.724695,245.397 26.652113,245.2124 26.588391,245.02348 26.533779,244.83048 26.488533,244.63368 26.452901,244.4333 26.427137,244.22964 26.411495,244.0229 26.406225,243.81334 26.411495,243.6038 26.427137,243.39706 26.452901,243.19338 26.488533,242.99302 26.533779,242.79622 26.588391,242.60322 26.652113,242.4143 26.724695,242.2297 26.805883,242.04968 26.895427,241.87446 26.993073,241.70432 27.098571,241.53954 27.211667,241.3803 27.332107,241.22692 27.459645,241.07962 27.594017,240.93864 27.734983,240.80426 27.882293,240.67674 28.035681,240.5563 28.194899,240.4432 28.359703,240.3377 28.529831,240.24006 28.705039,240.1505 28.88507,240.06932 29.069674,239.99674 29.258594,239.93302 29.451588,239.8784 29.648392,239.83316 29.848762,239.79752 30.052442,239.77176 30.259176,239.75612 30.46872,239.75084 V 239.75084"
       style="color:#000000;font-style:normal;font-variant:normal;font-weight:normal;font-stretch:normal;font-size:medium;line-height:normal;font-family:sans-serif;font-variant-ligatures:normal;font-variant-position:normal;font-variant-caps:normal;font-variant-numeric:normal;font-variant-alternates:normal;font-feature-settings:normal;text-indent:0;text-align:start;text-decoration:none;text-decoration-line:none;text-decoration-style:solid;text-decoration-color:#000000;letter-spacing:normal;word-spacing:normal;text-transform:none;writing-mode:lr-tb;direction:ltr;text-orientation:mixed;dominant-baseline:auto;baseline-shift:baseline;text-anchor:start;white-space:normal;shape-padding:0;clip-rule:nonzero;display:inline;overflow:visible;visibility:visible;opacity:1;isolation:auto;mix-blend-mode:normal;color-interpolation:sRGB;color-interpolation-filters:linearRGB;solid-color:#000000;solid-opacity:1;vector-effect:none;fill:#ff0000;fill-opacity:1;fill-rule:nonzero;stroke:none;stroke-width:0.74999982;stroke-linecap:round;stroke-linejoin:miter;stroke-miterlimit:4;stroke-dasharray:none;stroke-dashoffset:0;stroke-opacity:1;color-rendering:auto;image-rendering:auto;shape-rendering:auto;text-rendering:auto;enable-background:accumulate" />
    <path
       inkscape:connector-curvature="0"
       id="path817-62-7"
       d="M 11.225314,279.43831 10.968506,279.44483 10.715013,279.46419 10.465146,279.49607 10.219234,279.54013 9.977588,279.59607 9.740533,279.66359 9.508373,279.74235 9.281433,279.83203 9.060027,279.93231 8.844479,280.04291 8.635103,280.16347 8.432207,280.29371 8.236125,280.43327 8.047159,280.58187 7.865633,280.73917 7.691865,280.90487 7.526171,281.07863 7.368867,281.26017 7.220273,281.44913 7.080704,281.64521 6.950476,281.84811 6.82991,282.05749 6.71932,282.27303 6.619024,282.49443 6.52934,282.72137 6.450586,282.95353 6.383076,283.19059 6.32713,283.43223 6.283064,283.67815 6.251196,283.92801 6.231842,284.18151 6.22532,284.43831 6.231842,284.69513 6.251196,284.94861 6.283064,285.19849 6.32713,285.44439 6.383076,285.68605 6.450586,285.92311 6.52934,286.15527 6.619024,286.38219 6.71932,286.60361 6.82991,286.81915 6.950476,287.02853 7.080704,287.23143 7.220273,287.42751 7.368867,287.61647 7.526171,287.79799 7.691865,287.97177 7.865633,288.13747 8.047159,288.29477 8.236125,288.44337 8.432207,288.58293 8.635103,288.71315 8.844479,288.83373 9.060027,288.94431 9.281433,289.04461 9.508373,289.13429 9.740533,289.21305 9.977588,289.28057 10.219234,289.33651 10.465146,289.38057 10.715013,289.41245 10.968506,289.43179 11.225314,289.43831 11.482125,289.43179 11.735622,289.41245 11.985482,289.38057 12.231402,289.33651 12.473042,289.28057 12.710102,289.21305 12.942262,289.13429 13.169202,289.04461 13.390601,288.94431 13.606161,288.83373 13.815521,288.71315 14.018421,288.58293 14.214502,288.44337 14.403481,288.29477 14.585002,288.13747 14.758761,287.97177 14.924461,287.79799 15.08176,287.61647 15.23036,287.42751 15.369921,287.23143 15.500161,287.02853 15.620721,286.81915 15.73132,286.60361 15.8316,286.38219 15.921301,286.15527 16.000041,285.92311 16.067561,285.68605 16.1235,285.44439 16.167581,285.19849 16.199441,284.94861 16.2188,284.69513 16.22532,284.43831 16.2188,284.18151 16.199441,283.92801 16.167581,283.67815 16.1235,283.43223 16.067561,283.19059 16.000041,282.95353 15.921301,282.72137 15.8316,282.49443 15.73132,282.27303 15.620721,282.05749 15.500161,281.84811 15.369921,281.64521 15.23036,281.44913 15.08176,281.26017 14.924461,281.07863 14.758761,280.90487 14.585002,280.73917 14.403481,280.58187 14.214502,280.43327 14.018421,280.29371 13.815521,280.16347 13.606161,280.04291 13.390601,279.93231 13.169202,279.83203 12.942262,279.74235 12.710102,279.66359 12.473042,279.59607 12.231402,279.54013 11.985482,279.49607 11.735622,279.46419 11.482125,279.44483 11.225314,279.43831 V 279.43831 M 11.225314,280.37581 11.434859,280.38109 11.641602,280.39673 11.845282,280.42249 12.045643,280.45813 12.242442,280.50337 12.435442,280.55799 12.624361,280.62171 12.808962,280.69429 12.989002,280.77547 13.164201,280.86503 13.334342,280.96267 13.499141,281.06817 13.658362,281.18127 13.811742,281.30171 13.959042,281.42923 14.100022,281.56361 14.234402,281.70459 14.361922,281.85189 14.482382,282.00527 14.595462,282.16451 14.70096,282.32929 14.798621,282.49943 14.888161,282.67465 14.969341,282.85467 15.041921,283.03927 15.105641,283.22819 15.16026,283.42119 15.205501,283.61799 15.241141,283.81835 15.266901,284.02203 15.282541,284.22877 15.287821,284.43831 15.282541,284.64787 15.266901,284.85461 15.241141,285.05827 15.205501,285.25865 15.16026,285.45545 15.105641,285.64845 15.041921,285.83737 14.969341,286.02197 14.888161,286.20199 14.798621,286.37721 14.70096,286.54733 14.595462,286.71215 14.482382,286.87137 14.361922,287.02475 14.234402,287.17205 14.100022,287.31303 13.959042,287.44739 13.811742,287.57493 13.658362,287.69537 13.499141,287.80847 13.334342,287.91397 13.164201,288.01161 12.989002,288.10115 12.808962,288.18235 12.624361,288.25493 12.435442,288.31865 12.242442,288.37325 12.045643,288.41851 11.845282,288.45413 11.641602,288.47991 11.434859,288.49555 11.225314,288.50081 11.015771,288.49555 10.809036,288.47991 10.605357,288.45413 10.404986,288.41851 10.208183,288.37325 10.015189,288.31865 9.826268,288.25493 9.641664,288.18235 9.461633,288.10115 9.286426,288.01161 9.116297,287.91397 8.951493,287.80847 8.792275,287.69537 8.638887,287.57493 8.491577,287.44739 8.350611,287.31303 8.216239,287.17205 8.088701,287.02475 7.968261,286.87137 7.855165,286.71215 7.749667,286.54733 7.652021,286.37721 7.562477,286.20199 7.481289,286.02197 7.408707,285.83737 7.344985,285.64845 7.290373,285.45545 7.245127,285.25865 7.209495,285.05827 7.183731,284.85461 7.168089,284.64787 7.162819,284.43831 7.168089,284.22877 7.183731,284.02203 7.209495,283.81835 7.245127,283.61799 7.290373,283.42119 7.344985,283.22819 7.408707,283.03927 7.481289,282.85467 7.562477,282.67465 7.652021,282.49943 7.749667,282.32929 7.855165,282.16451 7.968261,282.00527 8.088701,281.85189 8.216239,281.70459 8.350611,281.56361 8.491577,281.42923 8.638887,281.30171 8.792275,281.18127 8.951493,281.06817 9.116297,280.96267 9.286426,280.86503 9.461633,280.77547 9.641664,280.69429 9.826268,280.62171 10.015189,280.55799 10.208183,280.50337 10.404986,280.45813 10.605357,280.42249 10.809036,280.39673 11.015771,280.38109 11.225314,280.37581 V 280.37581"
       style="color:#000000;font-style:normal;font-variant:normal;font-weight:normal;font-stretch:normal;font-size:medium;line-height:normal;font-family:sans-serif;font-variant-ligatures:normal;font-variant-position:normal;font-variant-caps:normal;font-variant-numeric:normal;font-variant-alternates:normal;font-feature-settings:normal;text-indent:0;text-align:start;text-decoration:none;text-decoration-line:none;text-decoration-style:solid;text-decoration-color:#000000;letter-spacing:normal;word-spacing:normal;text-transform:none;writing-mode:lr-tb;direction:ltr;text-orientation:mixed;dominant-baseline:auto;baseline-shift:baseline;text-anchor:start;white-space:normal;shape-padding:0;clip-rule:nonzero;display:inline;overflow:visible;visibility:visible;opacity:1;isolation:auto;mix-blend-mode:normal;color-interpolation:sRGB;color-interpolation-filters:linearRGB;solid-color:#000000;solid-opacity:1;vector-effect:none;fill:#ff0000;fill-opacity:1;fill-rule:nonzero;stroke:none;stroke-width:0.74999982;stroke-linecap:round;stroke-linejoin:miter;stroke-miterlimit:4;stroke-dasharray:none;stroke-dashoffset:0;stroke-opacity:1;color-rendering:auto;image-rendering:auto;shape-rendering:auto;text-rendering:auto;enable-background:accumulate" />
    <path
       style="opacity:1;fill:#e50000;fill-opacity:0.19323671;stroke:#ff0000;stroke-width:1;stroke-linecap:round;stroke-linejoin:miter;stroke-miterlimit:4;stroke-dasharray:none;stroke-opacity:1"
       d="M 16.036171,183.63072 3.0558665,178.56507 -3.7864872,190.70308 -5.8896548,176.92898 -19.822657,177.07233 -8.9455223,168.36389 -16.036171,156.36923 -3.0558685,161.43488 3.7864852,149.29687 5.8896529,163.07097 19.822658,162.92762 8.9455204,171.63606 Z"
       id="path983"
       inkscape:connector-curvature="0" />
  </g>
</svg>
