<?xml version="1.0" encoding="UTF-8" standalone="no"?>
<!-- Created with Inkscape (http://www.inkscape.org/) -->

<svg
   xmlns:dc="http://purl.org/dc/elements/1.1/"
   xmlns:cc="http://creativecommons.org/ns#"
   xmlns:rdf="http://www.w3.org/1999/02/22-rdf-syntax-ns#"
   xmlns:svg="http://www.w3.org/2000/svg"
   xmlns="http://www.w3.org/2000/svg"
   xmlns:sodipodi="http://sodipodi.sourceforge.net/DTD/sodipodi-0.dtd"
   xmlns:inkscape="http://www.inkscape.org/namespaces/inkscape"
   width="800"
   height="480"
   viewBox="0 0 211.66666 127"
   version="1.1"
   id="svg8"
   inkscape:version="0.92.4 (5da689c313, 2019-01-14)"
   sodipodi:docname="Letters6flatten.svg">
  <defs
     id="defs2" />
  <sodipodi:namedview
     id="base"
     pagecolor="#ffffff"
     bordercolor="#666666"
     borderopacity="1.0"
     inkscape:pageopacity="0.0"
     inkscape:pageshadow="2"
     inkscape:zoom="0.97035259"
     inkscape:cx="198.6798"
     inkscape:cy="258.08682"
     inkscape:document-units="mm"
     inkscape:current-layer="text1023"
     showgrid="false"
     units="px"
     inkscape:window-width="1920"
     inkscape:window-height="1017"
     inkscape:window-x="-8"
     inkscape:window-y="-8"
     inkscape:window-maximized="1"
     showguides="false"
     inkscape:snap-global="false" />
  <metadata
     id="metadata5">
    <rdf:RDF>
      <cc:Work
         rdf:about="">
        <dc:format>image/svg+xml</dc:format>
        <dc:type
           rdf:resource="http://purl.org/dc/dcmitype/StillImage" />
        <dc:title></dc:title>
      </cc:Work>
    </rdf:RDF>
  </metadata>
  <g
     inkscape:label="Layer 1"
     inkscape:groupmode="layer"
     id="layer1"
     transform="translate(0,-169.99998)">
    <g
       aria-label="8"
       style="font-style:normal;font-variant:normal;font-weight:900;font-stretch:normal;font-size:109.85178375px;line-height:1.25;font-family:Arial;-inkscape-font-specification:'Arial Heavy';letter-spacing:0px;word-spacing:0px;fill:#000000;fill-opacity:1;stroke:none;stroke-width:0.26458335"
       id="text1023">
      <path
         inkscape:connector-curvature="0"
         d="M 198.35819,284.86982 198.30267,287.04394 198.23325,288.01049 198.13608,288.8967 198.01113,289.70257 197.85842,290.42809 197.67794,291.07328 197.46971,291.63814 197.22593,292.13986 196.95195,292.60878 196.64775,293.04491 196.31335,293.44826 195.94871,293.81881 195.55388,294.15657 195.12881,294.46154 194.67355,294.73372 194.17048,294.97252 193.60211,295.17792 192.96839,295.35077 192.26933,295.49192 191.50495,295.60226 190.67525,295.6826 188.81989,295.75677 H 181.91744 V 288.20121 H 185.52722 L 186.13154,288.14552 186.39695,288.07589 186.63786,287.97838 186.85427,287.853 187.04618,287.69975 187.21358,287.51861 187.35648,287.30958 187.50512,286.94557 187.61127,286.43073 187.67497,285.76506 187.6962,284.94851 V 243.01439 L 187.67497,242.19786 187.61127,241.53219 187.50512,241.01734 187.35648,240.65334 187.21358,240.4443 187.04618,240.26316 186.85427,240.10991 186.63786,239.98453 186.39695,239.88703 186.13154,239.8174 185.52722,239.7617 H 80.788995 L 80.184684,239.8174 79.919286,239.88703 79.678375,239.98453 79.461965,240.10991 79.270065,240.26316 79.102644,240.4443 78.959746,240.65334 78.811127,241.01734 78.704955,241.53219 78.641267,242.19786 78.620026,243.01439 V 246.38051 H 67.958095 V 243.0931 L 68.013626,240.91897 68.083045,239.95243 68.180216,239.06621 68.305165,238.26034 68.457875,237.53482 68.638345,236.88962 68.846585,236.32478 69.090356,235.82306 69.364327,235.35414 69.668537,234.918 70.002936,234.51466 70.367566,234.14411 70.762406,233.80635 71.187457,233.50137 71.642736,233.2292 72.145775,232.9894 72.714156,232.78158 73.347856,232.60575 74.046896,232.46188 74.811267,232.35 75.640955,232.27008 76.535974,232.22213 77.496335,232.20615 H 188.81989 L 189.78026,232.22213 190.67529,232.27008 191.505,232.35 192.26937,232.46188 192.9684,232.60575 193.60212,232.78158 194.1705,232.9894 194.67355,233.2292 195.12881,233.50137 195.55388,233.80635 195.94871,234.14411 196.31335,234.51466 196.64775,234.918 196.95195,235.35414 197.22593,235.82306 197.46971,236.32478 197.67794,236.88962 197.85842,237.53482 198.01113,238.26035 198.13608,239.06622 198.23325,239.95243 198.30267,240.91898 198.35819,243.0931 V 284.86982 M 142.45864,270.55853 142.47538,269.77049 142.52561,269.00008 142.60932,268.2473 142.7265,267.51214 142.87717,266.7946 143.06132,266.09469 143.27895,265.41241 143.53006,264.74775 143.81466,264.10072 144.13274,263.47132 144.4843,262.85955 144.86933,262.26539 145.28786,261.68887 145.73987,261.12997 146.22535,260.58869 146.74433,260.06504 147.29177,259.56311 147.8627,259.09357 148.4571,258.6564 149.07498,258.25162 149.71634,257.87922 150.38119,257.53921 151.0695,257.23158 151.7813,256.95633 152.51657,256.71346 153.27533,256.50298 154.05756,256.32487 154.86327,256.17916 155.69245,256.06581 156.54511,255.98486 158.32089,255.92009 159.34698,255.93905 160.34123,255.99592 161.30363,256.09072 162.23417,256.22342 163.13288,256.39404 163.99973,256.60258 164.83473,256.84903 165.63789,257.1334 166.4092,257.45568 167.14866,257.81589 167.85627,258.21401 168.53204,258.65003 169.17594,259.12399 169.78801,259.63585 170.36823,260.18562 170.91659,260.77332 171.71893,261.77881 172.41429,262.84087 173.00267,263.9595 173.48407,265.13469 173.8585,266.36645 174.12595,267.65476 174.28642,268.99965 174.33991,270.40112 174.32327,271.1955 174.27335,271.97186 174.19016,272.73018 174.07368,273.47047 173.92393,274.19273 173.74091,274.89694 173.5246,275.58311 173.27501,276.25126 172.99216,276.90137 172.67603,277.53344 172.32661,278.14747 171.94392,278.74347 171.52794,279.32143 171.07869,279.88137 170.59617,280.42325 170.08035,280.94711 169.53842,281.44269 168.97097,281.90628 168.37799,282.33791 167.7595,282.73757 167.11549,283.10525 166.44594,283.44096 165.75089,283.74469 165.03032,284.01646 164.28422,284.25625 163.51261,284.46407 162.71548,284.63992 161.89282,284.78379 161.04465,284.89569 160.17096,284.97563 158.34701,285.03958 156.71457,284.98629 155.16215,284.82643 153.68977,284.55999 152.29742,284.18698 150.98509,283.70739 149.75279,283.12122 148.60053,282.42848 147.52829,281.62917 146.91438,281.09096 146.34009,280.53228 145.8054,279.95308 145.31032,279.35338 144.85484,278.7332 144.43898,278.09253 144.06272,277.43136 143.72605,276.74969 143.42902,276.04752 143.17157,275.32487 142.95373,274.58171 142.7755,273.81807 142.63687,273.03392 142.53785,272.22929 142.47845,271.40415 142.45864,270.55853 V 270.55853 M 153.12058,270.5323 153.14385,271.43326 153.21367,272.27357 153.33004,273.05319 153.49296,273.77216 153.70243,274.43046 153.95844,275.02809 154.261,275.56507 154.61012,276.04137 155.00087,276.45948 155.41531,276.82182 155.85343,277.12843 156.31523,277.37929 156.80073,277.5744 157.30989,277.71377 157.84274,277.79739 158.39927,277.82526 158.96111,277.7978 159.49683,277.71541 160.0064,277.57809 160.48985,277.38584 160.94717,277.13868 161.37835,276.83658 161.78338,276.47956 162.16231,276.0676 162.51142,275.59499 162.81398,275.05596 163.06999,274.45054 163.27947,273.77871 163.44238,273.04048 163.55876,272.23584 163.62858,271.36479 163.65185,270.42735 163.62858,269.55139 163.55876,268.73363 163.44238,267.97408 163.27947,267.27274 163.06999,266.6296 162.81398,266.04467 162.51142,265.51794 162.16231,265.04943 161.7789,264.63133 161.37345,264.26898 160.94594,263.96237 160.49638,263.71151 160.02478,263.5164 159.53113,263.37703 159.01542,263.29342 158.47767,263.26554 157.90888,263.29383 157.36543,263.37867 156.84727,263.52009 156.35443,263.71806 155.88691,263.97262 155.44471,264.28374 155.02782,264.65141 154.63624,265.07566 154.28101,265.55116 153.97314,266.08568 153.71263,266.67922 153.49949,267.33179 153.33371,268.04338 153.2153,268.81399 153.14426,269.64363 153.12058,270.5323 V 270.5323 M 108.06871,245.95124 H 118.80901 V 259.27801 L 119.63217,258.491 120.5076,257.80892 121.4353,257.23177 122.41526,256.75955 123.46054,256.3923 124.5581,256.12995 125.70792,255.97257 126.91,255.92009 128.15006,255.97748 129.33539,256.14963 130.46602,256.43657 131.54193,256.83827 132.56312,257.35474 133.52961,257.98598 134.44137,258.73201 135.29842,259.5928 135.70031,260.06111 136.07626,260.55443 136.42629,261.07276 136.7504,261.61608 137.04857,262.18441 137.32082,262.77775 137.78752,264.03944 138.15051,265.40113 138.40979,266.86285 138.56536,268.42458 138.61722,270.08633 138.59353,271.21068 138.52249,272.30144 138.40408,273.35857 138.2383,274.3821 138.02515,275.37202 137.76465,276.32832 137.45679,277.25101 137.10154,278.1401 136.70425,278.97875 136.27022,279.7633 135.79943,280.49375 135.2919,281.17008 134.74761,281.79231 134.16658,282.36044 133.5488,282.87445 132.89427,283.33436 132.21851,283.73402 131.52396,284.0804 130.81063,284.37347 130.07853,284.61326 129.32763,284.79978 128.55796,284.933 127.7695,285.01294 126.96225,285.03958 126.27058,285.02072 125.59359,284.96415 124.9313,284.86988 124.28372,284.73788 123.65083,284.56818 123.03263,284.36077 122.42914,284.11564 121.84035,283.83282 121.39773,283.57088 120.94531,283.25731 120.01109,282.47521 119.03766,281.48653 118.02504,280.29125 V 284.40994 H 108.06871 V 245.95124 M 118.73061,270.40112 118.75144,271.26888 118.81391,272.07517 118.91803,272.81996 119.06379,273.50327 119.25122,274.1251 119.48027,274.68543 119.751,275.18428 120.06335,275.62164 120.4141,275.9967 120.78689,276.32176 121.18173,276.5968 121.59862,276.82183 122.03758,276.99686 122.49857,277.12188 122.9816,277.19689 123.48668,277.2219 123.95379,277.19731 124.40131,277.12353 124.82923,277.00056 125.23754,276.8284 125.62626,276.60705 125.99537,276.33652 126.34488,276.0168 126.67481,275.6479 126.98105,275.21421 127.24645,274.71331 127.47103,274.14519 127.65476,273.50983 127.79767,272.80726 127.89976,272.03746 127.961,271.20044 127.98142,270.29619 127.9614,269.49729 127.90139,268.75332 127.80135,268.06428 127.6613,267.43015 127.48123,266.85096 127.26115,266.32669 127.00105,265.85735 126.70094,265.44294 126.37878,265.08016 126.03947,264.76577 125.68301,264.49974 125.3094,264.28208 124.91864,264.11279 124.51073,263.99187 124.08568,263.91932 123.64348,263.89513 123.11347,263.92055 122.60798,263.99678 122.127,264.12387 121.67048,264.30176 121.23849,264.5305 120.83098,264.81004 120.44799,265.14044 120.08949,265.52165 119.771,265.94795 119.49497,266.42671 119.26142,266.95795 119.07033,267.54165 118.92171,268.17781 118.81555,268.86645 118.75185,269.60755 118.73061,270.40112 V 270.40112 M 90.534007,245.95124 H 101.1698 V 253.21802 H 90.534007 V 245.95124 M 90.534007,256.54968 H 101.1698 V 284.40994 H 90.534007 V 256.54968 M 68.583475,249.98802 V 256.55023 H 64.662805 V 264.34138 H 68.583475 V 284.92151 L 68.638895,287.0957 68.708187,288.06232 68.805225,288.94861 68.930034,289.75455 69.082625,290.48015 69.263015,291.12538 69.471216,291.69025 69.715006,292.19197 69.989056,292.6609 70.293345,293.09706 70.627866,293.50043 70.992596,293.871 71.387527,294.20879 71.812657,294.51377 72.267946,294.78595 72.770996,295.02572 73.339377,295.23346 73.973085,295.40919 74.672125,295.55293 75.436496,295.6647 76.266195,295.74452 77.161225,295.79239 78.121585,295.80834 H 176.8813 V 288.25339 H 81.413536 L 80.809247,288.19759 80.543867,288.12785 80.302985,288.03023 80.086606,287.90474 79.894717,287.75137 79.727326,287.57015 79.584416,287.36109 79.435747,286.99711 79.329466,286.48235 79.265665,285.81674 79.244384,285.00024 V 264.34138 H 85.098015 V 256.55023 H 79.244384 V 249.98802 H 68.583475 M 118.72385,289.27236 119.38661,289.3196 119.96865,289.46138 120.47001,289.69779 120.89071,290.02889 121.2236,290.44337 121.46144,290.93373 121.6042,291.49999 121.6518,292.14211 121.63089,292.61376 121.5682,293.04121 121.46373,293.42448 121.31747,293.76358 121.13348,294.06134 120.91201,294.32453 120.65306,294.55314 120.3567,294.74716 120.02418,294.90023 119.65288,295.00972 119.24266,295.0755 118.79345,295.09745 118.3374,295.07849 117.92219,295.02159 117.54778,294.92673 117.21422,294.79394 116.91757,294.62004 116.65013,294.40193 116.412,294.13963 116.20325,293.83317 116.03347,293.48403 115.91224,293.09364 115.83952,292.66194 115.81528,292.1889 115.86323,291.53727 116.00714,290.96186 116.2471,290.46282 116.58322,290.04029 117.00522,289.70417 117.50272,289.46421 118.07561,289.3203 118.72385,289.27236 V 289.27236 M 147.3028,289.27236 148.11814,289.31453 148.69717,289.44123 149.12205,289.65718 149.46624,289.96726 149.73516,290.36882 149.92722,290.86641 148.24874,291.16652 148.10837,290.88487 147.895,290.67814 147.61408,290.55143 147.264,290.50927 146.99223,290.5342 146.74937,290.60905 146.53533,290.73385 146.35001,290.90864 146.20215,291.13573 146.09661,291.42113 146.03333,291.76464 146.01226,292.16607 146.03352,292.5905 146.09735,292.9494 146.20395,293.243 146.35343,293.47144 146.54318,293.64301 146.76657,293.76569 147.0236,293.83939 147.3142,293.86398 147.59992,293.84289 147.87218,293.77954 148.15649,293.66498 148.47923,293.49085 V 292.9614 H 147.3142 V 291.78952 H 150.00368 V 294.19032 L 149.276,294.63334 148.63669,294.90917 147.98894,295.05038 147.22977,295.09745 146.75149,295.07602 146.31942,295.01179 145.93346,294.90481 145.59349,294.75513 145.29589,294.56333 145.03328,294.32981 144.80574,294.05449 144.61332,293.73732 144.46204,293.38661 144.354,293.01078 144.28918,292.60999 144.26758,292.18433 144.29129,291.73842 144.36247,291.32281 144.4812,290.93743 144.64756,290.58228 144.85993,290.261 145.11659,289.98107 145.41744,289.74244 145.76237,289.54508 146.0733,289.42574 146.43364,289.34052 146.84346,289.28939 147.3028,289.27236 V 289.27236 M 130.50414,289.36822 H 133.40584 L 134.11712,289.40266 134.63818,289.50629 134.84115,289.59047 135.02352,289.7046 135.18524,289.84851 135.32625,290.02202 135.44056,290.2187 135.52222,290.436 135.57121,290.67397 135.58754,290.93259 135.53766,291.36937 135.38787,291.74274 135.1509,292.04944 134.83901,292.29275 134.57452,292.41552 134.22741,292.51524 134.49617,292.61909 134.68041,292.72292 134.95768,293.01846 135.20301,293.36875 136.04511,295.00161 H 134.07793 L 133.14796,293.27976 132.9809,293.00436 132.83304,292.84614 132.63214,292.74789 132.40627,292.71493 H 132.25224 V 295.00161 H 130.50414 V 289.36822 M 132.25224,290.50583 V 291.65033 H 132.98707 L 133.44807,291.57387 133.60417,291.51233 133.72762,291.397 133.81139,291.24441 133.83945,291.07066 133.79652,290.82958 133.66715,290.6519 133.41784,290.54236 133.01675,290.50583 H 132.25224 M 118.72042,290.59027 118.47016,290.61363 118.24578,290.68367 118.04735,290.80029 117.87489,290.96342 117.73529,291.1801 117.63542,291.45759 117.57543,291.79608 117.5554,292.19574 117.57508,292.59237 117.6341,292.92914 117.73251,293.20586 117.87033,293.42238 118.04402,293.58533 118.24611,293.70156 118.47655,293.77119 118.73525,293.79438 118.99989,293.77154 119.23283,293.70306 119.43405,293.58894 119.6036,293.42922 119.73818,293.21051 119.83448,292.91933 119.89236,292.5556 119.91168,292.1193 119.89148,291.74851 119.83091,291.43149 119.73,291.16826 119.58877,290.95885 119.41489,290.79751 119.21222,290.68234 118.98073,290.61328 118.72042,290.59027 V 290.59027 M 105.4214,293.4338 H 107.09307 V 295.00161 H 105.4214 V 293.4338 M 48.905436,245.95124 H 59.567364 V 284.40994 H 48.905436 V 245.95124 M 42.032675,284.40994 H 32.102445 V 279.89774 L 31.546315,280.56794 30.988555,281.18813 30.429165,281.7583 29.868145,282.27847 29.305485,282.74864 28.741195,283.16879 28.175265,283.53893 27.607705,283.85906 27.029535,284.13574 26.418695,284.37554 25.775185,284.57844 25.099015,284.74445 24.390185,284.87356 23.648685,284.96579 22.874515,285.02113 22.067685,285.03958 20.999525,284.99859 19.990175,284.87561 19.039615,284.67066 18.147865,284.38373 17.314895,284.01482 16.540725,283.56392 15.825355,283.03105 15.168795,282.41619 14.586945,281.70952 14.082675,280.91431 13.655985,280.03056 13.306875,279.05827 13.035345,277.99744 12.841395,276.84807 12.725025,275.61017 12.686235,274.28372 V 256.54968 H 23.374295 V 271.87022 L 23.434725,273.08681 23.510265,273.62379 23.616015,274.11321 23.751985,274.55508 23.918175,274.94941 24.114565,275.29618 24.341185,275.59541 24.595155,275.85366 24.873625,276.07746 25.176605,276.26684 25.504075,276.42177 25.856035,276.54229 26.232495,276.62837 26.633465,276.68003 27.058925,276.69725 27.524825,276.67429 27.968655,276.60543 28.390445,276.49065 28.790185,276.32997 29.167875,276.12338 29.523525,275.87089 29.857115,275.57248 30.168665,275.22816 30.456525,274.82441 30.706005,274.34768 30.917105,273.798 31.089825,273.17537 31.224155,272.47976 31.320105,271.71119 31.377675,270.86967 31.396875,269.95517 V 256.54968 H 42.032675 V 284.40994"
         style="font-style:normal;font-variant:normal;font-weight:900;font-stretch:normal;font-size:14.11111069px;line-height:1.25;font-family:Arial;-inkscape-font-specification:'Arial Heavy';letter-spacing:0px;word-spacing:0px;fill:#008000;fill-opacity:1;stroke:none;stroke-width:0.07000433"
         id="path833-4-0-8" />
      <path
         style="opacity:1;fill:#008000;fill-opacity:1;stroke:#f90000;stroke-width:0.26499999;stroke-linecap:round;stroke-linejoin:miter;stroke-miterlimit:4;stroke-dasharray:none;stroke-opacity:1"
         inkscape:transform-center-x="-1.0236321e-06"
         inkscape:transform-center-y="4.9076844e-06"
         d="M 41.109817,233.66841 29.522704,225.77065 20.066794,236.12226 21.117934,222.14601 7.4186315,219.13878 20.056883,213.06031 15.813491,199.70146 27.400603,207.59923 36.856513,197.24762 35.805375,211.22387 49.504676,214.2311 36.866425,220.30957 Z"
         id="path814"
         inkscape:connector-curvature="0" />
      <path
         inkscape:connector-curvature="0"
         style="font-style:normal;font-variant:normal;font-weight:900;font-stretch:normal;font-size:109.85178375px;line-height:1.25;font-family:Arial;-inkscape-font-specification:'Arial Heavy';letter-spacing:0px;word-spacing:0px;opacity:1;fill:#008000;fill-opacity:1;stroke:#f90000;stroke-width:0.26499996;stroke-linecap:round;stroke-linejoin:miter;stroke-miterlimit:4;stroke-dasharray:none;stroke-opacity:1"
         inkscape:transform-center-x="-1.0236321e-06"
         inkscape:transform-center-y="4.9076844e-06"
         d="M 183.6105,213.64192 172.02339,205.74416 162.56748,216.09576 163.61862,202.11952 149.91932,199.11229 162.55756,193.03381 158.31417,179.67497 169.90129,187.57274 179.3572,177.22113 178.30606,191.19737 192.00536,194.2046 179.36711,200.28308 Z"
         id="path814-9" />
    </g>
  </g>
</svg>
