<?xml version="1.0" encoding="UTF-8" standalone="no"?>
<!-- Created with Inkscape (http://www.inkscape.org/) -->

<svg
   xmlns:dc="http://purl.org/dc/elements/1.1/"
   xmlns:cc="http://creativecommons.org/ns#"
   xmlns:rdf="http://www.w3.org/1999/02/22-rdf-syntax-ns#"
   xmlns:svg="http://www.w3.org/2000/svg"
   xmlns="http://www.w3.org/2000/svg"
   xmlns:sodipodi="http://sodipodi.sourceforge.net/DTD/sodipodi-0.dtd"
   xmlns:inkscape="http://www.inkscape.org/namespaces/inkscape"
   width="800"
   height="480"
   viewBox="0 0 211.66666 127"
   version="1.1"
   id="svg8"
   inkscape:version="0.92.4 (5da689c313, 2019-01-14)"
   sodipodi:docname="Letters.svg">
  <defs
     id="defs2" />
  <sodipodi:namedview
     id="base"
     pagecolor="#ffffff"
     bordercolor="#666666"
     borderopacity="1.0"
     inkscape:pageopacity="0.0"
     inkscape:pageshadow="2"
     inkscape:zoom="0.98994949"
     inkscape:cx="369.16783"
     inkscape:cy="186.22191"
     inkscape:document-units="mm"
     inkscape:current-layer="layer1"
     showgrid="false"
     units="px"
     inkscape:window-width="1920"
     inkscape:window-height="1017"
     inkscape:window-x="-8"
     inkscape:window-y="-8"
     inkscape:window-maximized="1" />
  <metadata
     id="metadata5">
    <rdf:RDF>
      <cc:Work
         rdf:about="">
        <dc:format>image/svg+xml</dc:format>
        <dc:type
           rdf:resource="http://purl.org/dc/dcmitype/StillImage" />
        <dc:title></dc:title>
      </cc:Work>
    </rdf:RDF>
  </metadata>
  <g
     inkscape:label="Layer 1"
     inkscape:groupmode="layer"
     id="layer1"
     transform="translate(0,-169.99998)">
    <g
       aria-label="A"
       style="font-style:normal;font-variant:normal;font-weight:900;font-stretch:normal;font-size:14.11111069px;line-height:1.25;font-family:Arial;-inkscape-font-specification:'Arial Heavy';letter-spacing:0px;word-spacing:0px;fill:#000000;fill-opacity:1;stroke:none;stroke-width:0.26458332"
       id="text825">
      <path
         d="M 8.8520999,293.72894 H 5.2967615 L 4.8075579,295.39636 H 1.6173996 L 5.4138947,285.29534 H 8.8176489 L 12.614144,295.39636 H 9.3481936 Z M 8.1975318,291.54475 7.0813209,287.91362 5.9720002,291.54475 Z"
         style="font-style:normal;font-variant:normal;font-weight:900;font-stretch:normal;font-family:Arial;-inkscape-font-specification:'Arial Heavy';stroke-width:0.26458332"
         id="path894" />
    </g>
    <g
       aria-label="B"
       style="font-style:normal;font-variant:normal;font-weight:900;font-stretch:normal;font-size:14.11111069px;line-height:1.25;font-family:Arial;-inkscape-font-specification:'Arial Heavy';letter-spacing:0px;word-spacing:0px;fill:#000000;fill-opacity:1;stroke:none;stroke-width:0.26458332"
       id="text825-9">
      <path
         d="M 1.4081935,171.6782 H 7.2510753 Q 8.7117957,171.6782 9.4903873,172.40167 10.275869,173.12514 10.275869,174.19312 10.275869,175.08885 9.7177636,175.72963 9.3456933,176.15682 8.6291135,176.40487 9.7177636,176.6667 10.227638,177.30749 10.744402,177.94138 10.744402,178.90601 10.744402,179.69149 10.379222,180.3185 10.014042,180.94551 9.3801442,181.31069 8.9874034,181.53806 8.1950314,181.64142 7.1408322,181.77922 6.7963227,181.77922 H 1.4081935 Z M 4.5570107,175.64006 H 5.9143783 Q 6.6447385,175.64006 6.9272363,175.39201 7.2166243,175.13708 7.2166243,174.66165 7.2166243,174.22068 6.9272363,173.97263 6.6447385,173.72459 5.9350489,173.72459 H 4.5570107 Z M 4.5570107,179.60881 H 6.1486448 Q 6.9547971,179.60881 7.2855263,179.32631 7.6162554,179.03692 7.6162554,178.55461 7.6162554,178.10675 7.2855263,177.83803 6.9616873,177.56242 6.1417546,177.56242 H 4.5570107 Z"
         style="font-style:normal;font-variant:normal;font-weight:900;font-stretch:normal;font-family:Arial;-inkscape-font-specification:'Arial Heavy';stroke-width:0.26458332"
         id="path891" />
    </g>
    <g
       aria-label="C"
       style="font-style:normal;font-variant:normal;font-weight:900;font-stretch:normal;font-size:14.11111069px;line-height:1.25;font-family:Arial;-inkscape-font-specification:'Arial Heavy';letter-spacing:0px;word-spacing:0px;fill:#000000;fill-opacity:1;stroke:none;stroke-width:0.26458332"
       id="text825-9-8">
      <path
         d="M 207.84737,177.65197 210.58278,178.47879 Q 210.30717,179.62945 209.71462,180.40115 209.12206,181.17285 208.24012,181.56559 207.36506,181.95834 206.00769,181.95834 204.36094,181.95834 203.31363,181.48291 202.27321,181.0006 201.51529,179.79482 200.75737,178.58903 200.75737,176.70801 200.75737,174.19998 202.08718,172.85639 203.42387,171.50592 205.863,171.50592 207.77158,171.50592 208.86023,172.27762 209.95577,173.04932 210.48632,174.64784 L 207.73024,175.26107 Q 207.58555,174.79943 207.42707,174.58583 207.16525,174.22754 206.78629,174.03462 206.40732,173.84169 205.93879,173.84169 204.8777,173.84169 204.31271,174.69607 203.88551,175.32997 203.88551,176.68734 203.88551,178.36855 204.39539,178.99555 204.90526,179.61567 205.82855,179.61567 206.72427,179.61567 207.17903,179.11269 207.64067,178.6097 207.84737,177.65197 Z"
         style="font-style:normal;font-variant:normal;font-weight:900;font-stretch:normal;font-family:Arial;-inkscape-font-specification:'Arial Heavy';stroke-width:0.26458332"
         id="path888" />
    </g>
    <g
       aria-label="D"
       style="font-style:normal;font-variant:normal;font-weight:900;font-stretch:normal;font-size:14.11111069px;line-height:1.25;font-family:Arial;-inkscape-font-specification:'Arial Heavy';letter-spacing:0px;word-spacing:0px;fill:#000000;fill-opacity:1;stroke:none;stroke-width:0.26458332"
       id="text825-9-8-6">
      <path
         d="M 201.02407,285.53155 H 205.66117 Q 207.03232,285.53155 207.87292,285.90362 208.72042,286.27569 209.27163,286.9716 209.82285,287.66751 210.07089,288.59079 210.31894,289.51408 210.31894,290.54761 210.31894,292.1668 209.94687,293.06253 209.58169,293.95136 208.92712,294.5577 208.27255,295.15715 207.52152,295.35696 206.49488,295.63257 205.66117,295.63257 H 201.02407 Z M 204.14533,287.81909 V 293.33813 H 204.91014 Q 205.88855,293.33813 206.30196,293.12454 206.71537,292.90405 206.94964,292.36662 207.1839,291.82229 207.1839,290.60962 207.1839,289.0042 206.66025,288.41165 206.13659,287.81909 204.92392,287.81909 Z"
         style="font-style:normal;font-variant:normal;font-weight:900;font-stretch:normal;font-family:Arial;-inkscape-font-specification:'Arial Heavy';stroke-width:0.26458332"
         id="path885" />
    </g>
  </g>
</svg>
