<?xml version="1.0" encoding="UTF-8" standalone="no"?>
<!-- Created with Inkscape (http://www.inkscape.org/) -->

<svg
   xmlns:dc="http://purl.org/dc/elements/1.1/"
   xmlns:cc="http://creativecommons.org/ns#"
   xmlns:rdf="http://www.w3.org/1999/02/22-rdf-syntax-ns#"
   xmlns:svg="http://www.w3.org/2000/svg"
   xmlns="http://www.w3.org/2000/svg"
   xmlns:sodipodi="http://sodipodi.sourceforge.net/DTD/sodipodi-0.dtd"
   xmlns:inkscape="http://www.inkscape.org/namespaces/inkscape"
   width="800"
   height="480"
   viewBox="0 0 211.66666 127"
   version="1.1"
   id="svg8"
   inkscape:version="0.92.4 (5da689c313, 2019-01-14)"
   sodipodi:docname="Letters5flatten.svg">
  <defs
     id="defs2" />
  <sodipodi:namedview
     id="base"
     pagecolor="#ffffff"
     bordercolor="#666666"
     borderopacity="1.0"
     inkscape:pageopacity="0.0"
     inkscape:pageshadow="2"
     inkscape:zoom="1.326852"
     inkscape:cx="290.38453"
     inkscape:cy="221.5282"
     inkscape:document-units="mm"
     inkscape:current-layer="text1023"
     showgrid="false"
     units="px"
     inkscape:window-width="1920"
     inkscape:window-height="1017"
     inkscape:window-x="-8"
     inkscape:window-y="-8"
     inkscape:window-maximized="1"
     showguides="false"
     inkscape:snap-global="false" />
  <metadata
     id="metadata5">
    <rdf:RDF>
      <cc:Work
         rdf:about="">
        <dc:format>image/svg+xml</dc:format>
        <dc:type
           rdf:resource="http://purl.org/dc/dcmitype/StillImage" />
        <dc:title />
      </cc:Work>
    </rdf:RDF>
  </metadata>
  <g
     inkscape:label="Layer 1"
     inkscape:groupmode="layer"
     id="layer1"
     transform="translate(0,-169.99998)">
    <g
       aria-label="8"
       style="font-style:normal;font-variant:normal;font-weight:900;font-stretch:normal;font-size:109.85178375px;line-height:1.25;font-family:Arial;-inkscape-font-specification:'Arial Heavy';letter-spacing:0px;word-spacing:0px;fill:#000000;fill-opacity:1;stroke:none;stroke-width:0.26458335"
       id="text1023">
      <path
         inkscape:connector-curvature="0"
         style="font-style:normal;font-variant:normal;font-weight:900;font-stretch:normal;font-size:109.85178375px;line-height:1.25;font-family:Arial;-inkscape-font-specification:'Arial Heavy';letter-spacing:0px;word-spacing:0px;opacity:1;fill:#008000;fill-opacity:1;stroke:#ff0000;stroke-width:0.26499999;stroke-linecap:round;stroke-linejoin:miter;stroke-miterlimit:4;stroke-dasharray:none;stroke-opacity:1"
         d="M 124.42509,211.10981 H 149.3328 C 149.75966,211.10981 150.1033,211.62528 150.1033,212.26557 V 226.31409 C 150.1033,226.95438 149.75966,227.46985 149.3328,227.46985 H 124.42509 C 123.99823,227.46985 123.65458,226.95438 123.65458,226.31409 V 212.26557 C 123.65458,211.62528 123.99823,211.10981 124.42509,211.10981 Z"
         id="rect814-9" />
      <path
         inkscape:connector-curvature="0"
         style="font-style:normal;font-variant:normal;font-weight:900;font-stretch:normal;font-size:109.85178375px;line-height:1.25;font-family:Arial;-inkscape-font-specification:'Arial Heavy';letter-spacing:0px;word-spacing:0px;opacity:1;fill:#ff0000;fill-opacity:1;stroke:#ff0000;stroke-width:0.26499999;stroke-linecap:round;stroke-linejoin:miter;stroke-miterlimit:4;stroke-dasharray:none;stroke-opacity:1"
         d="M 158.50849,202.38445 H 183.4162 C 183.84306,202.38445 184.1867,202.89992 184.1867,203.54021 V 217.58873 C 184.1867,218.22902 183.84306,218.74449 183.4162,218.74449 H 158.50849 C 158.08163,218.74449 157.73798,218.22902 157.73798,217.58873 V 203.54021 C 157.73798,202.89992 158.08163,202.38445 158.50849,202.38445 Z"
         id="rect814-9-1" />
      <path
         inkscape:connector-curvature="0"
         style="font-style:normal;font-variant:normal;font-weight:900;font-stretch:normal;font-size:109.85178375px;line-height:1.25;font-family:Arial;-inkscape-font-specification:'Arial Heavy';letter-spacing:0px;word-spacing:0px;opacity:1;fill:#ffff00;fill-opacity:1;stroke:#ff0000;stroke-width:0.26499999;stroke-linecap:round;stroke-linejoin:miter;stroke-miterlimit:4;stroke-dasharray:none;stroke-opacity:1"
         d="M 130.42377,178.66241 H 155.33148 C 155.75834,178.66241 156.10198,179.17788 156.10198,179.81817 V 193.86669 C 156.10198,194.50698 155.75834,195.02245 155.33148,195.02245 H 130.42377 C 129.99691,195.02245 129.65326,194.50698 129.65326,193.86669 V 179.81817 C 129.65326,179.17788 129.99691,178.66241 130.42377,178.66241 Z"
         id="rect814-9-1-8" />
      <path
         style="opacity:1;fill:#000000;fill-opacity:1;stroke:#ff0000;stroke-width:0.26499999;stroke-linecap:round;stroke-linejoin:miter;stroke-miterlimit:4;stroke-dasharray:none;stroke-opacity:1"
         inkscape:transform-center-x="1.6763666e-06"
         d="M 172.87102,279.27662 158.1437,268.70114 145.60046,281.7932 147.39543,263.75122 129.78576,259.43449 146.30806,251.96799 141.24162,234.5592 155.96894,245.13468 168.51218,232.04263 166.71721,250.0846 184.32688,254.40134 167.80458,261.86783 Z"
         id="path912"
         inkscape:connector-curvature="0" />
      <path
         inkscape:connector-curvature="0"
         id="path915"
         d="M 55.889645,175.11284 54.009076,175.24957 52.137796,175.45288 50.277737,175.72203 48.430836,176.0563 46.599027,176.45493 44.784241,176.9172 42.988414,177.44236 41.213478,178.02967 39.461371,178.67841 37.734026,179.38782 36.033374,180.15717 34.361352,180.98573 32.719893,181.87275 31.110931,182.8175 29.536399,183.81924 27.998234,184.87723 26.498368,185.99073 25.038735,187.15901 23.62127,188.38132 22.247906,189.65693 20.920577,190.9851 19.641218,192.36509 18.411763,193.79617 17.234145,195.2776 16.1103,196.80863 15.042159,198.38853 14.031659,200.01657 13.080733,201.692 12.191314,203.41408 11.365337,205.18208 10.604737,206.99527 9.9114465,208.85289 9.1672198,211.16186 8.5453963,213.4883 8.0443594,215.82795 7.6624922,218.17653 7.3981784,220.52977 7.2498013,222.8834 7.2157444,225.23315 7.2943912,227.57475 7.4841249,229.90393 7.7833292,232.21642 8.1903874,234.50794 8.7036826,236.77423 9.3215989,239.01102 10.042519,241.21403 10.864827,243.37899 11.786906,245.50164 12.807139,247.57769 13.923911,249.60289 15.135603,251.57296 16.440601,253.48363 17.837286,255.33062 19.324043,257.10968 20.899255,258.81652 22.561305,260.44688 24.308578,261.99648 26.139455,263.46106 28.052322,264.83634 30.045561,266.11805 32.117555,267.30193 34.266688,268.3837 36.491344,269.35909 38.789904,270.22382 40.926059,270.90287 43.078175,271.46905 45.242298,271.92386 47.414462,272.26876 49.590711,272.50525 51.767086,272.63481 53.939627,272.65892 56.104376,272.57906 58.25737,272.39672 60.394654,272.11338 62.512265,271.73052 64.606246,271.24962 66.672637,270.67218 68.707477,269.99966 70.706809,269.23355 72.666672,268.37534 74.58311,267.42651 76.452159,266.38853 78.269861,265.2629 80.03226,264.0511 81.735392,262.75461 83.375299,261.3749 84.948025,259.91348 86.449606,258.37181 87.876084,256.75138 89.223501,255.05367 90.487897,253.28017 91.665313,251.43235 92.751788,249.51171 93.743363,247.51972 94.63608,245.45787 95.425981,243.32763 96.039808,241.36433 96.550293,239.38658 96.958783,237.39803 97.266628,235.40233 97.475182,233.40313 97.585787,231.40408 97.599802,229.40882 97.518572,227.42101 97.34345,225.44428 97.075781,223.48229 96.716921,221.53869 96.268217,219.61712 95.731019,217.72123 95.106677,215.85467 94.396543,214.02109 93.601966,212.22413 92.724295,210.46745 91.76488,208.75468 90.725075,207.08948 89.606223,205.4755 88.40968,203.91638 87.136795,202.41578 85.788918,200.97733 84.367396,199.60469 82.873583,198.30151 81.308828,197.07142 79.674481,195.91809 77.97189,194.84516 76.202408,193.85627 74.367383,192.95508 72.468166,192.14523 70.506107,191.43037 68.715679,190.88179 66.912304,190.42703 65.099323,190.06487 63.280067,189.79411 61.457881,189.61351 59.636099,189.52187 57.818062,189.51797 56.007104,189.60059 54.206567,189.76851 52.419789,190.02052 50.650106,190.3554 48.900857,190.77194 47.17538,191.26891 45.477012,191.8451 43.809092,192.49929 42.174958,193.23027 40.577951,194.03682 39.021405,194.91772 37.508659,195.87175 36.043054,196.89771 34.627924,197.99436 33.26661,199.16051 31.962446,200.39492 30.718778,201.69638 29.538936,203.06367 28.426261,204.49559 27.384093,205.9909 26.415767,207.5484 25.524624,209.16687 24.714,210.84508 23.987233,212.58183 23.347663,214.3759 22.864373,215.9934 22.465384,217.62236 22.149613,219.25974 21.915977,220.90252 21.763392,222.54766 21.690776,224.19214 21.697045,225.83293 21.781115,227.467 21.941904,229.09132 22.178328,230.70285 22.489304,232.29858 22.873749,233.87546 23.330578,235.43048 23.858711,236.96059 24.457061,238.46279 25.124548,239.93402 25.860086,241.37126 26.662594,242.77149 27.530988,244.13168 28.464183,245.44879 29.461098,246.7198 30.520649,247.94167 31.641753,249.11138 32.823326,250.22589 34.064286,251.28219 35.363548,252.27723 36.720027,253.20799 38.132646,254.07145 39.600317,254.86456 41.121957,255.5843 42.696484,256.22765 44.322814,256.79157 45.767352,257.2095 47.221901,257.55265 48.683736,257.82194 50.150133,258.01834 51.618366,258.14279 53.08571,258.19624 54.549442,258.17965 56.006834,258.09396 57.455164,257.94013 58.891704,257.7191 60.31373,257.43182 61.718518,257.07925 63.103344,256.66233 64.465479,256.18202 65.802203,255.63926 67.110787,255.03501 68.388507,254.37021 69.632638,253.64581 70.840457,252.86277 72.009236,252.02204 73.136252,251.12456 74.218782,250.17129 75.254096,249.16317 76.23947,248.10116 77.172181,246.9862 78.049506,245.81925 78.868716,244.60126 79.627088,243.33317 80.321894,242.01593 80.950414,240.65051 81.509919,239.23784 81.997686,237.77888 82.350182,236.50738 82.637347,235.22731 82.860003,233.94107 83.018967,232.6511 83.115058,231.35982 83.149091,230.06965 83.12189,228.78301 83.034267,227.50233 82.887045,226.23003 82.681043,224.96853 82.417077,223.72026 82.095964,222.48763 81.718527,221.27308 81.285579,220.07902 80.797942,218.90788 80.256435,217.76208 79.661873,216.64404 79.015077,215.55619 78.316866,214.50095 77.568055,213.48074 76.769466,212.49799 75.921916,211.55511 75.026223,210.65454 74.083203,209.79869 73.09368,208.98998 72.05847,208.23085 70.97839,207.52371 69.854258,206.87099 68.686894,206.27511 67.477116,205.73848 66.225744,205.26355 64.933593,204.85272 63.835228,204.56577 62.729654,204.33468 61.619,204.15877 60.505392,204.03736 59.390959,203.96975 58.277827,203.95527 57.168124,203.99323 56.063975,204.08295 54.967512,204.22373 53.880859,204.41489 52.80614,204.65575 51.745491,204.94562 50.70103,205.28382 49.674891,205.66966 48.669197,206.10246 47.686078,206.58153 46.727662,207.10618 45.796072,207.67573 44.89344,208.28949 44.02189,208.94679 43.18355,209.64693 42.380548,210.38922 41.61501,211.17299 40.889064,211.99755 40.204839,212.8622 39.56446,213.76628 38.970056,214.70908 38.423752,215.68994 37.927678,216.70815 37.483957,217.76304 37.094721,218.85391 36.762095,219.9801 36.540855,220.90525 36.366093,221.83636 36.237254,222.77158 36.153783,223.70906 36.115123,224.64696 36.120724,225.58344 36.170029,226.51666 36.262482,227.44476 36.397532,228.36591 36.57462,229.27825 36.793195,230.17996 37.052703,231.06917 37.352586,231.94405 37.692293,232.80276 38.071266,233.64345 38.488954,234.46427 38.944799,235.26338 39.438248,236.03894 39.96875,236.7891 40.535743,237.51203 41.138679,238.20586 41.777,238.86877 42.450153,239.4989 43.157582,240.09442 43.898735,240.65347 44.673054,241.17422 45.479988,241.65481 46.31898,242.09342 47.189475,242.48818 48.090921,242.83726 49.02276,243.13882 49.984442,243.391 50.736328,243.54627 51.493087,243.66431 52.253137,243.74555 53.014898,243.79043 53.776783,243.79936 54.537216,243.77277 56.047379,243.61476 57.53273,243.31983 58.980605,242.89138 60.378346,242.33285 61.054459,242.00586 61.713289,241.64764 62.353258,241.25861 62.972779,240.83918 63.57027,240.38981 64.14415,239.9109 64.692837,239.40289 65.214747,238.8662 65.708296,238.30127 66.171905,237.70851 66.603989,237.08836 67.002965,236.44125 67.367253,235.7676 67.695269,235.06785 67.985429,234.3424 68.236152,233.59171 68.445855,232.81618 68.612958,232.01626 68.763867,230.85976 68.805555,229.70122 68.740241,228.5486 68.570141,227.40985 68.297465,226.29291 67.924432,225.20574 67.453256,224.15629 66.886151,223.15251 66.218191,222.20245 65.446739,221.31852 64.577444,220.51518 63.615956,219.80689 63.102405,219.49292 62.567922,219.20814 62.013219,218.95435 61.438998,218.73337 60.845964,218.54701 60.234829,218.39707 59.606292,218.28536 58.961063,218.21369 58.14605,218.1877 57.336448,218.2366 56.53664,218.35931 55.751015,218.5548 54.983957,218.82202 54.239849,219.1599 53.523078,219.5674 52.838027,220.04346 52.192023,220.6035 51.60093,221.25672 51.081946,221.99285 50.652269,222.80158 50.329097,223.67262 50.129628,224.59567 50.081657,225.07348 50.071059,225.56043 50.099987,226.05524 50.170588,226.55662 50.324186,227.21046 50.529636,227.78571 50.785891,228.29281 51.091899,228.74224 51.446614,229.14447 51.84898,229.50997 52.297953,229.84919 52.792481,230.17261 53.359167,230.47959 54.026299,230.72237 54.397998,230.80088 54.795366,230.84078 55.218588,230.83453 55.667852,230.77462 56.121006,230.64759 56.552194,230.45195 56.956035,230.19815 57.327155,229.89662 57.660177,229.55781 57.949723,229.19215 58.190415,228.81008 58.37688,228.42205 53.679649,226.51305 53.986437,226.18712 54.311373,225.95085 54.502533,225.8572 54.707415,225.79619 55.063883,225.76183 55.29959,225.7909 55.455963,225.85758 55.251236,225.51702 55.153367,225.42181 55.138508,225.48125 55.158921,225.64568 55.125068,225.17131 55.159219,224.97127 55.229913,224.78695 55.488379,224.43838 55.915386,224.07136 56.19543,223.8835 56.512002,223.71583 57.210908,223.45075 57.924459,223.29546 58.565007,223.26934 59.210629,223.35871 59.813242,223.52054 60.374044,223.75186 60.894235,224.04973 61.375017,224.4112 61.817589,224.83332 62.22315,225.31313 62.592899,225.84767 62.919704,226.43188 63.194202,227.05636 63.414246,227.71173 63.577697,228.3886 63.682406,229.07756 63.72623,229.76924 63.707025,230.45423 63.622646,231.12315 63.379001,232.12722 63.023504,233.07132 62.564778,233.9527 62.011453,234.7686 61.372152,235.51628 60.655509,236.193 59.870145,236.79599 59.024691,237.32252 58.127772,237.76984 57.188015,238.13519 56.214047,238.41583 55.214497,238.60901 54.19799,238.71199 53.173155,238.722 52.148619,238.63631 51.133006,238.45217 50.449357,238.27215 49.786142,238.05537 49.143818,237.80323 48.522841,237.51708 47.923671,237.19831 47.346765,236.84829 46.792581,236.46839 46.261575,236.05999 45.270932,235.16318 44.3785,234.16885 43.587937,233.08801 42.902911,231.93164 42.327077,230.71074 41.864101,229.4363 41.517646,228.11933 41.291371,226.7708 41.188937,225.40173 41.214009,224.0231 41.370249,222.64591 41.661315,221.28115 41.914727,220.42545 42.212651,219.59588 42.553415,218.79301 42.935339,218.01744 43.356747,217.26972 43.815962,216.55045 44.311308,215.86019 44.841103,215.19953 45.403676,214.56905 45.997347,213.96931 46.62044,213.4009 47.271274,212.8644 47.948176,212.36039 48.64947,211.88943 49.373476,211.45212 50.118516,211.04902 50.882918,210.68071 51.665001,210.34778 52.463087,210.05079 53.275502,209.79034 54.100564,209.56699 54.936602,209.38132 55.781937,209.23391 56.634889,209.12533 57.493786,209.05618 58.356944,209.02701 59.222692,209.03842 60.089352,209.09097 60.955245,209.18525 61.818695,209.32183 62.678023,209.5013 63.531554,209.72422 64.558238,210.05125 65.553162,210.43061 66.515622,210.86029 67.444914,211.33833 68.340336,211.86273 69.201189,212.43152 70.026769,213.0427 70.816371,213.6943 71.569298,214.38434 72.284841,215.11083 72.962303,215.87178 73.60098,216.66522 74.200169,217.48916 74.759167,218.34162 75.277273,219.22061 75.753784,220.12415 76.188,221.05026 76.579214,221.99696 76.926728,222.96226 77.229838,223.94418 77.48784,224.94073 77.700034,225.94994 77.865718,226.96981 77.984188,227.99838 78.054742,229.03364 78.076676,230.07362 78.049292,231.11634 77.971883,232.15982 77.84375,233.20206 77.664189,234.2411 77.432498,235.27493 77.147975,236.30159 76.74719,237.49866 76.286235,238.65836 75.767403,239.77986 75.192989,240.86233 74.565287,241.90495 73.886587,242.90688 73.159183,243.86729 72.385371,244.78536 71.567441,245.66025 70.707691,246.49114 69.80841,247.2772 68.871893,248.01759 67.900431,248.7115 66.896319,249.35808 65.861852,249.95652 64.799322,250.50598 63.711023,251.00563 62.599245,251.45464 61.466285,251.85219 60.314434,252.19744 59.145986,252.48957 57.963237,252.72774 56.768475,252.91114 55.563998,253.03892 54.352098,253.11027 53.135067,253.12434 51.9152,253.08031 50.694787,252.97736 49.476126,252.81465 48.261507,252.59135 47.053223,252.30664 45.853572,251.95968 44.486483,251.4851 43.162372,250.9425 41.882197,250.33447 40.646911,249.66363 39.457475,248.93258 38.314842,248.14393 37.219967,247.30026 36.173811,246.4042 35.17733,245.45834 34.231476,244.46529 33.337209,243.42764 32.495483,242.34801 31.707256,241.229 30.973485,240.07322 30.295124,238.88325 29.673132,237.66172 29.108463,236.41122 28.602076,235.13436 28.154925,233.83373 27.767967,232.51196 27.442159,231.17163 27.178457,229.81535 26.977817,228.44573 26.841196,227.06536 26.76955,225.67686 26.763836,224.28283 26.82501,222.88587 26.954028,221.48858 27.151846,220.09357 27.419422,218.70344 27.757711,217.3208 28.16767,215.94824 28.716077,214.41136 29.340373,212.92304 30.037641,211.48435 30.804969,210.0964 31.639439,208.76026 32.538133,207.47702 33.498144,206.24777 34.51655,205.07359 35.590439,203.95557 36.716895,202.89479 37.893004,201.89234 39.115847,200.94931 40.382515,200.06678 41.690086,199.24584 43.03565,198.48758 44.416291,197.79307 45.829092,197.16341 47.271139,196.59968 48.739516,196.10298 50.231309,195.67437 51.743603,195.31495 53.273481,195.02581 54.818031,194.80804 56.374335,194.6627 57.939477,194.59091 59.510545,194.59373 61.084622,194.67226 62.658794,194.82758 64.230144,195.06078 65.795758,195.37294 67.352721,195.76515 68.89812,196.2385 70.604633,196.86075 72.257014,197.56679 73.854048,198.35337 75.394519,199.21728 76.877212,200.15527 78.300907,201.16413 79.664391,202.24062 80.966449,203.38152 82.205863,204.5836 83.381417,205.84363 84.491895,207.15839 85.536083,208.52463 86.512761,209.93915 87.420716,211.3987 88.258731,212.90006 89.025587,214.44 89.720075,216.01529 90.340972,217.62271 90.887067,219.25903 91.35714,220.92101 91.749976,222.60544 92.064362,224.30907 92.299076,226.0287 92.452909,227.76107 92.524639,229.50298 92.51305,231.25118 92.416931,233.00246 92.235064,234.75358 91.966229,236.50131 91.609214,238.24243 91.162802,239.97371 90.625778,241.69192 89.929651,243.56795 89.141846,245.38427 88.265909,247.13955 87.305382,248.83244 86.263803,250.46159 85.144717,252.02564 83.951667,253.52327 82.688193,254.95311 81.357841,256.31383 79.964146,257.60407 78.510658,258.82249 77.000912,259.96774 75.438454,261.03847 73.826827,262.03335 72.169571,262.95102 70.470231,263.79013 68.732345,264.54934 66.959456,265.2273 65.155109,265.82267 63.322844,266.33409 61.466202,266.76023 59.588727,267.09973 57.693961,267.35125 55.785447,267.51344 53.866723,267.58496 51.941336,267.56445 50.012826,267.45057 48.084734,267.24198 46.160604,266.93733 44.243977,266.53526 42.338395,266.03444 40.447402,265.43352 38.401945,264.66352 36.421762,263.79394 34.508324,262.82864 32.663117,261.77148 30.887609,260.62631 29.183287,259.39699 27.551622,258.08738 25.994093,256.70132 24.512179,255.24269 23.107356,253.71532 21.781102,252.12308 20.534895,250.46983 19.370211,248.75942 18.288528,246.99571 17.291325,245.18256 16.380078,243.32381 15.556264,241.42333 14.821362,239.48497 14.176849,237.51259 13.624202,235.51004 13.164898,233.48118 12.800416,231.42987 12.532233,229.35996 12.361826,227.27532 12.290672,225.17978 12.32025,223.07722 12.452036,220.97149 12.687508,218.86644 13.028144,216.76593 13.475422,214.67381 14.030817,212.59395 14.695809,210.53019 15.539688,208.31536 16.491045,206.17136 17.545708,204.0998 18.699508,202.10228 19.948274,200.18042 21.287836,198.33582 22.714024,196.5701 24.222667,194.88486 25.809596,193.28171 27.470639,191.76227 29.201628,190.32813 30.998391,188.98092 32.856757,187.72224 34.772559,186.5537 36.741623,185.47691 38.759781,184.49347 40.822864,183.60501 42.926698,182.81312 45.067114,182.11942 47.239944,181.52552 49.441017,181.03302 51.666158,180.64353 53.911204,180.35867 56.17198,180.18005 58.444318,180.10927 60.724047,180.14794 63.006997,180.29768 65.288996,180.56008 67.565875,180.93677 69.833466,181.42935 72.087594,182.03942 74.324092,182.76861 76.708241,183.68638 79.016006,184.71955 81.245651,185.86364 83.395429,187.11415 85.463603,188.46661 87.44843,189.91653 89.348168,191.45941 91.161076,193.09078 92.885412,194.80615 94.519434,196.60103 96.061401,198.47094 97.509571,200.4114 98.862204,202.4179 100.11756,204.48598 101.27389,206.61114 102.32945,208.7889 103.28252,211.01477 104.13133,213.28426 104.87416,215.5929 105.50927,217.93618 106.0349,220.30964 106.44931,222.70878 106.75078,225.12912 106.93755,227.56617 107.00788,230.01544 106.96003,232.47245 106.79226,234.93271 106.50284,237.39174 106.09001,239.84505 105.55203,242.28816 104.88717,244.71657 104.09368,247.12581 103.36994,249.02627 102.57429,250.88749 101.70872,252.70821 100.77521,254.48714 99.775748,256.22301 98.712331,257.91456 97.586949,259.5605 96.401587,261.15956 95.158239,262.71047 93.858894,264.21195 92.50554,265.66273 91.100166,267.06153 89.644767,268.40709 88.141327,269.69812 86.591838,270.93336 84.99829,272.11153 83.362674,273.23135 81.686979,274.29155 79.973192,275.29086 78.223305,276.228 76.439311,277.10171 74.623195,277.91069 72.776949,278.65369 70.902559,279.32943 69.002022,279.93662 67.077323,280.47401 65.130454,280.94032 63.1634,281.33426 61.178159,281.65457 59.176712,281.89998 57.161056,282.0692 55.133175,282.16097 55.263873,287.22851 57.487054,287.12815 59.69625,286.94336 61.889324,286.67549 64.064137,286.32588 66.218554,285.89589 68.350431,285.38686 70.457637,284.80015 72.538033,284.1371 74.589477,283.39907 76.609838,282.58741 78.596972,281.70346 80.548744,280.74857 82.463017,279.7241 84.337652,278.63139 86.170515,277.47179 87.959463,276.24666 89.702359,274.95734 91.397071,273.60518 93.041455,272.19153 94.633374,270.71775 96.170693,269.18517 97.651274,267.59516 99.072979,265.94906 100.43367,264.24822 101.73121,262.49398 102.96346,260.68771 104.12828,258.83075 105.22353,256.92445 106.24709,254.97015 107.1968,252.96922 108.07053,250.92299 108.86616,248.83282 109.32122,247.50842 109.74068,246.17827 110.47373,243.5032 111.06719,240.81249 111.52293,238.11104 111.84284,235.40376 112.0288,232.69554 112.0827,229.99126 112.00642,227.29584 111.80185,224.61417 111.47086,221.95114 111.01535,219.31165 110.43719,216.70059 109.73826,214.12288 108.92046,211.58339 107.98567,209.08703 106.93577,206.63869 105.77264,204.24327 104.49816,201.90567 103.11422,199.63078 101.62271,197.42351 100.02551,195.28874 98.324494,193.23137 96.521555,191.2563 94.618572,189.36844 92.617431,187.57266 90.520014,185.87387 88.328206,184.27698 86.043891,182.78686 84.86763,182.08338 83.668948,181.40842 82.448082,180.76262 81.205267,180.14657 79.940736,179.56088 78.654728,179.00618 77.347474,178.48307 76.019214,177.99217 73.537445,177.18276 71.036672,176.50525 68.521479,175.9579 65.996448,175.53898 63.466167,175.24675 60.935216,175.07947 58.408181,175.03542 55.889645,175.11284 V 175.11284"
         style="color:#000000;font-style:normal;font-variant:normal;font-weight:normal;font-stretch:normal;font-size:medium;line-height:1.25;font-family:Arial;-inkscape-font-specification:'Arial Heavy';font-variant-ligatures:normal;font-variant-position:normal;font-variant-caps:normal;font-variant-numeric:normal;font-variant-alternates:normal;font-feature-settings:normal;text-indent:0;text-align:start;text-decoration:none;text-decoration-line:none;text-decoration-style:solid;text-decoration-color:#000000;letter-spacing:0px;word-spacing:0px;text-transform:none;writing-mode:lr-tb;direction:ltr;text-orientation:mixed;dominant-baseline:auto;baseline-shift:baseline;text-anchor:start;white-space:normal;shape-padding:0;clip-rule:nonzero;display:inline;overflow:visible;visibility:visible;opacity:1;isolation:auto;mix-blend-mode:normal;color-interpolation:sRGB;color-interpolation-filters:linearRGB;solid-color:#000000;solid-opacity:1;vector-effect:none;fill:#000000;fill-opacity:1;fill-rule:evenodd;stroke:none;stroke-width:5;stroke-linecap:butt;stroke-linejoin:miter;stroke-miterlimit:4;stroke-dasharray:none;stroke-dashoffset:0;stroke-opacity:1;color-rendering:auto;image-rendering:auto;shape-rendering:auto;text-rendering:auto;enable-background:accumulate" />
      <g
         aria-label="tessellate"
         style="font-style:normal;font-variant:normal;font-weight:900;font-stretch:normal;font-size:14.11111069px;line-height:1.25;font-family:Arial;-inkscape-font-specification:'Arial Heavy';letter-spacing:0px;word-spacing:0px;fill:#000000;fill-opacity:1;stroke:none;stroke-width:0.07000434"
         id="text933">
        <path
           d="M 89.776094,280.31854 V 283.10217 H 91.319497 V 285.14856 H 89.776094 V 287.74616 Q 89.776094,288.21469 89.865667,288.36628 90.00347,288.60055 90.34798,288.60055 90.658039,288.60055 91.216144,288.4214 L 91.42285,290.35754 Q 90.382431,290.58492 89.479816,290.58492 88.432507,290.58492 87.936413,290.3162 87.440319,290.04749 87.199163,289.50316 86.964896,288.95195 86.964896,287.72549 V 285.14856 H 85.931368 V 283.10217 H 86.964896 V 281.75859 Z"
           style="stroke-width:0.07000434"
           id="path935" />
        <path
           d="M 100.77284,287.45677 H 95.150443 Q 95.226235,288.13201 95.515623,288.46274 95.922144,288.93816 96.576712,288.93816 96.990124,288.93816 97.362194,288.73146 97.589571,288.60055 97.851398,288.26982 L 100.61436,288.52475 Q 99.980467,289.62718 99.084742,290.1095 98.189017,290.58492 96.514701,290.58492 95.06087,290.58492 94.227157,290.1784 93.393444,289.76499 92.842229,288.87615 92.297904,287.98043 92.297904,286.77464 92.297904,285.05899 93.393444,283.9979 94.495875,282.93681 96.432018,282.93681 98.002982,282.93681 98.912487,283.41223 99.821992,283.88765 100.29742,284.79027 100.77284,285.69288 100.77284,287.13982 Z M 97.9203,286.11319 Q 97.837617,285.30014 97.479327,284.94874 97.127928,284.59734 96.549152,284.59734 95.880803,284.59734 95.481172,285.12789 95.226235,285.45862 95.157333,286.11319 Z"
           style="stroke-width:0.07000434"
           id="path937" />
        <path
           d="M 101.57899,288.39384 104.36263,288.13201 Q 104.53488,288.62811 104.84494,288.8417 105.155,289.0553 105.67176,289.0553 106.23676,289.0553 106.54682,288.81414 106.78798,288.635 106.78798,288.36628 106.78798,288.06311 106.47103,287.89775 106.24365,287.78061 105.26524,287.60836 103.80452,287.35342 103.23264,287.13982 102.66764,286.91934 102.2749,286.40257 101.88905,285.88581 101.88905,285.22435 101.88905,284.50088 102.30935,283.97723 102.72965,283.45357 103.4669,283.19864 104.20415,282.93681 105.44439,282.93681 106.75352,282.93681 107.37364,283.13662 108.00065,283.33644 108.41406,283.75674 108.83436,284.17704 109.10997,284.89362 L 106.45036,285.15545 Q 106.347,284.80405 106.10585,284.63869 105.77512,284.4182 105.30658,284.4182 104.83116,284.4182 104.61068,284.59045 104.39708,284.75582 104.39708,284.99698 104.39708,285.26569 104.67269,285.4035 104.94829,285.5413 105.87158,285.65154 107.27029,285.81002 107.95242,286.09252 108.63455,286.37501 108.99284,286.89867 109.35802,287.42232 109.35802,288.04933 109.35802,288.68323 108.97217,289.28267 108.59321,289.88212 107.76638,290.24041 106.94645,290.59181 105.52707,290.59181 103.52203,290.59181 102.66764,290.01992 101.82015,289.44804 101.57899,288.39384 Z"
           style="stroke-width:0.07000434"
           id="path939" />
        <path
           d="M 110.20551,288.39384 112.98915,288.13201 Q 113.1614,288.62811 113.47146,288.8417 113.78152,289.0553 114.29828,289.0553 114.86328,289.0553 115.17334,288.81414 115.41449,288.635 115.41449,288.36628 115.41449,288.06311 115.09755,287.89775 114.87017,287.78061 113.89176,287.60836 112.43104,287.35342 111.85916,287.13982 111.29416,286.91934 110.90142,286.40257 110.51557,285.88581 110.51557,285.22435 110.51557,284.50088 110.93587,283.97723 111.35617,283.45357 112.09342,283.19864 112.83067,282.93681 114.07091,282.93681 115.38004,282.93681 116.00016,283.13662 116.62717,283.33644 117.04058,283.75674 117.46088,284.17704 117.73649,284.89362 L 115.07688,285.15545 Q 114.97352,284.80405 114.73237,284.63869 114.40164,284.4182 113.9331,284.4182 113.45768,284.4182 113.23719,284.59045 113.0236,284.75582 113.0236,284.99698 113.0236,285.26569 113.29921,285.4035 113.57481,285.5413 114.4981,285.65154 115.89681,285.81002 116.57894,286.09252 117.26107,286.37501 117.61936,286.89867 117.98454,287.42232 117.98454,288.04933 117.98454,288.68323 117.59869,289.28267 117.21972,289.88212 116.3929,290.24041 115.57297,290.59181 114.15359,290.59181 112.14854,290.59181 111.29416,290.01992 110.44667,289.44804 110.20551,288.39384 Z"
           style="stroke-width:0.07000434"
           id="path941" />
        <path
           d="M 127.45166,287.45677 H 121.82926 Q 121.90505,288.13201 122.19444,288.46274 122.60096,288.93816 123.25553,288.93816 123.66894,288.93816 124.04101,288.73146 124.26839,288.60055 124.53022,288.26982 L 127.29318,288.52475 Q 126.65929,289.62718 125.76356,290.1095 124.86784,290.58492 123.19352,290.58492 121.73969,290.58492 120.90598,290.1784 120.07226,289.76499 119.52105,288.87615 118.97672,287.98043 118.97672,286.77464 118.97672,285.05899 120.07226,283.9979 121.17469,282.93681 123.11084,282.93681 124.6818,282.93681 125.59131,283.41223 126.50081,283.88765 126.97623,284.79027 127.45166,285.69288 127.45166,287.13982 Z M 124.59912,286.11319 Q 124.51644,285.30014 124.15815,284.94874 123.80675,284.59734 123.22797,284.59734 122.55962,284.59734 122.15999,285.12789 121.90505,285.45862 121.83615,286.11319 Z"
           style="stroke-width:0.07000434"
           id="path943" />
        <path
           d="M 128.85037,280.31854 H 131.66156 V 290.41956 H 128.85037 Z"
           style="stroke-width:0.07000434"
           id="path945" />
        <path
           d="M 133.56326,280.31854 H 136.37445 V 290.41956 H 133.56326 Z"
           style="stroke-width:0.07000434"
           id="path947" />
        <path
           d="M 140.73595,285.4724 138.05566,285.1899 Q 138.20725,284.4871 138.48974,284.08747 138.77913,283.68095 139.31657,283.38467 139.70242,283.17107 140.37766,283.05394 141.05289,282.93681 141.83838,282.93681 143.09928,282.93681 143.86409,283.0815 144.6289,283.21931 145.13878,283.66717 145.49707,283.97723 145.70377,284.54911 145.91048,285.11411 145.91048,285.63087 V 288.86237 Q 145.91048,289.37914 145.97249,289.67542 146.04139,289.9648 146.26188,290.41956 H 143.62983 Q 143.47135,290.13706 143.42312,289.99236 143.37489,289.84078 143.32666,289.52383 142.77544,290.05438 142.23112,290.28175 141.48698,290.58492 140.50168,290.58492 139.19254,290.58492 138.51041,289.97858 137.83518,289.37225 137.83518,288.48341 137.83518,287.6497 138.32438,287.11226 138.81358,286.57483 140.12961,286.313 141.70746,285.99605 142.176,285.87203 142.64453,285.74112 143.16818,285.53441 143.16818,285.01765 142.95459,284.81094 142.74099,284.60423 142.20356,284.60423 141.51454,284.60423 141.17003,284.82472 140.90131,284.99698 140.73595,285.4724 Z M 143.16818,286.9469 Q 142.58941,287.15361 141.9624,287.31208 141.10802,287.53946 140.88064,287.75994 140.64637,287.98732 140.64637,288.27671 140.64637,288.60744 140.87375,288.82103 141.10802,289.02774 141.55588,289.02774 142.02441,289.02774 142.42404,288.80036 142.83056,288.57298 142.99593,288.24915 143.16818,287.91842 143.16818,287.39476 Z"
           style="stroke-width:0.07000434"
           id="path949" />
        <path
           d="M 150.7405,280.31854 V 283.10217 H 152.28391 V 285.14856 H 150.7405 V 287.74616 Q 150.7405,288.21469 150.83008,288.36628 150.96788,288.60055 151.31239,288.60055 151.62245,288.60055 152.18055,288.4214 L 152.38726,290.35754 Q 151.34684,290.58492 150.44422,290.58492 149.39692,290.58492 148.90082,290.3162 148.40473,290.04749 148.16357,289.50316 147.92931,288.95195 147.92931,287.72549 V 285.14856 H 146.89578 V 283.10217 H 147.92931 V 281.75859 Z"
           style="stroke-width:0.07000434"
           id="path951" />
        <path
           d="M 161.73725,287.45677 H 156.11485 Q 156.19064,288.13201 156.48003,288.46274 156.88655,288.93816 157.54112,288.93816 157.95453,288.93816 158.3266,288.73146 158.55398,288.60055 158.81581,288.26982 L 161.57877,288.52475 Q 160.94488,289.62718 160.04915,290.1095 159.15343,290.58492 157.47911,290.58492 156.02528,290.58492 155.19157,290.1784 154.35785,289.76499 153.80664,288.87615 153.26231,287.98043 153.26231,286.77464 153.26231,285.05899 154.35785,283.9979 155.46028,282.93681 157.39643,282.93681 158.96739,282.93681 159.8769,283.41223 160.7864,283.88765 161.26183,284.79027 161.73725,285.69288 161.73725,287.13982 Z M 158.88471,286.11319 Q 158.80203,285.30014 158.44374,284.94874 158.09234,284.59734 157.51356,284.59734 156.84521,284.59734 156.44558,285.12789 156.19064,285.45862 156.12174,286.11319 Z"
           style="stroke-width:0.07000434"
           id="path953" />
      </g>
    </g>
  </g>
</svg>
