<?xml version="1.0" encoding="UTF-8" standalone="no"?>
<!-- Generator: Adobe Illustrator 13.0.0, SVG Export Plug-In . SVG Version: 6.00 Build 14948)  -->

<svg
   xmlns:dc="http://purl.org/dc/elements/1.1/"
   xmlns:cc="http://creativecommons.org/ns#"
   xmlns:rdf="http://www.w3.org/1999/02/22-rdf-syntax-ns#"
   xmlns:svg="http://www.w3.org/2000/svg"
   xmlns="http://www.w3.org/2000/svg"
   xmlns:sodipodi="http://sodipodi.sourceforge.net/DTD/sodipodi-0.dtd"
   xmlns:inkscape="http://www.inkscape.org/namespaces/inkscape"
   version="1.1"
   id="Layer_1"
   x="0px"
   y="0px"
   width="640px"
   height="480px"
   viewBox="0 0 640 480"
   enable-background="new 0 0 640 480"
   xml:space="preserve"
   sodipodi:docname="nano.svg"
   inkscape:version="0.92.4 (5da689c313, 2019-01-14)"><metadata
   id="metadata9"><rdf:RDF><cc:Work
       rdf:about=""><dc:format>image/svg+xml</dc:format><dc:type
         rdf:resource="http://purl.org/dc/dcmitype/StillImage" /></cc:Work></rdf:RDF></metadata><defs
   id="defs7" /><sodipodi:namedview
   pagecolor="#ffffff"
   bordercolor="#666666"
   borderopacity="1"
   objecttolerance="10"
   gridtolerance="10"
   guidetolerance="10"
   inkscape:pageopacity="0"
   inkscape:pageshadow="2"
   inkscape:window-width="1920"
   inkscape:window-height="1017"
   id="namedview5"
   showgrid="false"
   inkscape:zoom="1.2371639"
   inkscape:cx="350.66266"
   inkscape:cy="181.05778"
   inkscape:window-x="-8"
   inkscape:window-y="-8"
   inkscape:window-maximized="1"
   inkscape:current-layer="Layer_1" />
<path
   style="stroke-width:1"
   sodipodi:nodetypes="scccsscccscscccccccscccscccscscccccccscccccccccsssscssssssssssscsssccscccsssccscccscccccccssssssssss"
   inkscape:connector-curvature="0"
   id="path2"
   d="M219.00471 289.719L218.922263359 293.07973291L218.67500375 296.366338281L218.263051641 299.578916074L217.6865275 302.71756625L216.945551797 305.78238877L216.040245 308.773483594L214.970727578 311.690950684L213.73712 314.53489L212.350315176 317.29233707L210.824993906 319.950241562L209.161175996 322.508563398L207.35888125 324.9672625L205.418129473 327.326298789L203.338940469 329.585632187L201.121334043 331.745222617L198.76533 333.80503L196.266942949 335.760238496L193.625959219 337.602264844L190.842318691 339.331189082L187.91596125 340.94709125L184.846826777 342.450051387L181.634855156 343.840149531L178.27998627 345.117465723L174.78216 346.28208L171.157004453 347.32083709L167.42398625 348.221676094L163.583065547 348.984417363L159.6342025 349.60888125L151.41249 350.442258281L142.75853 350.72037L136.486525773 350.594641113L130.427325563 350.217494531L124.58080932 349.588990371L118.946857 348.70918875L113.525348555 347.578149785L108.316163938 346.195933594L103.319183102 344.562600293L98.534286 342.67821L93.9613947305 340.611993672L89.6005883438 338.43313625L85.4519867227 336.141617578L81.51570975 333.7374175L77.7918773086 331.220515859L74.2806092812 328.5908925L70.9820255508 325.848527266L67.896246 322.9934L91.464756 297.2083L96.8449999062 301.645103437L102.45064675 305.5264775L108.281854219 308.853065313L114.33878 311.62551L117.45080498 312.795313125L120.619539219 313.8091425L123.84490291 314.666998125L127.12681625 315.36888L130.465199434 315.914788125L133.859972656 316.3047225L137.311056113 316.538683125L140.81837 316.61667L144.258295488 316.51916959L147.507332031 316.226681719L150.565599746 315.739226426L153.43321875 315.05682375L156.11030916 314.17949373L158.596991094 313.107256406L160.893384668 311.840131816L162.99961 310.37814L164.883930547 308.746658496L166.51707375 306.972319219L167.899019453 305.05512252L169.0297475 302.99506875L169.909237734 300.792158262L170.53747 298.446391406L170.914424141 295.957768535L171.04008 293.32629L170.944255312 290.78088L170.6574225 288.4074375L170.180543437 286.20644625L169.51458 284.17839L168.6044075 282.271776406L167.399725 280.43459125L165.9010125 278.666512969L164.10875 276.96722L162.001907969 275.329470469L159.56680125 273.74387125L156.803428906 272.210743906L153.71179 270.73041L146.32956125 267.78455L137.21451 264.76831L129.234063594 262.092976719L121.92982375 259.32965625L115.301632031 256.478670156L109.34933 253.54034L104.002893594 250.482853594L99.19316675 247.26875125L94.9212705313 243.897555781L91.188326 240.36879L87.9642550625 236.670024531L85.226021 232.77945125L82.9737869375 228.697869844L81.207716 224.42608L79.87217475 219.929529219L78.918811 215.17302375L78.34714475 210.156401406L78.156696 204.8795L78.243255082 201.597569863L78.5029855313 198.406664531L78.9359671523 195.306784121L79.54227975 192.29792875L80.3220031289 189.380098535L81.2752170938 186.553293594L82.4020014492 183.817514043L83.702436 181.17276L85.1533992813 178.623416543L86.734321625 176.173815469L88.4452630312 173.823876973L90.2862835 171.57352125L92.2574430312 169.422668496L94.358801625 167.371238906L96.5904192812 165.419152676L98.952356 163.56633L103.994736906 160.179517812L109.41864825 157.22479L115.224254469 154.702947188L121.41172 152.61479L127.908227969 150.977622656L134.64853375 149.80821625L141.632640156 149.106571719L148.86055 148.87269L154.182534512 148.972420098L159.335587969 149.271557031L164.319710254 149.770020762L169.13490125 150.46773125L173.78116084 151.364608457L178.258488906 152.460572344L182.566885332 153.755542871L186.70635 155.24944L190.707194531 156.935484707L194.599738125 158.803158906L198.383980781 160.852522715L202.0599225 163.08363625L205.627563281 165.496559629L209.086903125 168.091352969L212.437942031 170.868076387L215.68068 173.82679L194.05402 198.78089L189.162624434 195.012743594L184.193120469 191.74669125L179.145628457 188.982833281L174.02026875 186.72127L168.817161699 184.962101719L163.536427656 183.70542875L158.178186973 182.951351406L152.74256 182.69997L149.705397168 182.775937207L146.832864844 183.003758906L144.124983535 183.383315215L141.58177375 183.91448625L139.203255996 184.597152129L136.989450781 185.431192969L134.940378613 186.416488887L133.05606 187.55292L131.365687246 188.829013438L129.900957969 190.23078625L128.661791895 191.758178438L127.64810875 193.41113L126.859828262 195.189580938L126.296870156 197.09347125L125.95915416 199.122740937L125.8466 201.27733L125.941704844 203.548442813L126.22733875 205.645025L126.703980781 207.567877188L127.37211 209.3178L128.280112344 210.955570625L129.48374875 212.541355L130.983018281 214.074991875L132.77792 215.55632L134.917665625 217.003301875L137.456385 218.4334875L140.393759375 219.846074375L143.72947 221.24026L151.8046925 224.22174125L161.89047 227.61531L168.499860625 229.88652625L174.7467575 232.261565L180.630838125 234.73994625L186.15178 237.32119L191.2709425 240.086862813L195.9577 243.11137L200.21221 246.395032188L204.03463 249.93817L207.429633438 253.750699844L210.4096675 257.83998625L212.975052812 262.206347031L215.12611 266.8501L216.034010352 269.298164551L216.821312813 271.863608906L218.0335625 277.34647625L218.761735938 283.298380469L219.00471 289.719L219.00471 289.719M309.94622 307.74179L345.16078 153.85874L392.01798 153.85874L337.39504 346.00394L280.00267 346.00394L225.10331 153.85874L273.90236 153.85874L308.56064 307.74179L309.94622 307.74179M483.7905 350.71868L478.633489688 350.618495469L473.6291775 350.31794375L468.777569062 349.817027656L464.07867 349.11575L459.532485625 348.214091875L455.13902 347.112075L450.898276875 345.809695625L446.81026 344.30695L442.874979844 342.603838281L439.09244375 340.70036125L435.462650781 338.596516094L431.9856 336.2923L428.661312187 333.787713281L425.4897825 331.08276875L422.471016563 328.177459844L419.60502 325.07178L416.9016875 321.77143L414.37285 318.28148L412.018465 314.60194375L409.83856 310.7328L407.8330925 306.6740775L406.00206 302.42577L404.34547375 297.98788L402.8633 293.36042L401.5555325 288.5433825L400.42217 283.53679L399.4632025 278.3406425L398.67861 272.95494L398.0683925 267.37968875L397.63255 261.61489L397.3710325 255.66056125L397.28386 249.5167L397.39641625 243.504425L397.73413 237.66522L398.29709375 231.99906625L399.08538 226.50596L400.0990525 221.18583L401.33822 216.03871L402.8029475 211.06456875L404.49332 206.26337L406.37924375 201.64526L408.43439 197.2178L410.6587525 192.98094625L413.0523 188.93466L415.61502375 185.0789025L418.34691 181.41363L421.24791625 177.93880875L424.31804 174.65439L427.536389063 171.564285703L430.88469625 168.668649375L434.363021563 165.967580859L437.971425 163.46118L441.709966562 161.149546641L445.57870625 159.032780625L449.577704063 157.110981797L453.70702 155.38425L457.93816498 153.857956602L462.242656094 152.534909688L466.620573848 151.41518918L471.07199875 150.498875L475.597011309 149.78604707L480.195692031 149.276785313L484.868121426 148.971169648L489.61438 148.86928L494.798763086 148.973259473L499.819194063 149.285184531L504.675533008 149.805035137L509.36764 150.53279125L513.895375117 151.468432832L518.258598438 152.611939844L522.457170039 153.963292246L526.49095 155.52247L530.376766895 157.246888105L534.132785156 159.092687969L537.758944902 161.05982916L541.25518625 163.14827125L544.621449316 165.357973809L547.857674219 167.688896406L550.963801074 170.140998613L553.93977 172.71424L529.81668 197.66833L525.388597031 194.038622031L520.97827125 190.91042875L516.585542344 188.284231094L512.21025 186.16051L507.661627969 184.522627031L502.74922875 183.35330375L497.473370156 182.652061094L491.83437 182.41842L486.807003125 182.65229875L481.98856 183.3539375L477.378721875 184.52334L472.97717 186.16051L470.865212813 187.165521875L468.82690375 188.30943L466.862302813 189.592114375L464.97147 191.013455L463.154465313 192.573331875L461.41134875 194.271625L458.14702 198.08298L456.630316133 200.19965043L455.200317187 202.459395312L452.600435 207.40771L450.347375313 212.927127187L448.44114 219.01685L446.924190781 225.724231562L445.84124875 233.0895825L445.191834844 241.113062188L444.97547 249.79483L445.131097031 258.849733906L445.59851125 267.15852375L446.378512344 274.721841719L447.4719 281.54033L448.866390938 287.674922344L450.55491 293.18594125L452.538419062 298.073067031L454.81788 302.33598L457.408319219 306.009812344L458.827299316 307.638963691L460.32862625 309.12949875L461.912179902 310.481337715L463.577840156 311.694400781L465.325486895 312.768608145L467.155 313.70388L471.05519375 315.220827656L475.2666975 316.30376625L479.78983 316.953176719L484.62491 317.16954L488.17623832 317.070019902L491.623764063 316.771392969L494.967507148 316.273559238L498.2074875 315.57641875L501.343725039 314.679871543L504.376239688 313.583817656L507.305051367 312.288157129L510.13018 310.79279L510.13018 267.81592L484.90136 267.81592L480.46477 235.65235L554.77249 235.65235L554.77249 330.47588L550.981381328 332.833564023L547.094869375 335.052370312L543.113053984 337.132278945L539.036035 339.07327L534.863912266 340.875323555L530.596785625 342.538419687L526.234754922 344.062538477L521.77792 345.44766L517.240996953 346.681908789L512.64372375 347.752046563L507.986060547 348.65793293L503.2679675 349.3994275L498.489404766 349.976389883L493.6503325 350.388679688L488.750710859 350.636156523L483.7905 350.71868L483.7905 350.71868M629.97266 121.17815L629.866933896 119.084657993L629.556619453 117.05161332L629.052012471 115.089311753L628.36340875 113.208049062L627.501104092 111.418121021L626.475394297 109.729823398L625.296575166 108.153451968L623.9749425 106.6993025L622.5207921 105.377670767L620.944419766 104.198852539L619.256121299 103.173143589L617.4661925 102.310839687L615.58492917 101.622236606L613.622627109 101.117630117L611.589582119 100.807315991L609.49609 100.70159L24.207797 100.70159L22.1143048441 100.807315991L20.0812600934 101.117630117L18.1189585108 101.622236606L16.2376958594 102.310839687L14.4477679021 103.173143589L12.759470402 104.198852539L11.1830991219 105.377670767L9.728949825 106.6993025L8.40731827417 108.153451968L7.22850023242 109.729823398L6.20279146274 111.418121021L5.34048772812 113.208049062L4.65188479155 115.089311753L4.14727841602 117.05161332L3.8369643645 119.084657993L3.7312384 121.17815L3.7312384 377.13514L3.8369643645 379.228631895L4.14727841602 381.26167625L4.65188479155 383.223977324L5.34048772812 385.105239375L6.20279146274 386.89516666L7.22850023242 388.583463438L8.40731827417 390.159833965L9.728949825 391.6139825L11.1830991219 392.935613301L12.759470402 394.114430625L14.4477679021 395.14013873L16.2376958594 396.002441875L18.1189585108 396.691044316L20.0812600934 397.195650312L22.1143048441 397.505964121L24.207797 397.61169L609.49609 397.61169L611.589582119 397.505964121L613.622627109 397.195650312L615.58492917 396.691044316L617.4661925 396.002441875L619.256121299 395.14013873L620.944419766 394.114430625L622.5207921 392.935613301L623.9749425 391.6139825L625.296575166 390.159833965L626.475394297 388.583463438L627.501104092 386.89516666L628.36340875 385.105239375L629.052012471 383.223977324L629.556619453 381.26167625L629.866933896 379.228631895L629.97266 377.13514L629.97266 121.17815" />
</svg>